<svg width="20" height="20" viewBox="0 0 20 20" fill="none" xmlns="http://www.w3.org/2000/svg">
<g clip-path="url(#clip0_337_541)">
<path d="M10.3872 8.94035C9.50471 8.94035 8.78975 8.24299 8.78975 7.38439C8.78975 6.52526 9.50471 5.8279 10.3872 5.8279C11.27 5.8279 11.9852 6.52553 11.9852 7.38439C11.9849 8.24299 11.27 8.94035 10.3872 8.94035ZM17.4999 18.3333H11.1281V15.5665C11.3626 15.5231 11.6168 15.4598 11.8805 15.3728C12.8434 15.054 13.5463 14.5706 13.4479 14.2915C13.3506 14.0118 12.4911 14.0419 11.5282 14.3599C11.3878 14.4067 11.2552 14.457 11.1281 14.5094V11.6702C11.2088 11.5712 11.2853 11.4541 11.3615 11.3211C11.7999 11.6321 12.1987 11.7489 12.5001 11.6111C12.7759 11.485 12.9344 11.1617 12.9863 10.7057C13.4395 10.7866 13.8049 10.7445 14.0063 10.5277C14.1979 10.3244 14.2282 9.9977 14.126 9.59753C14.5395 9.51026 14.8243 9.33972 14.929 9.08163C15.0369 8.80838 14.9295 8.475 14.6546 8.11475C15.0399 7.87023 15.261 7.59405 15.255 7.30138C15.2493 6.96667 14.9516 6.66309 14.4466 6.41139C14.7702 5.95961 14.8858 5.55519 14.7303 5.25719C14.5739 4.95787 14.1651 4.81153 13.5939 4.80382C13.6813 4.25439 13.6015 3.8372 13.3247 3.63818C13.1074 3.48013 12.7945 3.47694 12.4209 3.59614C12.2968 3.23269 12.1076 2.98977 11.8491 2.91235C11.6266 2.84716 11.3749 2.90836 11.1126 3.07758C10.9106 2.84051 10.6898 2.71147 10.4564 2.71147C10.1226 2.71147 9.81327 2.98179 9.55145 3.44448C9.11252 3.13584 8.71459 3.01798 8.41286 3.15686C8.13737 3.28245 7.97886 3.60652 7.9272 4.06149C7.47379 3.98061 7.10812 4.02264 6.90724 4.23816C6.71483 4.44196 6.68504 4.76843 6.78753 5.16992C6.37293 5.25719 6.08733 5.42747 5.98429 5.68556C5.87552 5.95987 5.98347 6.29272 6.25896 6.65351C5.87251 6.89829 5.65278 7.1742 5.65769 7.46687C5.66371 7.80185 5.96188 8.10384 6.46613 8.35554C6.14199 8.80732 6.02638 9.21174 6.18271 9.5108C6.33904 9.80932 6.74845 9.95619 7.31938 9.96284C7.23219 10.5131 7.312 10.9297 7.58886 11.1295C7.80394 11.2871 8.11879 11.291 8.4924 11.1721C8.6162 11.5353 8.8056 11.7787 9.06497 11.8538C9.28279 11.9187 9.52767 11.8596 9.78649 11.6976V13.724C9.67798 13.6588 9.56456 13.596 9.44431 13.5361C8.53831 13.0873 7.66292 12.9912 7.49019 13.3222C7.31637 13.6542 7.91026 14.2878 8.81626 14.7371C9.15597 14.9061 9.49159 15.0245 9.78676 15.0891V18.333H3.33325V1.66663H17.4999V18.3333Z" fill="#4CA350"/>
</g>
<defs>
<clipPath id="clip0_337_541">
<rect width="20" height="20" fill="white"/>
</clipPath>
</defs>
</svg>
