<svg width="20" height="20" viewBox="0 0 20 20" fill="none" xmlns="http://www.w3.org/2000/svg">
<path d="M14.2871 18.3182H17.3301C17.54 16.5509 17.9092 14.8292 18.4287 13.1934L18.4297 13.192H18.4287C18.8564 11.8454 19.3828 10.5666 20 9.37771C17.2198 10.9388 15.1086 14.2424 14.2871 18.3182ZM1.57135 13.1934C2.0899 14.8292 2.45905 16.5508 2.66997 18.3182H5.71397H5.71299C4.89169 14.2424 2.7805 10.939 0 9.37804C0.617199 10.5669 1.14355 11.8456 1.5713 13.1923L1.57135 13.1934ZM5.86234 11.7804C6.16997 13.83 6.30374 16.0109 6.26177 18.3181H8.96402C9.1896 17.5458 9.43666 16.7888 9.70424 16.0484C9.28529 14.9246 8.81654 13.8382 8.30092 12.7989L8.29017 12.7781L8.2892 12.7768C7.31362 10.8143 6.173 9.02485 4.8937 7.45003C5.31655 8.84504 5.64164 10.2953 5.86234 11.7804ZM8.77059 12.4571V12.4585C9.21589 13.3608 9.62606 14.295 10.0001 15.2596C10.502 13.9642 11.0704 12.7214 11.6993 11.541L11.7979 11.3569C11.4141 9.21456 10.8272 7.2716 10.0362 5.53063V5.53201C9.37997 4.08995 8.58602 2.78489 7.67587 1.65149C8.01182 3.13369 8.24617 4.6408 8.4083 6.04538C8.7579 9.07759 8.77549 11.6462 8.77059 12.4571ZM9.53134 18.3167H13.7383C13.6963 16.0083 13.8292 13.83 14.1378 11.7804L14.1368 11.7818C14.3585 10.2969 14.6827 8.84508 15.1065 7.45134C14.001 8.81174 13.0001 10.3327 12.1173 11.988C11.0762 13.9407 10.2081 16.0666 9.53126 18.3181" fill="#4CA350"/>
</svg>
