<svg width="20" height="20" viewBox="0 0 20 20" fill="none" xmlns="http://www.w3.org/2000/svg">
<path fill-rule="evenodd" clip-rule="evenodd" d="M4.18079 15.6684V12.6646C4.61823 12.9538 5.09875 13.1664 5.602 13.2937C6.73539 13.6149 8.29483 13.8218 10.0141 13.8218C11.7328 13.8218 13.2921 13.6211 14.4262 13.2937C14.9295 13.1664 15.41 12.9538 15.8475 12.6646V15.6684C15.8475 16.6512 13.2432 17.4471 10.0142 17.4471C6.78516 17.4471 4.18079 16.6443 4.18079 15.6684ZM10.0141 2.44714C13.2311 2.44714 15.8474 3.24999 15.8474 4.22592C15.8474 5.2025 13.2311 6.00406 10.0141 6.00406C6.79702 6.00406 4.18079 5.20122 4.18079 4.22657C4.18079 3.25187 6.79702 2.44714 10.0141 2.44714ZM6.84435 14.5669C6.60858 14.5669 6.39554 14.7161 6.30519 14.9445C6.21483 15.1734 6.2651 15.4362 6.43206 15.6112C6.59901 15.7862 6.84975 15.8389 7.06816 15.7442C7.28598 15.6494 7.42841 15.4261 7.42841 15.1784C7.42721 14.841 7.16631 14.5681 6.84435 14.5669ZM6.84435 10.7922C7.08073 10.7922 7.29376 10.9409 7.38412 11.1698C7.47447 11.3987 7.42421 11.6622 7.25665 11.8371C7.0897 12.0115 6.83836 12.0636 6.61995 11.9682C6.40213 11.8735 6.2603 11.6496 6.2609 11.4019C6.2609 11.24 6.32253 11.0845 6.43205 10.9703C6.54155 10.8556 6.68997 10.7916 6.84435 10.7922ZM6.84435 7.015C7.08073 7.015 7.29376 7.16428 7.38352 7.39322C7.47388 7.62153 7.42421 7.88496 7.25725 8.05932C7.0903 8.23431 6.83956 8.28701 6.62115 8.19229C6.40332 8.09758 6.2609 7.87429 6.2609 7.62717C6.2609 7.28909 6.5224 7.015 6.84435 7.015ZM4.18079 12.1953C4.43211 12.465 4.9653 12.7171 5.69596 12.9272C6.79703 13.2515 8.32904 13.4478 10.0142 13.4478C11.6993 13.4478 13.2312 13.2521 14.3328 12.9341C15.0695 12.7234 15.5967 12.4712 15.8474 12.1953V8.80261C15.401 9.11874 14.9043 9.34766 14.3801 9.47812C13.2587 9.79926 11.7159 10.0062 10.0141 10.0062C8.31228 10.0062 6.76947 9.80554 5.6481 9.47812C5.12389 9.34766 4.62721 9.11872 4.1808 8.80261L4.18079 12.1953ZM4.18079 8.30148C4.39382 8.60004 4.94675 8.88103 5.7432 9.11248C6.83231 9.43361 8.34749 9.62617 10.0141 9.62617C11.6807 9.62617 13.1959 9.43047 14.2849 9.11248C15.0772 8.88103 15.6344 8.60004 15.8474 8.30148V5.00982C15.4171 5.44323 14.6954 5.70478 14.2388 5.84339C12.9247 6.25423 11.3928 6.37966 10.0141 6.37966C8.63533 6.37966 7.1034 6.25422 5.78931 5.84339C5.32973 5.70541 4.61104 5.44385 4.18079 5.00982V8.30148Z" fill="#4CA350"/>
</svg>
