<svg width="20" height="20" viewBox="0 0 20 20" fill="none" xmlns="http://www.w3.org/2000/svg">
<path d="M8.0419 14.5062L5.90655 13.716L5.11638 11.5807C5.05308 11.41 4.8903 11.2969 4.70829 11.2969C4.52628 11.2969 4.36351 11.41 4.3002 11.5807L3.51003 13.716L1.37468 14.5062C1.20399 14.5695 1.09094 14.7323 1.09094 14.9143C1.09094 15.0963 1.20398 15.2591 1.37468 15.3224L3.51003 16.1125L4.3002 18.2479C4.3635 18.4186 4.52628 18.5316 4.70829 18.5316C4.8903 18.5316 5.05306 18.4186 5.11638 18.2479L5.90655 16.1125L8.0419 15.3224C8.21259 15.2591 8.32563 15.0963 8.32563 14.9143C8.32563 14.7323 8.21259 14.5695 8.0419 14.5062Z" fill="#4CA350"/>
<path d="M18.5613 7.99502L13.9945 6.30506L12.3046 1.73826C12.2412 1.56757 12.0785 1.45453 11.8965 1.45453C11.7145 1.45453 11.5517 1.56757 11.4884 1.73826L9.79841 6.30506L5.23161 7.99502C5.06092 8.05832 4.94788 8.2211 4.94788 8.40311C4.94788 8.58512 5.06092 8.74789 5.23161 8.8112L9.79841 10.5012L11.4884 15.068C11.5517 15.2387 11.7145 15.3517 11.8965 15.3517C12.0785 15.3517 12.2412 15.2387 12.3046 15.068L13.9945 10.5012L18.5613 8.8112C18.732 8.7479 18.845 8.58512 18.845 8.40311C18.845 8.2211 18.732 8.05834 18.5613 7.99502Z" fill="#4CA350"/>
<path d="M5.43154 4.35165C5.43154 5.89466 3.11646 5.89466 3.11646 4.35165C3.11646 2.80865 5.43154 2.80865 5.43154 4.35165Z" fill="#4CA350"/>
</svg>
