<svg width="20" height="20" viewBox="0 0 20 20" fill="none" xmlns="http://www.w3.org/2000/svg">
<path d="M9.99996 18.3333C9.80551 18.3333 9.63885 18.2778 9.49996 18.1667C9.36107 18.0555 9.2569 17.9097 9.18746 17.7292C8.92357 16.9514 8.59024 16.2222 8.18746 15.5417C7.79857 14.8611 7.24996 14.0625 6.54163 13.1458C5.83329 12.2292 5.2569 11.3542 4.81246 10.5208C4.3819 9.68749 4.16663 8.68054 4.16663 7.49999C4.16663 5.87499 4.72913 4.49999 5.85413 3.37499C6.99301 2.2361 8.37496 1.66666 9.99996 1.66666C11.625 1.66666 13 2.2361 14.125 3.37499C15.2638 4.49999 15.8333 5.87499 15.8333 7.49999C15.8333 8.76388 15.5902 9.81943 15.1041 10.6667C14.6319 11.5 14.0833 12.3264 13.4583 13.1458C12.7083 14.1458 12.1388 14.9792 11.75 15.6458C11.375 16.2986 11.0625 16.993 10.8125 17.7292C10.743 17.9236 10.6319 18.0764 10.4791 18.1875C10.3402 18.2847 10.1805 18.3333 9.99996 18.3333ZM9.99996 9.58332C10.5833 9.58332 11.0763 9.38193 11.4791 8.97916C11.8819 8.57638 12.0833 8.08332 12.0833 7.49999C12.0833 6.91666 11.8819 6.4236 11.4791 6.02082C11.0763 5.61805 10.5833 5.41666 9.99996 5.41666C9.41663 5.41666 8.92357 5.61805 8.52079 6.02082C8.11801 6.4236 7.91663 6.91666 7.91663 7.49999C7.91663 8.08332 8.11801 8.57638 8.52079 8.97916C8.92357 9.38193 9.41663 9.58332 9.99996 9.58332Z" fill="#4CA350"/>
</svg>
