<svg width="20" height="20" viewBox="0 0 20 20" fill="none" xmlns="http://www.w3.org/2000/svg">
<path d="M18.6265 14.7478C18.6265 15.0255 18.3993 15.2528 18.1216 15.2528H10.9596C10.8836 15.4652 10.7678 15.6619 10.6009 15.8238C10.3282 16.1015 9.94464 16.2635 9.53555 16.2635H6.50501C5.84875 16.2635 5.29264 15.8395 5.08101 15.2535L1.95955 15.2528C1.68186 15.2528 1.45459 15.0255 1.45459 14.7478C1.45459 14.4702 1.68186 14.2429 1.95955 14.2429H5.08101C5.157 14.0305 5.27277 13.8338 5.43968 13.6719C5.71241 13.3942 6.09594 13.2322 6.50503 13.2322H9.53557C10.1918 13.2322 10.7479 13.6562 10.9596 14.2422H18.1216C18.3993 14.2422 18.6265 14.4694 18.6265 14.7471V14.7478ZM18.1216 9.19239H16.5158C16.3034 8.60644 15.748 8.18244 15.0918 8.18244H12.0612C11.6521 8.18244 11.2686 8.34437 10.9959 8.62208C10.829 8.78401 10.7132 8.98075 10.6372 9.1931L1.95955 9.19239C1.68186 9.19239 1.45459 9.41966 1.45459 9.69735C1.45459 9.97504 1.68186 10.2023 1.95955 10.2023H10.6365C10.8488 10.7883 11.4042 11.2123 12.0605 11.2123H15.091C15.5001 11.2123 15.8836 11.0503 16.1564 10.7726C16.3233 10.6107 16.439 10.414 16.515 10.2016H18.1208C18.3985 10.2016 18.6258 9.97433 18.6258 9.69664C18.6258 9.41895 18.3985 9.19168 18.1208 9.19168L18.1216 9.19239ZM1.95957 5.65693H3.56539C3.77775 6.24288 4.33315 6.66688 4.98939 6.66688H8.01994C8.42903 6.66688 8.81255 6.50495 9.08528 6.22724C9.25219 6.06531 9.36795 5.86857 9.44395 5.65623H18.1209C18.3986 5.65623 18.6258 5.42895 18.6258 5.15126C18.6258 4.87357 18.3986 4.6463 18.1209 4.6463H9.44395C9.23159 4.06035 8.67619 3.63635 8.01995 3.63635H4.98941C4.58032 3.63635 4.19679 3.79829 3.92406 4.07599C3.75716 4.23792 3.64139 4.43466 3.56539 4.64701H1.95957C1.68188 4.64701 1.45461 4.87428 1.45461 5.15197C1.45461 5.42966 1.68188 5.65693 1.95957 5.65693Z" fill="#4CA350"/>
</svg>
