<svg width="20" height="20" viewBox="0 0 20 20" fill="none" xmlns="http://www.w3.org/2000/svg">
<path fill-rule="evenodd" clip-rule="evenodd" d="M9.97732 1.45453C14.6811 1.45453 18.5 5.27344 18.5 9.97726C18.5 14.6811 14.6811 18.5 9.97732 18.5C5.2735 18.5 1.45459 14.6811 1.45459 9.97726C1.45459 5.27344 5.2735 1.45453 9.97732 1.45453ZM9.40913 5.99998V9.97726C9.40913 10.1278 9.46879 10.2727 9.57533 10.3792L12.7004 13.5043C12.922 13.7259 13.2828 13.7259 13.5044 13.5043C13.726 13.2827 13.726 12.9219 13.5044 12.7003L10.5457 9.74216V5.99998C10.5457 5.68606 10.2914 5.4318 9.97749 5.4318C9.66356 5.4318 9.40913 5.68606 9.40913 5.99998Z" fill="#4CA350"/>
</svg>
