<svg width="40" height="30" viewBox="0 0 40 30" fill="none" xmlns="http://www.w3.org/2000/svg">
<g clip-path="url(#clip0_1152_8743)">
<path d="M0.00622559 0H40.0125V30H0.00622559V0Z" fill="#FFD520"/>
<path d="M0.00622559 30H40.0125V0L0.00622559 30Z" fill="#FF4E12"/>
<path d="M21.5869 9.37883C21.3376 9.29027 21.1765 9.41908 21.1846 9.74102C21.1926 10.063 21.3617 10.2481 21.6111 10.1274L21.5869 9.37883Z" fill="white" stroke="black" stroke-width="0.21"/>
<path d="M21.806 8.7764C21.5983 8.6124 21.4046 8.68271 21.3087 8.99015C21.2129 9.29765 21.3135 9.52728 21.5885 9.49309L21.806 8.77646V8.7764Z" fill="white" stroke="black" stroke-width="0.21"/>
<path d="M22.1519 8.19252C21.973 7.99727 21.7705 8.03565 21.6266 8.32377C21.4828 8.6119 21.5453 8.85465 21.8224 8.86502L22.1519 8.19252ZM21.9249 11.029C21.6191 11.1417 21.5868 11.5603 21.7801 11.8178C21.9732 12.0754 22.3274 12.1236 22.5206 11.8178L21.9251 11.0288L21.9249 11.029Z" fill="white" stroke="black" stroke-width="0.21"/>
<path d="M21.571 10.1429C21.2812 10.0463 21.0201 10.4355 20.9754 10.7868C20.9191 11.2294 20.2912 11.3743 20.6374 12.0424C20.7097 11.6158 20.9916 11.3824 21.2168 11.3663C21.4422 11.3503 21.7804 11.3019 21.9252 11.0283L21.571 10.1429ZM22.4885 11.8654C22.1504 11.9459 22.102 12.3966 22.3435 12.7186C22.5502 12.9942 23.1966 12.9279 23.1806 12.6542L22.4885 11.8654V11.8654ZM23.4465 14.5779C23.4625 14.2881 22.9959 14.1754 22.7704 14.2318C22.545 14.2881 22.1144 14.2238 22.0138 13.9823C21.9334 14.1754 22.05 14.3848 22.376 14.4894C22.6227 14.5686 22.6175 14.7469 22.545 14.8274C22.7302 14.8596 23.2775 14.8596 23.4465 14.5779Z" fill="white" stroke="black" stroke-width="0.21"/>
<path d="M23.181 12.7272C22.851 12.5823 22.6554 12.803 22.5292 13.0169C22.3439 13.3309 21.7725 12.9284 21.5793 13.3469C21.841 13.2342 22.1072 13.4746 22.2312 13.5562C22.5854 13.7896 23.2696 13.7172 23.3662 13.1699L23.181 12.7272Z" fill="white" stroke="black" stroke-width="0.21"/>
<path d="M23.374 13.1133C23.044 13.3628 22.9153 13.6606 22.9234 13.8618C22.9315 14.0631 23.2132 14.5057 23.519 14.5299C23.6962 14.1677 23.7847 13.403 23.374 13.1133ZM22.006 14.6668C22.006 14.546 22.1831 14.4978 22.3037 14.538C22.4246 14.5782 22.6096 14.699 22.5452 14.8278L22.006 14.6668ZM20.1865 14.0068C20.1545 13.8619 20.3878 13.6124 20.7017 13.7492C21.0155 13.8861 21.0559 14.1517 20.927 14.2563L20.1865 14.0068Z" fill="white" stroke="black" stroke-width="0.21"/>
<path d="M20.951 14.2723C20.9268 14.1918 21.1529 14.0311 21.5387 14.1274C21.9249 14.224 22.0197 14.4727 22.0055 14.6667L20.951 14.2723ZM20.1465 14.0068C20.3477 13.8539 20.2715 13.5641 20.0901 13.4756C19.7601 13.3146 19.8809 12.8961 19.6715 12.8156C19.4623 12.7351 19.261 12.5902 19.2529 12.4453C19.1484 12.6466 19.2127 12.8317 19.3577 12.9604C19.5026 13.0893 19.2451 13.6124 19.4301 13.7492L20.1465 14.0068ZM15.832 13.8943C15.663 13.6287 15.2605 13.677 15.0915 13.8621C14.9225 14.0472 14.9466 14.3209 15.1076 14.4416L15.832 13.8942V13.8943ZM16.798 13.4998C16.7336 13.1457 16.307 13.1054 16.0736 13.1939C15.8402 13.2825 15.6792 13.6366 15.8321 13.8942L16.7981 13.4998H16.798Z" fill="white" stroke="black" stroke-width="0.21"/>
<path d="M17.442 13.4513C17.5949 13.1535 17.2971 12.7108 16.9591 12.6464C16.6768 12.5927 16.3433 12.5941 16.2347 12.3164C16.1662 12.5578 16.3474 12.7108 16.5566 12.8477C16.7659 12.9845 16.5164 13.3387 16.8544 13.5398L17.442 13.4513Z" fill="white" stroke="black" stroke-width="0.21"/>
<path d="M17.41 13.4616C17.3395 13.2483 17.4824 12.9645 17.7716 12.9844C18.0608 13.0043 18.2256 13.2144 18.0981 13.4771L17.41 13.4616Z" fill="white" stroke="black" stroke-width="0.21"/>
<path d="M18.0536 13.4784C18.0137 13.2573 18.1951 12.9964 18.4786 13.0567C18.7621 13.1169 18.8957 13.3482 18.7327 13.5904L18.0536 13.4784Z" fill="white" stroke="black" stroke-width="0.21"/>
<path d="M18.693 13.5794C18.6642 13.3565 18.8584 13.105 19.1386 13.1793C19.4188 13.2537 19.5407 13.4913 19.3657 13.7251L18.693 13.5794ZM13.836 17.2669C13.2967 17.2669 13.165 17.3952 13.0874 17.951C12.9908 18.6432 13.9326 18.7237 13.836 17.2669Z" fill="white" stroke="black" stroke-width="0.21"/>
<path d="M14.0775 16.543C13.2484 16.229 12.7977 17.541 11.9767 17.3076C12.2705 17.7745 12.9826 17.3085 13.2484 17.3559C13.6992 17.4364 14.6731 17.2673 14.0775 16.543ZM13.538 18.338C13.1275 18.1528 12.6848 18.7806 12.7653 19.0543C12.8675 19.4019 13.8036 19.1187 13.538 18.338ZM11.6225 21.0425C11.8479 21.1066 12.1215 21.2356 12.0732 21.6701C12.0249 22.1048 11.204 22.9901 10.4635 23.0385C9.72298 23.0868 9.4573 23.9801 8.82148 23.7306C9.41711 23.6181 9.41711 22.9418 9.88392 22.7327C9.5458 22.6119 9.36873 23.3766 8.93417 23.3766C8.49955 23.3766 8.29023 24.0688 7.75898 24.0204C7.22773 23.9723 7.17186 24.8631 6.10898 24.8738C5.29605 24.8816 4.28998 25.8315 3.92773 25.4211C4.71655 25.3083 5.03486 24.8713 5.50536 24.3906C6.26198 23.6181 7.11517 23.9642 7.40492 23.28C7.06776 23.5076 6.66867 23.6256 6.26198 23.6181C5.76686 23.6079 5.22367 24.4069 4.66823 24.0527C4.99023 24.0125 5.19948 23.8756 5.53761 23.5215C5.88373 23.1588 6.39173 23.3931 6.79323 23.0225C7.42098 22.4429 7.9603 22.9258 8.56398 22.2015C8.39492 22.121 8.03273 22.1773 7.69461 22.3544C7.35661 22.5315 6.92198 22.2335 6.53561 22.4429C6.58392 21.9681 7.48536 22.2398 8.0488 21.9116C8.68473 21.5415 9.21192 21.65 9.71498 21.6944C9.01473 21.6904 8.74105 21.0263 7.77523 21.2194C7.35398 21.3038 7.01861 20.64 6.60005 20.9779C6.61211 20.7285 7.0508 20.5273 7.50155 20.7688C7.9523 21.0102 8.13398 20.5575 9.03092 21.1229C9.40111 21.3563 10.037 20.9779 10.4394 21.2275C10.3871 21.0746 10.1577 20.9779 9.88805 20.9981C10.0571 20.6521 11.1477 20.6963 11.6226 21.0425L11.6225 21.0425Z" fill="white" stroke="black" stroke-width="0.21"/>
<path d="M12.3389 20.5184C11.9848 20.2447 11.4938 20.5748 11.1558 20.4459C11.1558 20.6712 11.2684 21.0094 11.6387 21.1381C11.7514 21.0577 12.2584 20.615 12.3389 20.5184Z" fill="white" stroke="black" stroke-width="0.21"/>
<path d="M12.8945 19.7384C12.3391 19.4567 12.2425 20.157 11.8079 20.0121C11.824 20.2133 11.985 20.4628 12.3391 20.5192L12.8945 19.7384H12.8945Z" fill="white" stroke="black" stroke-width="0.21"/>
<path d="M13.2245 19.1013C12.4035 18.7794 12.2989 19.5682 11.8159 19.4152C11.9286 19.6889 12.6209 19.8337 12.975 19.7372L13.2245 19.1013ZM14.351 15.6483C14.1337 15.3424 13.6749 15.592 13.6024 15.9542C13.53 16.3164 13.707 16.8234 14.0129 16.7107L14.351 15.6483Z" fill="white" stroke="black" stroke-width="0.21"/>
<path d="M14.9064 14.6832C14.5281 14.5947 14.0935 14.6349 14.1418 15.0051C13.9969 15.0695 13.9567 15.5445 14.3511 15.6491L14.9064 14.6831V14.6832Z" fill="white" stroke="black" stroke-width="0.21"/>
<path d="M15.1559 14.434C14.7857 13.9994 14.3728 14.0094 14.1418 14.1925C13.7152 14.5306 13.3006 14.3374 13.2886 14.6754C13.5462 14.4782 13.7715 14.7157 13.9808 14.6432C14.1901 14.5708 14.343 14.9732 14.9226 14.8042L15.1559 14.434ZM14.2624 20.93C14.3188 21.0346 14.6649 21.0829 14.8339 20.9058C15.0579 20.6711 14.8098 20.0204 14.4556 19.9721C14.1015 19.9238 14.0693 20.7046 14.2625 20.93H14.2624Z" fill="white" stroke="black" stroke-width="0.21"/>
<path d="M13.86 20.9454C14.367 21.1304 14.5844 20.7118 14.3107 20.4463C14.2382 20.5349 13.9726 20.8568 13.86 20.9454Z" fill="white" stroke="black" stroke-width="0.21"/>
<path d="M11.9605 21.637C11.8639 21.9269 11.3649 21.9752 10.8015 22.8767C10.238 23.7781 9.69876 23.3998 9.56189 24.0195C10.238 23.4722 10.769 23.8358 11.1716 23.2952C11.7834 22.4741 12.2871 22.592 12.5239 22.0395C12.862 21.2508 14.343 21.2668 14.4235 20.0273C13.9245 19.9307 12.3468 21.2668 11.9605 21.637V21.637ZM24.662 9.46705C25.306 9.6763 25.322 10.5134 26.0624 10.787C26.803 11.0607 26.8755 11.7207 27.4791 11.5597C26.9157 11.4068 26.9559 10.7549 26.3685 10.5939C25.6793 10.4051 25.4186 9.3543 24.8711 9.19336M27.616 13.8375C27.7287 14.0951 27.7127 14.5539 27.3102 14.6747C27.5275 14.8115 27.8493 14.6827 28.0265 14.3849C27.7608 14.9724 27.9379 15.5037 28.3565 15.6084C28.1552 15.1979 28.606 15.0046 28.4612 14.739C28.7268 14.8517 28.9602 15.2139 28.9521 15.4393C29.2983 15.0529 28.6946 14.5378 28.8073 14.1757L27.616 13.8375ZM23.4465 17.9745C23.0521 17.6284 22.8838 18.065 22.6899 17.9142C22.5088 17.7733 22.2674 17.7532 22.1749 17.894C22.513 17.9061 22.3478 18.1677 23.0038 18.2321C22.3478 18.2764 22.4686 19.0089 22.0299 18.9726C22.4968 19.4153 22.7382 18.5782 23.1165 18.7151C23.0038 18.7472 23.2936 19.0129 23.0923 19.367C23.4184 19.359 23.5511 18.9082 23.5915 18.6748L23.4465 17.9745ZM14.7615 21.7336C14.6166 21.6129 14.1981 21.5565 14.0371 21.6531C13.8761 21.7496 13.9325 21.7737 14.1256 21.79C14.3188 21.806 14.5683 22.1185 14.1498 22.136C13.9566 22.144 14.0211 22.6109 13.6186 22.6432C13.7836 22.8444 14.2545 22.7115 14.4235 22.4902C14.3913 22.6713 14.6327 22.8363 14.5361 23.0536C14.834 23.0859 14.6609 22.45 15.1318 22.4821C14.9386 22.5063 15.0191 22.9409 15.3571 22.8282C15.1559 22.9249 15.2606 23.1582 15.4859 23.1019C15.3411 23.1502 15.2928 23.3352 15.494 23.44C15.6871 23.1744 15.4698 22.2246 14.7615 21.7336ZM32.2925 12.8525C32.9086 12.8525 33.4079 12.353 33.4079 11.7369C33.4079 11.1209 32.9085 10.6214 32.2925 10.6214C31.6763 10.6214 31.1769 11.1209 31.1769 11.7369C31.1769 12.353 31.6763 12.8525 32.2925 12.8525Z" fill="white"/>
<path d="M24.662 9.46705C25.306 9.6763 25.322 10.5134 26.0624 10.787C26.803 11.0607 26.8755 11.7207 27.4791 11.5597C26.9157 11.4068 26.956 10.7549 26.3685 10.5939C25.6793 10.4051 25.4186 9.3543 24.8711 9.19336M11.9605 21.637C11.8639 21.9269 11.3649 21.9752 10.8015 22.8767C10.238 23.7781 9.69876 23.3998 9.56189 24.0195C10.238 23.4722 10.769 23.8358 11.1716 23.2952C11.7834 22.4741 12.2871 22.592 12.5239 22.0395C12.862 21.2508 14.343 21.2668 14.4235 20.0273C13.9245 19.9307 12.3468 21.2668 11.9605 21.637V21.637ZM27.616 13.8375C27.7287 14.0951 27.7127 14.5539 27.3102 14.6747C27.5275 14.8115 27.8493 14.6827 28.0265 14.3849C27.7608 14.9724 27.9379 15.5037 28.3565 15.6084C28.1552 15.1979 28.606 15.0046 28.4612 14.739C28.7268 14.8517 28.9602 15.2139 28.9521 15.4393C29.2983 15.0529 28.6946 14.5378 28.8073 14.1757L27.616 13.8375ZM23.4465 17.9745C23.0521 17.6284 22.8838 18.065 22.6899 17.9142C22.5088 17.7733 22.2674 17.7532 22.1749 17.894C22.513 17.9061 22.3478 18.1677 23.0038 18.2321C22.3478 18.2764 22.4686 19.0089 22.0299 18.9726C22.4968 19.4153 22.7382 18.5782 23.1165 18.7151C23.0038 18.7472 23.2936 19.0129 23.0923 19.367C23.4184 19.359 23.5511 18.9082 23.5915 18.6748L23.4465 17.9745ZM14.7615 21.7335C14.6166 21.6129 14.1981 21.5565 14.0371 21.6531C13.8761 21.7496 13.9325 21.7737 14.1256 21.79C14.3188 21.806 14.5683 22.1185 14.1498 22.136C13.9566 22.144 14.0211 22.6109 13.6186 22.6432C13.7836 22.8444 14.2545 22.7115 14.4235 22.4902C14.3913 22.6713 14.6327 22.8363 14.5361 23.0536C14.834 23.0859 14.6609 22.45 15.1318 22.4821C14.9386 22.5063 15.0191 22.9409 15.3571 22.8282C15.1559 22.9249 15.2606 23.1582 15.4859 23.1019C15.3411 23.1502 15.2928 23.3352 15.494 23.44C15.6871 23.1744 15.4698 22.2246 14.7615 21.7335ZM32.2925 12.8525C32.9086 12.8525 33.4079 12.353 33.4079 11.7369C33.4079 11.1209 32.9085 10.6214 32.2925 10.6214C31.6763 10.6214 31.1769 11.1209 31.1769 11.7369C31.1769 12.353 31.6763 12.8525 32.2925 12.8525Z" stroke="black" stroke-width="0.21"/>
<path d="M26.465 14.2C26.8031 13.8781 27.3183 13.7171 27.6723 13.9585C28.0264 14.2 29.2017 14.4898 29.7812 14.0874C30.3606 13.6849 30.6343 13.4756 30.8918 13.5239C31.0852 13.8137 31.3185 13.9505 31.6084 13.9747C31.6969 14.0712 32.0109 14.1517 32.1879 14.1275C32.4454 14.1919 32.7593 14.1115 33.0088 13.8378C33.3952 13.8942 33.7574 13.6044 33.8942 13.1698C34.3046 13.1215 34.3288 12.6627 34.0713 12.3568C33.8298 12.3085 34.015 11.4955 33.1375 11.6565C33.5079 11.8819 33.226 12.3327 33.5321 12.542C33.3227 12.542 33.0532 12.6305 32.9887 12.9444C33.0692 12.7271 32.9767 12.5822 32.9202 12.5339C32.9284 12.3488 32.5179 11.894 32.1315 12.059C32.4092 12.1194 32.2523 12.5661 32.4535 12.7351C32.3085 12.7432 32.1556 12.8156 32.0671 12.9444C31.9625 12.7593 31.5923 12.5661 31.3668 12.55C31.3668 12.4857 31.3548 12.3569 31.3267 12.2924C31.226 12.0993 31.1415 11.8699 31.1817 11.5761C30.9885 11.7854 30.8275 12.0752 30.731 12.2844C30.4252 12.0751 29.6685 12.381 29.3144 12.4615C28.9602 12.542 27.769 12.3488 27.4952 12.059C27.2217 11.7693 26.6905 11.5922 26.1915 11.4473C25.5052 11.2482 25.4992 10.4975 24.7425 9.98242C24.7265 10.9162 26.1432 13.8781 26.465 14.2H26.465ZM18.577 21.315C19.1726 21.315 19.6555 20.8321 19.6555 20.2365C19.6555 19.6409 19.1726 19.158 18.577 19.158C17.9813 19.158 17.4984 19.6409 17.4984 20.2365C17.4984 20.8321 17.9813 21.315 18.577 21.315Z" fill="white" stroke="black" stroke-width="0.21"/>
<path d="M16.0011 20.4864C16.2184 20.7682 16.5886 20.7521 16.7416 20.7279C16.8703 21.0659 17.2808 21.0579 17.4579 21.2429C17.635 21.4282 18.2386 21.4121 18.4157 21.3073C18.2548 21.2913 18.0455 21.1948 17.8443 21.0257C17.6014 20.8217 17.7155 20.4139 17.5223 20.2691C17.6672 20.1081 17.6913 19.8426 17.6592 19.7379C17.8121 19.6493 17.9248 19.5044 17.9409 19.432C18.2065 19.4159 18.4398 19.2791 18.5365 19.1745C18.6734 19.3033 19.0194 19.1342 19.2046 19.3515C19.2449 18.8203 18.7378 18.5386 18.3996 18.7157C18.2628 18.6432 17.9006 18.6915 17.8363 18.7881C17.7236 18.7398 17.4096 18.9008 17.2648 19.0054C17.4258 18.9169 17.4499 18.6513 17.3855 18.5547C17.5223 18.4984 17.6753 18.3133 17.6913 18.1764C17.8845 18.2086 18.1742 18.0798 18.303 18.112C18.0938 17.8383 17.7478 17.7418 17.3936 17.7659C17.0273 17.7861 16.8704 18.0436 16.8221 18.3213C16.6048 18.4501 16.5323 18.8847 16.6128 19.0376C16.488 19.0336 16.3713 19.1544 16.3231 19.2228C16.154 19.1503 15.9126 19.0981 15.7395 19.0981M15.8161 18.6594C15.7436 18.4502 15.8396 18.2618 15.8885 18.0961C16.0133 17.6735 15.9368 17.5648 15.5585 17.6212C15.5263 17.8224 15.7195 18.4824 15.8161 18.6594Z" fill="white"/>
<path d="M16.0011 20.4864C16.2184 20.7682 16.5886 20.7521 16.7416 20.7279C16.8703 21.0659 17.2808 21.0579 17.4579 21.2429C17.635 21.4282 18.2386 21.4121 18.4157 21.3073C18.2548 21.2913 18.0455 21.1948 17.8443 21.0257C17.6014 20.8217 17.7155 20.4139 17.5223 20.2691C17.6672 20.1081 17.6913 19.8426 17.6592 19.7379C17.8121 19.6493 17.9248 19.5044 17.9409 19.432C18.2065 19.4159 18.4398 19.2791 18.5365 19.1745C18.6734 19.3033 19.0194 19.1342 19.2046 19.3515C19.2449 18.8203 18.7378 18.5386 18.3996 18.7157C18.2628 18.6432 17.9006 18.6915 17.8363 18.7881C17.7236 18.7398 17.4096 18.9008 17.2648 19.0054C17.4258 18.9169 17.4499 18.6513 17.3855 18.5547C17.5223 18.4984 17.6753 18.3133 17.6913 18.1764C17.8845 18.2086 18.1742 18.0798 18.303 18.112C18.0938 17.8383 17.7478 17.7418 17.3936 17.7659C17.0273 17.7861 16.8704 18.0436 16.8221 18.3213C16.6048 18.4501 16.5323 18.8847 16.6128 19.0376C16.488 19.0336 16.3713 19.1544 16.3231 19.2228C16.154 19.1503 15.9126 19.0981 15.7395 19.0981M15.8161 18.6594C15.7436 18.4502 15.8396 18.2618 15.8885 18.0961C16.0133 17.6735 15.9368 17.5648 15.5585 17.6212C15.5263 17.8224 15.7195 18.4824 15.8161 18.6594Z" stroke="black" stroke-width="0.21"/>
<path d="M15.5385 17.6447C15.635 17.7413 15.9771 17.7856 16.0133 17.4797C16.055 17.1286 15.9127 16.9927 15.6069 17.1296C15.5828 17.2101 15.5545 17.5401 15.5385 17.6447Z" fill="white" stroke="black" stroke-width="0.21"/>
<path d="M15.611 17.1182C15.7397 17.1706 16.0175 17.2752 16.1703 16.9774C16.2987 16.7276 16.1301 16.5347 15.8645 16.5507C15.8001 16.6232 15.6713 16.8807 15.611 17.1182Z" fill="white" stroke="black" stroke-width="0.21"/>
<path d="M15.8485 16.5261C15.8807 16.6227 16.2107 16.9447 16.4521 16.7112C16.6936 16.4778 16.6936 16.1317 16.3314 16.0029C16.2348 16.0191 15.9451 16.3571 15.8485 16.5261V16.5261Z" fill="white" stroke="black" stroke-width="0.21"/>
<path d="M16.3309 16.004C16.4034 16.2052 16.6287 16.5513 17.0473 16.3903C17.4659 16.2294 17.2887 15.7062 17.0956 15.6016C16.9829 15.6096 16.5241 15.8189 16.3309 16.004Z" fill="white" stroke="black" stroke-width="0.21"/>
<path d="M17.096 15.6002C17.0638 15.7773 17.096 16.2602 17.6674 16.2522C18.2388 16.2442 18.078 15.5761 17.933 15.4795C17.6997 15.4795 17.3052 15.4876 17.096 15.6002Z" fill="white" stroke="black" stroke-width="0.21"/>
<path d="M17.957 15.5045C17.8927 15.6414 17.7475 16.542 18.8666 16.2932C19.0114 16.2611 19.3897 15.432 17.957 15.5045Z" fill="white" stroke="black" stroke-width="0.21"/>
<path d="M18.5685 15.5847C18.456 15.6974 18.7455 16.6069 19.5022 16.454C20.2589 16.301 19.623 15.4398 18.5685 15.5847Z" fill="white" stroke="black" stroke-width="0.21"/>
<path d="M19.2125 15.7217C19.0919 15.9712 19.2731 16.7117 20.2066 16.7117C21.0527 16.7117 20.1623 15.7378 19.2125 15.7217Z" fill="white" stroke="black" stroke-width="0.21"/>
<path d="M19.945 15.9386C19.8843 16.0769 19.8102 16.8619 20.9109 16.9286C21.7077 16.9769 21.5146 15.85 19.945 15.9386Z" fill="white" stroke="black" stroke-width="0.21"/>
<path d="M21.1285 16.2686C20.9918 16.5101 20.8468 17.1137 22.0541 17.162C22.8277 17.193 22.3521 16.2847 21.1285 16.2686Z" fill="white" stroke="black" stroke-width="0.21"/>
<path d="M22.1346 16.454C21.9575 16.6955 22.0879 17.1691 22.5369 17.2589C23.1004 17.3716 23.1808 16.8404 22.7946 16.5828C22.4081 16.3253 22.1346 16.4541 22.1346 16.4541V16.454Z" fill="white" stroke="black" stroke-width="0.21"/>
<path d="M22.682 16.5664C22.5533 16.7918 22.6331 17.3391 23.4868 17.3391C23.6639 17.3391 24.3401 16.6469 22.682 16.5664ZM16.074 27.0629C16.7655 27.0629 17.3261 26.5023 17.3261 25.8108C17.3261 25.1192 16.7655 24.5585 16.074 24.5585C15.3825 24.5585 14.8219 25.1192 14.8219 25.8108C14.8219 26.5023 15.3825 27.0629 16.074 27.0629Z" fill="white" stroke="black" stroke-width="0.21"/>
<path d="M25.2574 8.85614C25.1608 8.9527 24.9598 9.24245 24.9193 9.35514C24.5008 10.6108 25.6181 11.5487 26.2716 12.8966C26.7868 13.9591 26.7224 15.6333 25.9174 16.6958C25.6421 17.0592 25.7243 17.1626 25.3701 17.5329C25.2343 17.6749 25.0804 17.8548 25.1287 18.37C25.3541 18.2895 25.676 18.4987 25.7403 18.6758C25.9014 18.5953 26.1268 18.6275 26.2072 18.7241C26.4808 18.5953 26.7062 18.6597 26.9476 18.9173C27.157 18.8851 27.3824 18.9173 27.5916 19.1426C27.7043 18.9173 27.9297 18.8368 28.0905 18.8851C28.0745 18.5953 28.3643 18.3861 28.6218 18.4988C28.5414 18.1124 28.8955 17.8226 29.2336 17.9353C29.5233 17.71 30.1028 17.6938 30.3926 18.0319C29.8774 17.887 29.8937 18.4344 29.4589 18.3861C29.5716 18.708 29.2818 18.8931 28.9922 18.9978C29.1772 18.9092 29.3784 18.8046 29.4428 18.9173C29.6039 18.7765 29.9258 18.8288 30.0064 18.9012C30.2195 18.8328 30.4249 18.8851 30.5214 19.1426C30.8112 19.3197 31.0043 19.7705 30.7951 20.1085C30.7308 19.7544 30.4893 19.7705 30.3926 19.6256C30.1672 19.7061 29.9418 19.7061 29.8774 19.5612C29.7487 19.69 29.3141 19.8027 29.121 19.6095C29.0485 19.8993 28.7989 20.1408 28.5091 20.1408C28.5898 20.3661 28.3643 20.7525 28.1873 20.9456C28.461 21.0905 28.3804 21.4125 28.316 21.6056C28.7345 21.67 28.3804 22.0402 29.1048 22.2817C28.7508 22.3944 28.0585 22.2817 27.9618 21.8471C27.6076 21.8311 27.3662 21.4769 27.3824 21.1065C27.1087 20.849 27.0684 20.4788 27.4468 20.2212C27.1247 20.3178 26.9476 19.8026 26.4808 20.012C26.2486 20.1161 25.6358 19.9395 25.6439 19.7221C25.5472 19.8831 24.9597 19.8188 24.879 19.5451C24.6859 19.6497 24.2351 19.4726 24.2432 19.207C23.9936 19.3197 23.6557 19.1185 23.6718 18.861C23.4384 18.8288 23.4143 18.6195 23.4303 18.4424C23.2209 18.3458 23.2774 18.1446 23.3578 17.9031C23.213 17.7421 23.2774 17.5168 23.3901 17.3075C23.229 17.1465 23.2613 16.9533 23.3094 16.728C22.5367 16.6636 21.5688 16.4773 19.3494 15.7943C16.0011 14.7641 15.0996 17.1787 15.8401 18.692C16.6944 20.4379 15.7435 20.817 16.0333 22.1209C16.3391 22.1853 16.5001 22.4428 16.484 22.7165C16.6651 22.7245 16.7939 22.8934 16.7294 23.2155C16.8824 23.1874 17.0796 23.2315 17.2084 23.3603C17.3211 23.1511 17.6914 23.1028 17.8846 23.3443C18.303 23.312 18.5124 23.6501 18.4963 24.0686C18.7215 24.4711 18.6411 24.9622 18.3996 25.276C18.4238 25.107 18.3996 24.8655 18.3918 24.7208C18.3768 24.4543 18.0053 24.3986 18.0455 24.1814C17.8524 24.1974 17.6672 24.0928 17.6028 23.948C17.4901 24.0445 17.3292 24.0768 17.1923 24.0285C17.4096 24.1251 17.5787 24.5113 17.5143 24.7688C17.627 24.9621 17.6028 25.3163 17.466 25.4692C17.4016 25.783 17.1601 25.8957 16.8462 25.7588C17.0233 25.6463 17.0877 25.4451 17.0796 25.2759C16.9669 25.1795 16.9106 24.9943 16.9026 24.8815C16.5887 24.9299 16.154 24.6643 16.0738 24.5593C15.3823 24.5593 14.8218 25.1199 14.8218 25.8115C14.7896 25.5538 14.4638 25.3001 14.504 25.0828C14.3109 24.4871 14.5845 23.9318 15.3733 23.8193C15.2768 23.5938 15.6148 23.3603 15.486 23.1028C15.3215 22.7738 15.0191 22.3461 14.5685 21.8471C14.8421 21.3803 14.7616 20.7525 14.6006 20.3661C14.3695 19.8113 14.1499 19.9476 13.3289 20.849C11.9909 22.3182 10.2059 21.9115 8.62825 22.8774C8.20913 23.1341 7.79125 23.2316 8.242 22.781C8.69269 22.3301 9.88394 21.8795 10.6566 21.493C12.1036 20.7695 13.3289 19.5613 13.8118 17.211C14.9466 11.688 19.1238 13.5085 21.7638 14.5388C24.2424 15.5061 23.7921 13.3153 22.5365 11.9953C21.0274 10.4087 21.3292 9.16214 22.0376 8.16408C23.3092 7.98695 25.7482 8.4297 25.2571 8.85627L25.2574 8.85614Z" fill="white" stroke="black" stroke-width="0.21"/>
<path d="M29.741 22.4232C30.5018 22.4232 31.1187 21.8065 31.1187 21.0457C31.1187 20.2848 30.5018 19.668 29.741 19.668C28.9801 19.668 28.3633 20.2848 28.3633 21.0457C28.3633 21.8065 28.9802 22.4232 29.741 22.4232Z" fill="white" stroke="black" stroke-width="0.21"/>
<path d="M24.4849 8.91992C24.1791 10.2722 24.4366 10.8839 24.8874 11.4795C25.8189 12.7105 26.5616 15.52 25.4991 17.355" stroke="black" stroke-width="0.21"/>
<path d="M26.0944 15.7697C26.2232 15.7214 26.4646 15.5685 26.5211 15.3028M26.1909 15.1822C26.2311 14.9488 26.5932 14.8482 26.6013 14.5987M26.1989 14.2722C26.1747 14.0307 26.5612 13.8135 26.5047 13.572M25.9899 13.4032C25.9576 13.2663 26.3118 13.0088 26.2153 12.7915M25.7244 12.5582C25.6519 12.4053 25.8934 12.2282 25.7888 12.0672M25.3379 11.8817C25.3137 11.7771 25.4627 11.5477 25.3823 11.4109M24.9514 11.0852C24.9835 11.045 25.1125 10.9483 25.06 10.8277M24.6859 10.5017C24.7382 10.4735 24.8951 10.4252 24.8751 10.3086" stroke="black" stroke-width="0.21" stroke-linecap="round"/>
<path d="M16.6288 25.678C16.3069 25.5653 15.9045 25.7263 15.824 26M16.0653 26.2495C16.1056 25.9759 16.5241 25.8551 16.6528 25.9839C16.3873 25.839 16.2585 26.354 16.4919 26.3703M18.6573 19.883C18.4642 19.9796 18.408 20.3337 18.6573 20.5994M18.9468 19.9635C18.8102 20.0762 18.8181 20.4142 19.0194 20.4947C18.8504 20.374 19.0193 20.1647 19.1402 20.1567C19.2608 20.1486 19.3412 20.2935 19.1964 20.4384M30.2558 20.76C29.8052 20.6394 29.443 21.1625 29.8533 21.6294C29.8454 21.1785 30.1673 20.8809 30.5617 20.9612M30.3804 21.273C30.2695 21.273 30.2072 21.3597 30.2072 21.444C30.2072 21.5325 30.2837 21.6172 30.4085 21.6172C30.4891 21.6172 30.5535 21.5247 30.5535 21.4522M31.9698 11.391C32.0423 11.6647 32.4207 11.7774 32.7184 11.7129M32.7183 11.536C32.485 11.544 32.2919 11.3267 32.3079 11.1416C32.3079 11.2784 32.6219 11.3429 32.7183 11.2543" stroke="black" stroke-width="0.21" stroke-linecap="round" stroke-linejoin="round"/>
<path d="M16.7414 20.7273C16.677 20.5663 16.9346 20.4053 16.9427 20.2523C16.9507 20.0995 17.2324 19.9787 17.5222 20.2685M17.3854 18.5543C17.3291 18.5785 17.2808 18.6106 17.2325 18.6268M17.9409 19.4313C17.8725 19.4354 17.7317 19.4273 17.6552 19.375M17.6594 19.7373C17.6031 19.7655 17.4783 19.8138 17.4058 19.83M14.8984 24.5988C14.8903 24.7438 15.0353 24.953 15.1157 25.0174M15.5264 24.2528C15.4459 24.3735 15.3977 24.5828 15.4459 24.7276M16.7254 24.7358C16.5805 24.6391 16.6771 24.3896 16.661 24.2287C16.6449 24.0677 16.83 23.8102 17.1923 24.0275M15.3734 23.8183C15.5183 23.7941 15.6712 23.8021 15.7678 23.8423M17.2084 23.3593C17.144 23.4479 17.1279 23.5445 17.1199 23.6089M17.8844 23.3433C17.7717 23.3433 17.6752 23.4238 17.6268 23.5044M16.3229 19.2223C16.4517 19.2666 16.7857 19.4718 16.7978 19.6851M17.6914 18.1758C17.297 18.1678 17.1441 17.7653 17.4419 17.7653M18.3999 18.7148C18.247 18.7792 18.3195 19.0448 18.5368 19.1736M17.4579 21.2423C17.3814 21.1459 17.482 20.8642 17.7316 20.9486M18.0454 24.1803C18.0614 23.9349 18.3714 23.7899 18.4962 24.0676M16.9024 24.8803C16.8823 24.6108 17.0191 24.5222 17.1398 24.5061C17.2605 24.4901 17.4337 24.5905 17.5142 24.7676M14.5039 25.0818C14.52 24.9208 14.6568 24.7518 14.8017 24.776M29.2334 17.9343C29.1286 18.0108 29.0603 18.3529 29.4586 18.3851M28.6219 18.4978C28.6219 18.5381 28.6742 18.5944 28.7065 18.6186M30.5214 19.1418C30.4168 19.0613 30.147 19.3873 30.3927 19.6248M27.9619 21.8463C27.9015 21.617 28.1148 21.5565 28.3161 21.6049M27.4469 20.2203C27.5675 20.1398 27.6883 20.0513 27.8413 20.0111M27.3824 21.1053C27.3824 20.9122 27.4788 20.7514 27.5674 20.703M28.0904 18.8843C28.0743 19.1178 28.171 19.3431 28.2435 19.4638M30.0064 18.9003C29.8895 18.9366 29.785 18.9808 29.7408 19.0774M29.8774 19.5603C29.9338 19.512 29.9982 19.4557 30.0263 19.4155M32.9199 12.5333C32.9199 12.7587 32.6382 12.8794 32.4532 12.7346M33.5319 12.5413C33.6565 12.6379 34.0871 12.5454 33.9865 12.2959M33.0084 13.8373C32.9198 13.8212 32.767 13.7246 32.7026 13.6442M33.8939 13.1693C33.7491 13.2015 33.6525 13.1693 33.58 13.1371M31.6079 13.9743C31.6883 13.9743 31.8815 13.9421 32.0143 13.8737M31.3664 12.5498C31.2618 12.5378 31.1852 12.5579 31.125 12.5981M32.9884 12.9438C32.9603 13.0445 32.8878 13.2014 32.7992 13.2698" stroke="black" stroke-width="0.21" stroke-linecap="round"/>
<path d="M31.0929 13.2988C31.2941 13.2103 31.5437 13.8945 32.0266 13.653M32.0669 12.9443C32.0025 13.0329 31.9623 13.1697 31.9542 13.2905" stroke="black" stroke-width="0.21" stroke-linecap="round" stroke-linejoin="round"/>
<path d="M22.4405 11.8978C22.5048 11.8897 22.6175 11.8656 22.6417 11.7851M14.158 19.3913C14.3995 19.5282 14.5685 19.7615 14.4638 20.1077M25.225 11.1573C25.2975 11.2056 25.5712 11.2056 25.7241 11.1492M25.9175 11.3183C25.9093 11.431 25.9416 11.8575 25.7243 11.9461M25.805 11.8898C26.0062 11.9542 26.4087 11.93 26.5375 11.5598M26.2555 11.8733C26.36 12.0343 26.3921 12.3482 26.0784 12.5172M26.336 12.1393C26.5693 12.2198 27.1086 12.2278 27.0522 11.769M26.8675 12.1393C27.0285 12.3647 27.7368 12.6303 27.6241 12.1634M26.2155 12.7908C26.489 12.8552 26.8755 12.67 26.7144 12.1872M27.487 12.4288C27.5271 12.6139 28.4286 12.8071 28.308 12.3885M28.139 12.6303C28.3081 13.0166 29.2015 12.9844 28.9198 12.4693M28.775 12.8713C28.952 13.0886 29.741 12.9599 29.4271 12.4367M29.4185 12.8633C29.9095 13.2335 30.481 12.7023 29.8611 12.3159M30.143 12.7428C30.5778 13.0889 31.109 12.461 30.7306 12.284M26.706 12.5978C26.8428 12.638 27.1326 12.6219 27.197 12.3724M27.0885 12.5413C27.0724 12.9075 27.6883 13.0484 27.8451 12.6259M27.64 12.8553C27.7526 13.0967 28.2918 13.1934 28.3803 12.8472M28.292 13.0083C28.3805 13.2498 28.8473 13.2256 28.9761 12.9761M28.807 13.1373C28.9518 13.4512 29.5473 13.4512 29.6843 12.9924M29.58 13.1933C29.8133 13.3382 30.3125 13.2819 30.2721 12.8311M30.1755 13.1533C30.5215 13.435 31.0126 13.1614 30.7711 12.6864M30.747 13.5233C30.9321 13.4911 31.0286 13.1209 30.8355 13.0243M26.457 13.5878C26.8432 13.3785 26.9157 13.0244 26.6501 12.6783M26.787 13.2338C27.0284 13.3787 27.4871 13.2257 27.5676 12.8716M27.117 13.2738C27.2536 13.4509 27.2778 13.6682 27.1007 13.8694M27.2295 13.4993C27.6559 13.2337 28.1871 13.7247 27.7928 14.0225M27.7205 13.4753C27.8171 13.4512 27.9861 13.274 28.0021 13.0729M27.9135 13.6603C28.0905 13.4752 29.2981 13.8535 28.5333 14.2398M28.477 13.1533C28.7103 13.2419 28.8311 13.5719 28.477 13.6845M28.783 13.9583C29.0405 13.6927 29.8455 13.8617 29.5556 14.1998M29.3625 13.8533C29.5073 13.3623 30.3685 13.6682 30.0868 13.8694M29.1855 13.3623C29.2096 13.4589 29.2175 13.7004 29.0567 13.8292M29.91 13.2658C29.942 13.3463 29.9341 13.4992 29.8616 13.5958M30.457 13.2738C30.5053 13.3623 30.5857 13.5314 30.4086 13.6682M23.5675 9.57129C23.5754 10.03 23.7364 10.3359 24.3562 10.0462M23.7605 10.1188C23.4546 10.5293 23.8006 10.972 24.4044 10.5293M22.8185 10.3198C23.237 10.7705 23.9856 10.4405 23.5026 9.75635M24.01 10.7063C23.9293 11.149 24.2916 11.2375 24.5893 11.0363M22.4485 10.3923C22.5247 10.8374 22.9797 11.1892 23.4224 10.9155M22.996 11.0043C22.996 11.6402 23.8733 11.7126 24.0745 11.0526M23.7605 11.4548C24.0421 12.0343 24.6538 11.8009 24.8551 11.4467M23.1405 10.5293C23.2531 10.811 23.4786 11.1249 24.0017 10.8915M21.531 10.3923C21.6035 10.6257 22.022 10.9074 22.5049 10.5854M21.8285 10.6903C21.5708 11.0686 22.086 11.4228 22.7058 10.8593M22.1345 11.1573C22.239 11.6885 22.4482 12.1152 23.2048 11.431M22.8265 11.7043C23.1002 12.0424 23.5188 12.2516 23.9131 11.6802" stroke="black" stroke-width="0.21"/>
<path d="M24.2029 11.8008C24.1788 12.2032 24.2592 12.4044 24.5731 12.3883C24.8206 12.3757 25.0561 12.179 25.1929 11.9698M24.5169 12.3888C24.5088 12.8475 24.8709 13.2098 25.5471 12.743M24.7984 12.9278C24.6697 13.2739 25.0559 13.8373 25.8126 13.5475M23.1969 12.0103C23.1488 12.453 23.5593 12.7508 24.2193 12.1793M23.5189 12.5013C23.5431 12.8635 23.9535 13.2982 24.5573 12.6703M23.8084 12.9603C23.7601 13.58 24.3316 13.7572 24.8145 13.2822M22.9474 12.5013C23.0762 12.5093 23.1808 12.3967 23.2451 12.3162M23.2209 12.9518C23.3336 12.9759 23.527 12.8713 23.5914 12.7425M23.5029 13.6843C23.6317 13.8212 24.0663 13.7245 24.1226 13.5394M23.9859 13.6763C24.2274 14.2397 24.8711 14.2155 25.1368 13.5797M25.0159 13.8053C25.1366 14.1353 25.4426 14.3445 25.9416 14.2318M25.2574 14.1433C24.9758 14.602 25.346 15.1413 25.9737 14.6102M25.4104 14.8273C25.3784 15.117 25.644 15.447 26.0061 15.4873M24.2189 13.9823C24.1223 14.6342 24.5891 14.9482 25.1768 14.602M23.5349 14.2963C23.6879 14.417 23.9616 14.4332 24.2191 14.3365M24.5329 14.7148C24.3879 15.2622 24.9515 15.6565 25.4344 15.0448M23.7524 14.3848C23.7606 14.6665 24.0343 14.9723 24.5091 14.8838M25.8369 15.4473C25.5149 15.6646 25.4505 16.0509 25.9013 16.3004M25.0479 15.3343C25.0642 15.6643 25.2171 15.8494 25.5792 15.8816M24.5734 15.1653C24.0905 15.608 24.5653 16.1232 25.1368 15.6885M24.9114 15.8253C24.7504 16.3324 25.3541 16.6382 25.6761 16.1231M23.9134 14.7468C23.7364 15.2458 23.9618 15.5758 24.3722 15.5437M23.2774 14.6503C23.3016 14.9481 23.5591 15.0527 23.8489 14.9883M23.4624 14.9643C23.2451 15.3828 23.5751 15.6082 24.0099 15.4472M25.3299 16.3808C25.2574 16.6464 25.2976 16.8395 25.692 16.9282M25.3539 16.7593C24.8789 16.9766 24.8388 17.4354 25.2089 17.7332M24.9714 16.2483C24.7221 16.4737 24.7702 16.864 25.0439 17.0169M22.8589 14.7793C22.5852 15.049 22.8469 15.7934 23.4504 15.387M24.4284 15.7208C24.058 16.0267 24.2272 16.582 24.8389 16.4291M23.8164 15.4873C23.6233 16.0347 23.8085 16.2278 24.2431 16.2358" stroke="black" stroke-width="0.21"/>
<path d="M22.4565 14.7551C22.1265 15.0046 22.2151 15.3587 22.3601 15.5197C22.5048 15.6807 22.7784 15.6083 22.867 15.399M21.764 14.5381C21.3938 15.013 21.764 15.5764 22.2874 15.4074M23.7445 15.9466C23.3662 16.0835 23.0776 16.427 23.3097 16.7273C23.4466 16.9044 24.0422 16.9286 24.2112 16.2444M23.06 15.5036C22.8427 15.8175 22.915 16.1153 23.3175 16.2682M23.036 16.0916C22.8025 16.2203 22.6496 16.3733 22.706 16.655M22.513 15.6006C22.4245 15.9789 22.5291 16.2123 22.7624 16.325M22.505 16.0511C22.1427 16.027 21.9577 16.1798 22.0783 16.534M22.1105 16.1396C21.7563 16.0108 21.6999 15.705 21.8528 15.383M21.8045 15.8581C21.4181 15.8742 21.2491 16.0673 21.2491 16.333" stroke="black" stroke-width="0.21"/>
<path d="M21.2809 14.3528C20.9992 14.4736 20.9107 14.8519 21.0153 15.0611C21.1201 15.2704 21.4501 15.2865 21.6514 15.1496M20.4924 14.0553C20.2349 14.3451 20.5326 14.9085 20.9916 14.7717M19.8324 13.8298C19.591 14.1679 19.8566 14.7313 20.4764 14.5703M20.5084 16.1398C20.4441 15.7373 20.8626 15.4717 21.3778 15.9949M21.1284 15.1823C20.9755 15.3192 20.9032 15.5364 20.9272 15.7136M19.1724 13.6368C18.9068 14.0876 19.2289 14.4981 19.8003 14.3371M20.6614 14.7553C20.2831 15.1336 20.4119 15.5119 20.6935 15.7292M20.4199 15.1983C19.8485 15.2064 19.8164 15.8664 20.2832 16.0757M19.9854 14.5383C19.7521 14.6993 19.6796 15.1419 20.0821 15.3191M19.9694 15.5283C19.728 15.4156 19.4382 15.5524 19.4623 15.8342M19.6069 15.5363C19.3896 15.0212 18.7538 15.1098 18.8103 15.6409M19.7839 14.9003C19.6472 14.9244 19.3735 15.0049 19.2689 15.2142M19.3094 14.3208C19.0519 14.6106 19.253 14.9567 19.4624 15.0291M18.5449 13.5078C18.4966 13.8539 18.6335 14.0229 19.0681 13.9908M18.6974 13.9508C18.5282 14.3694 18.7537 14.5544 19.1882 14.5303M18.7939 14.4658C18.5364 14.7717 18.7135 15.1017 18.9629 15.2385M18.6734 14.8523C18.2147 14.7959 18.1422 15.3272 18.2951 15.5767" stroke="black" stroke-width="0.21"/>
<path d="M18.3029 13.4678C18.0213 13.5885 17.8604 13.9426 18.0132 14.16C18.1662 14.3773 18.4721 14.3048 18.6411 14.1921M18.1099 14.2563C17.8766 14.6104 18.0857 14.876 18.3354 14.9806" stroke="black" stroke-width="0.21"/>
<path d="M17.2084 13.4268C17.0233 13.6199 17.136 14.0144 17.5867 14.0224C17.9496 14.0289 18.134 13.6843 18.0213 13.4429M17.5224 14.0223C17.3775 14.3442 17.4661 14.6903 18.0134 14.6339M18.2469 15.1413C17.9088 14.9883 17.4582 15.1413 17.6513 15.5438M17.6029 14.5698C17.466 14.7629 17.5144 15.0366 17.6673 15.2056M17.5789 15.0848C17.3535 15.125 17.1362 15.2458 17.273 15.5999M17.2404 15.3103C16.9507 15.2217 16.5804 15.431 16.8058 15.7288M16.7579 15.4473C16.5084 15.407 16.2106 15.6726 16.452 15.9383M16.3554 15.7208C16.13 15.7771 15.8644 16.0347 16.0978 16.2359M17.4904 14.4573C17.1685 14.6021 17.1362 14.9644 17.2892 15.2299M17.1519 13.7893C16.669 13.9744 16.677 14.6183 17.2082 14.8195M16.9829 14.6743C16.6932 14.8433 16.6368 15.1653 16.83 15.3745M16.4759 13.5478C16.2827 13.6121 16.2988 14.2078 16.814 14.1916M15.9449 13.7488C15.5585 14.0063 16.0254 14.6583 16.6532 14.1914M16.3069 14.3523C16.2506 14.6179 16.323 14.9076 16.7496 14.9399M16.3309 14.7068C16.025 14.8194 15.9687 15.4473 16.524 15.4955M15.3574 14.1353C14.963 14.4974 15.6793 14.8114 15.945 14.2882M14.8099 14.7388C14.6167 14.9722 15.2928 15.5839 15.5907 14.5617M15.6629 14.5458C15.679 14.7872 15.8239 14.9321 16.1217 14.9482M16.1139 15.1818C15.639 15.2542 15.4861 15.8498 16.0173 15.9786M15.2364 15.1013C15.2203 15.3266 15.4537 15.5118 15.7193 15.4715M15.9609 15.9623C15.5263 16.0588 15.4699 16.6223 15.8563 16.5901M15.6549 17.1133C15.2927 17.0046 15.2847 16.5739 15.6066 16.413" stroke="black" stroke-width="0.21"/>
<path d="M15.3574 16.7346C15.0516 16.9197 15.1723 17.3624 15.3333 17.4268C15.4943 17.4911 15.6231 17.4107 15.6392 17.2739M15.6149 17.8936C15.6471 18.1028 14.8704 18.0223 15.2689 17.3704M15.2644 17.9301C15.0029 18.3406 15.4294 18.6746 15.6991 18.3244M15.3009 18.4251C15.1963 18.7551 15.5947 18.9926 15.8522 18.735M14.4314 15.3341C14.2866 15.6319 15.0109 15.7446 15.0593 15.1328M14.2304 15.7771C14.0856 16.3566 15.1802 16.2358 14.8985 15.4873M14.9224 15.8736C15.0754 15.9621 15.5342 15.9701 15.6468 15.4792M15.3169 15.8896C15.3491 16.0425 15.4859 16.2276 15.6148 16.2839M14.7939 16.0426C14.7456 16.3565 15.0596 16.6141 15.4218 16.5899M14.8499 16.3486C14.6729 16.5901 14.6165 17.0569 15.1719 17.0891M14.0049 16.4291C13.9164 16.6786 14.4396 16.9362 14.7454 16.5256M13.8439 17.0646C13.7996 17.2538 14.2705 17.5072 14.5361 16.7024M14.3269 17.1131C14.4396 17.3143 14.8179 17.4752 15.0513 17.0809M14.6729 17.3226C14.5764 17.6042 14.842 17.8699 15.1639 17.7894M14.0694 17.2581C14.0051 17.6605 14.4719 17.8939 14.7616 17.6846M13.7634 17.4351C13.6266 17.9502 14.2866 18.1434 14.5361 17.757M14.3674 17.9101C14.3916 18.1998 14.8424 18.4493 15.1965 18.2079M13.5624 18.1516C13.5303 18.2803 14.0696 18.4091 14.1499 17.9584M13.8764 18.2641C14.0052 18.5941 14.4398 18.6746 14.6894 18.2721M14.5444 18.4331C14.6008 18.7389 14.9952 18.9079 15.3413 18.6987M15.4859 18.8196C15.3974 19.2301 15.824 19.5601 16.0896 19.3347M14.8019 18.7471C14.6732 19.1978 15.2366 19.4554 15.5505 19.2058M14.1259 18.5216C14.0938 18.9401 14.4238 19.1896 14.8021 19.0045M13.4094 18.5621C13.2968 18.8357 13.8924 19.0611 14.1741 18.8277M13.0389 19.3106C13.1919 19.4876 13.7231 19.3106 13.7714 18.9162M13.6269 19.2056C13.8201 19.4309 14.2789 19.5517 14.4641 19.0687M14.3029 19.3186C14.2949 19.6647 14.9147 19.9142 15.1159 19.2783M15.8439 19.4031C15.7876 19.5721 15.9204 19.8417 16.1981 19.8739M15.3329 19.2986C15.2927 19.4917 15.5744 19.7613 15.8723 19.6527M15.9289 19.7331C15.8484 19.9423 15.9168 20.2441 16.1986 20.2401M15.9569 20.1236C15.7477 20.3006 15.8362 20.6146 16.1381 20.6267M15.8484 20.4211C15.5506 20.6222 15.6553 21.0649 16.0497 21.0409M14.9469 19.5681C14.9469 20.0027 15.4862 20.0671 15.5908 19.6646M15.3814 19.9221C15.3009 20.1796 15.5102 20.4292 15.8402 20.3567M15.4459 23.0291C15.5184 23.1339 15.8162 22.9567 15.7357 22.7797C15.6553 22.6026 15.3398 22.6989 15.3735 22.8842M15.6629 22.7071C15.7032 22.3529 15.2846 22.2966 15.18 22.6025M15.3329 22.4256C15.4376 22.2485 15.0834 22.007 14.9386 22.2645M15.0674 22.1596C15.164 21.9019 14.7616 21.7894 14.7294 22.0227M14.6409 21.6846C14.6893 21.5558 15.14 21.6363 14.9468 21.9019M15.2929 22.2241C15.47 22.063 15.1723 21.733 14.9871 21.8539M16.4839 22.7151C16.3431 22.7311 16.1981 22.8236 16.3028 23.1215C16.3753 23.3282 16.6851 23.3388 16.7294 23.214" stroke="black" stroke-width="0.21"/>
<path d="M16.279 22.8641C16.1422 22.7755 15.8444 22.9245 15.9812 23.2142C16.0842 23.4324 16.3434 23.343 16.3837 23.2303M15.51 23.2786C15.5784 23.3992 15.9205 23.3471 15.9809 23.2142M15.7435 22.8801C15.816 22.8317 15.9487 22.8919 15.977 22.9524M15.7195 20.8961C15.4861 21.049 15.631 21.5159 15.9932 21.395M15.647 21.2746C15.4619 21.4194 15.6309 21.8702 15.977 21.7013M15.7035 21.7011C15.5748 21.8298 15.6995 22.1879 16.0335 22.1196M15.655 21.8781C15.5825 21.8457 15.3934 21.8699 15.3129 21.9906M15.446 20.2481C15.269 20.4171 15.3535 20.7632 15.6835 20.7914M15.3815 20.6021C15.128 20.7269 15.128 21.2297 15.635 21.2499M15.3615 21.1696C15.2207 21.2822 15.2891 21.7169 15.6513 21.6604M15.478 21.6446C15.4257 21.6969 15.4176 21.8297 15.4619 21.886M15.317 21.4796C15.1883 21.4835 15.0192 21.5762 14.9749 21.7089M14.7415 21.2421C14.7899 21.1133 15.1883 21.1214 15.2164 21.4998M15.2565 21.0491C15.2002 21.0611 15.0915 21.1134 15.0634 21.2222M15.0835 19.8701C14.9104 20.027 14.826 20.5221 15.3532 20.6186M14.7335 20.8921C14.7335 20.7591 15.0917 20.6464 15.2165 20.8438M14.504 20.1716C14.5564 20.2722 14.8059 20.4091 14.9588 20.2964M13.208 19.3831C13.2 19.6165 13.3932 19.8257 13.6588 19.7936C13.9244 19.7614 13.9807 19.5279 13.9002 19.375M13.699 19.8016C13.522 20.0189 13.7393 20.3247 13.9405 20.2362M13.9005 19.6486C14.0052 19.6083 14.3513 19.56 14.4559 19.721M12.7815 19.7131C12.701 19.8338 13.2001 19.9546 13.369 19.7211M13.2 19.8416C13.1839 20.0026 13.2644 20.2762 13.6749 20.1635" stroke="black" stroke-width="0.21"/>
<path d="M13.7395 20.414C13.8039 20.2771 13.498 20.0518 13.2646 20.3013C13.0312 20.5508 13.2968 20.8326 13.4417 20.7359M12.669 19.875C12.5482 20.0843 13.0151 20.4666 13.2807 20.1125" stroke="black" stroke-width="0.21"/>
<path d="M12.359 20.2364C12.19 20.4095 12.3993 20.7274 12.6528 20.6308C12.9063 20.5342 12.8822 20.2686 12.8219 20.2002" stroke="black" stroke-width="0.21"/>
<path d="M12.033 20.5588C11.8961 20.6835 12.0289 20.9772 12.2181 20.9772C12.4072 20.9772 12.524 20.8285 12.4877 20.6393M12.8015 20.5348C12.7773 20.7199 13.051 20.8486 13.228 20.6757M13.2365 20.3373C13.2606 20.297 13.2405 20.2285 13.2003 20.1964M11.7395 20.8083C11.5826 20.9331 11.9206 21.2791 12.1338 20.9612M12.9505 20.7398C12.8498 20.8362 13.0108 21.0898 13.1718 21.0133M12.3995 20.9168C12.4236 21.0897 12.7617 21.2185 12.975 20.953M12.5845 21.0898C12.5322 21.1985 12.6368 21.3716 12.7656 21.3475M15.788 22.0843C15.6633 22.3297 16.0617 22.6155 16.3514 22.3176M16.0775 22.4503C16.0172 22.583 16.0896 22.7682 16.1982 22.8365M15.6995 22.7278C15.7277 22.607 15.9007 22.4942 16.0577 22.5507M15.49 22.4098C15.5141 22.3012 15.659 22.1925 15.7677 22.2208M24.9675 17.3873C24.396 17.3953 24.6375 18.3129 25.1285 18.1278M24.7825 18.0638C24.6698 18.2489 24.887 18.5427 25.1285 18.3696M25.0645 18.4058C24.8953 18.6875 25.499 19.1181 25.7405 18.6754M25.5475 18.8443C25.5554 19.1099 26.3281 19.2789 26.2156 18.7477M26.143 19.0373C26.328 19.3511 27.0203 19.3834 26.9478 18.9165M26.795 19.2388C26.94 19.448 27.616 19.5768 27.5918 19.1421M24.05 16.5908C24.1464 16.8403 24.4764 16.9288 24.8387 16.7839M23.841 16.7678C24.0664 16.9126 23.7364 17.5726 23.3903 17.307M23.841 17.1783C24.0905 17.299 24.3963 17.2105 24.4849 16.8563M24.332 17.1298C24.3562 17.3149 24.6218 17.4598 24.9678 17.3873M23.712 17.3233C24.034 17.597 23.5672 18.1604 23.3578 17.9028M23.833 17.5323C23.9859 17.645 24.3803 17.5806 24.4205 17.2828M24.2435 17.5323C24.2758 17.7254 24.4287 17.7979 24.646 17.806M23.7445 17.7978C23.9053 18.0231 24.3078 18.0875 24.4848 17.7897M24.7825 18.3049C24.5329 18.3531 24.2914 18.1761 24.3075 17.9588C24.3398 18.2646 23.9614 18.4256 23.72 18.2888M23.4305 18.4418C23.6397 18.5464 23.865 18.152 23.688 17.8784M23.672 18.8603C23.9215 18.8764 23.9537 18.4981 23.7203 18.2888M24.2435 19.2063C24.4528 19.158 24.3883 18.6991 23.8812 18.6589M24.879 19.5448C25.0802 19.4884 24.9192 18.9813 24.364 19.0135M25.644 19.7218C25.7807 19.5125 25.33 19.1584 24.9598 19.3435M26.022 20.0113C26.2715 20.0837 26.4405 19.4238 25.6518 19.5283M26.481 20.0113C26.6985 19.955 26.8514 19.5605 26.2155 19.6893M26.964 20.0438C27.1571 20.1404 27.2457 19.5769 26.6579 19.7299M24.211 18.2248C24.2916 18.3696 24.2593 18.6513 24.1064 18.7238M24.235 18.5628C24.396 18.6271 24.6133 18.5708 24.7421 18.3133M24.517 18.5628C24.5651 18.6755 24.5813 18.9008 24.4765 19.0135M24.5575 18.7558C24.7345 18.8523 24.9437 18.7236 25.0323 18.5385M24.9195 18.6993C25.0482 18.7798 25.1609 19.158 24.9437 19.311M25.0645 19.1343C25.2174 19.1423 25.4428 19.1423 25.5876 18.9491M25.483 19.0538C25.6198 19.094 25.7807 19.3194 25.7244 19.5206M25.7325 19.4478C25.8856 19.4316 26.151 19.327 26.2235 19.1419M26.151 19.2628C26.2799 19.3352 26.3685 19.4881 26.3522 19.6652M26.352 19.5363C26.5049 19.5282 26.6418 19.4478 26.682 19.2787M26.642 19.3918C26.7547 19.432 26.8915 19.5608 26.8997 19.7137M26.8835 19.6168C26.9962 19.6006 27.0766 19.5282 27.1491 19.4155M27.455 19.3998C27.6 19.5446 27.4068 20.0276 27.1089 19.9391M24.364 9.64427C24.066 9.82133 23.2208 9.76502 23.6393 9.06477M24.4445 9.16927C23.857 9.4027 23.1323 8.95195 23.8891 8.46095M23.688 8.30027C23.1969 8.30027 22.8669 9.08902 23.5272 9.36277M21.7805 8.63027C21.6517 8.87977 22.1105 9.15339 22.4244 8.90395C22.6675 8.71064 22.6497 8.18758 22.5048 7.98633M21.531 9.22577C21.3699 9.75702 22.5533 9.78914 22.3681 8.94402M21.4665 10.0148C21.5067 10.4172 22.6015 10.2885 22.2471 9.47545M22.376 9.24977C22.4645 9.37052 22.706 9.57977 23.1163 9.53952M22.569 8.67827C22.6052 8.82314 22.8507 8.93583 23.1646 8.8272M11.5865 20.9248C11.3088 21.1221 11.7354 21.4319 11.8923 21.0898M11.369 21.0778C11.0913 21.2748 11.5179 21.5846 11.6748 21.2426M11.1395 21.2268C10.8617 21.4241 11.2883 21.7339 11.4453 21.3918M10.898 21.3638C10.6323 21.5046 10.9422 21.8506 11.2118 21.5448M10.6365 21.4968C10.3708 21.6374 10.6808 21.9836 10.9504 21.6778M11.985 21.0818C11.9809 21.287 12.3713 21.3716 12.5121 21.0655M12.2305 21.2713C12.1097 21.4242 12.3311 21.6133 12.4518 21.5448M11.711 21.2428C11.6988 21.4159 12.0369 21.5165 12.202 21.3273M11.8965 21.4243C11.7878 21.5651 12.0011 21.7543 12.1379 21.6978M11.486 21.3998C11.498 21.5366 11.6912 21.6935 11.9005 21.605M11.6105 21.5848C11.53 21.6573 11.5702 21.8265 11.6829 21.8787M11.192 21.5728C11.1598 21.6976 11.3731 21.919 11.5904 21.774M11.236 21.7178C11.1072 21.8184 11.1233 21.9713 11.2883 21.9913M10.9265 21.7018C10.9104 21.7861 11.0191 21.923 11.1559 21.907M10.238 21.6938C10.1092 21.7621 10.4392 22.1123 10.6444 21.7863M9.91997 21.8383C9.75897 21.915 10.1575 22.3012 10.3345 21.9068M10.9625 21.8223C10.8377 21.8504 10.7572 22.0316 10.8618 22.104M10.556 21.8868C10.5398 21.9593 10.6928 22.0799 10.8176 22.0357M10.4515 21.9193C10.3307 21.9957 10.3951 22.2088 10.536 22.1768M10.021 22.0598C9.90829 22.1441 9.98472 22.3133 10.1417 22.2731M10.226 22.0478C10.23 22.092 10.3306 22.1605 10.4152 22.1323M9.63047 21.9753C9.48966 22.0357 9.49772 22.3898 9.9726 22.1967M9.31247 22.1163C9.11522 22.213 9.17966 22.4786 9.61029 22.225M9.64647 22.2453C9.59416 22.2855 9.53785 22.4626 9.73504 22.394M9.28447 22.3293C9.20397 22.4018 9.25635 22.5507 9.43341 22.4943M8.86997 22.3538C8.7251 22.4383 9.04297 22.5511 9.25635 22.3256M8.96647 22.4583C8.9021 22.5226 8.9021 22.7118 9.0711 22.6435M8.55597 22.5348C8.45941 22.6073 8.62435 22.704 8.92622 22.571M8.67647 22.6393C8.56379 22.7318 8.57585 22.8485 8.74085 22.8122M8.34247 22.6918C8.21772 22.8045 8.39879 22.881 8.61616 22.7882M8.34647 22.8168C8.13316 22.9132 8.22572 23.0903 8.35854 23.022M15.47 23.4323C15.4205 23.5387 15.5827 23.6254 15.7356 23.6012C15.8825 23.5781 16.023 23.4571 15.9127 23.2875M15.9205 23.4968C16.0653 23.6095 16.3229 23.4807 16.3229 23.3116" stroke="black" stroke-width="0.21"/>
<path d="M24.7984 6.44079C24.1545 6.11885 22.8184 5.52316 22.4401 6.00616C22.7861 5.86129 23.8003 6.01422 24.6374 6.78691L24.7984 6.44079Z" fill="white" stroke="black" stroke-width="0.21"/>
<path d="M25.1889 6.4074C24.4443 5.54003 24.0058 5.73422 23.4704 5.43547C22.9675 5.15472 22.1664 5.09734 22.0112 5.54378C22.746 5.1859 23.4206 5.73628 23.835 5.80284C24.4041 5.89422 24.7254 6.33422 24.8919 6.53659L25.189 6.4074H25.1889ZM27.9939 6.2964C27.6075 5.41103 26.7812 5.64228 26.4162 5.26615C25.8852 4.71884 24.541 4.21178 23.9856 4.59003C25.2089 4.52565 25.73 5.43328 26.3841 5.74909C26.851 5.97447 27.35 6.45734 27.9939 6.2964Z" fill="white" stroke="black" stroke-width="0.21"/>
<path d="M26.5455 6.19973C25.8855 5.37873 24.8711 4.65435 24.4044 4.92798C25.0161 4.96016 25.2092 5.38673 25.644 5.66048C26.0786 5.9341 25.8855 6.32848 26.5455 6.19973ZM23.406 7.64873C22.7136 7.39116 21.3616 7.26241 20.7336 8.05123C21.7801 8.22823 23.3576 8.13166 23.406 7.64873Z" fill="white" stroke="black" stroke-width="0.21"/>
<path d="M23.2774 7.9541C22.5851 7.63217 22.0446 8.08185 21.3939 8.01848C20.1545 7.89773 19.2691 7.97017 19.1564 8.56585C19.8647 7.92998 21.056 8.45317 21.5389 8.32435C22.0218 8.1956 23.8087 8.30829 24.372 8.54973C24.0822 8.1956 23.6316 8.09898 23.2774 7.9541ZM25.4504 6.1106C25.2896 5.57935 25.2975 5.01598 26.0944 5.05623C25.8931 4.80667 25.1527 4.67792 25.0319 5.6116C24.1546 4.96773 23.1967 4.85498 23.0198 5.41035C23.4704 5.02404 24.1706 5.30573 25.0077 6.25554C25.0802 6.21529 25.2733 6.13479 25.4504 6.11067L25.4504 6.1106Z" fill="white" stroke="black" stroke-width="0.21"/>
<path d="M24.2435 6.84403C23.7445 6.52209 23.0683 5.9989 24.2516 5.78965C23.7445 5.51597 23.0039 5.63672 23.0845 6.5704C21.7322 6.02303 20.7611 6.20778 20.557 6.74747C20.3316 7.34309 21.1688 7.67309 21.3136 7.29478C21.1607 7.35915 20.6376 7.18209 20.9111 6.84403C21.1849 6.50603 22.5874 6.75978 23.9215 7.45578C24.2918 7.6489 25.5634 7.61678 24.2434 6.84403H24.2435Z" fill="white" stroke="black" stroke-width="0.21"/>
<path d="M23.8889 7.72908C23.5039 6.94295 22.255 7.65664 22.0033 6.8952C21.6593 8.01083 23.7793 7.39345 23.8889 7.72908ZM31.8334 8.58208C32.0953 8.7122 32.3217 8.50764 31.9211 8.3472C32.1832 8.4772 32.4117 8.27758 32.0111 8.11702C32.2732 8.24708 32.5017 8.04745 32.1011 7.88689C31.9942 7.99452 31.8413 8.38889 31.8334 8.58208ZM31.9699 7.06908C32.5495 6.45739 31.9218 6.24808 32.6299 5.62033C33.2095 5.10658 32.7405 4.76427 33.2901 4.36464C33.4672 4.23589 33.8535 3.97827 33.8857 3.7207C34.1191 4.3002 33.1612 4.3807 33.2255 5.31445C33.2666 5.90895 32.8647 5.85695 32.7105 6.85983C32.6783 7.06908 32.5335 7.53595 31.9699 7.06908Z" fill="white" stroke="black" stroke-width="0.21"/>
<path d="M32.2279 7.34246C32.5498 6.65027 32.9193 6.66359 33.097 6.39271C33.4352 5.87759 34.1514 6.48127 34.7552 6.02246C34.6506 6.6744 33.8377 6.44102 33.4835 6.85959C33.1294 7.27809 32.8396 7.47127 32.2279 7.34246Z" fill="white" stroke="black" stroke-width="0.21"/>
<path d="M32.3084 7.5684C32.872 7.11765 33.2872 7.4184 33.6768 7.18202C34.6587 6.5864 35.0532 7.30277 35.9305 7.02109C35.697 7.58446 34.4011 7.10159 33.8378 7.52009C33.2743 7.93865 31.2943 8.34109 32.3084 7.5684ZM30.6664 10.7799C30.6583 10.5223 30.4168 10.1923 30.0787 10.1521C29.7408 10.1118 29.5958 9.75771 29.3383 9.74159C29.0808 9.72552 28.9116 9.21034 28.5575 9.2184C28.2033 9.22646 28.0585 9.68527 28.8875 10.1038C29.7166 10.5223 30.6341 11.0053 30.6664 10.78V10.7799ZM29.6199 10.9974C29.2657 11.0135 29.2174 11.5286 28.8795 11.5448C29.3461 11.7943 29.6843 11.4321 29.9258 11.1101L29.6199 10.9974Z" fill="white" stroke="black" stroke-width="0.21"/>
<path d="M29.9099 11.0615C29.6041 11.3191 29.5156 11.8584 29.9582 12.0113C29.6926 11.645 30.4251 11.48 30.1997 11.142L29.9099 11.0615Z" fill="white" stroke="black" stroke-width="0.21"/>
<path d="M30.2155 11.0775C29.9741 11.5444 30.5938 11.6007 30.4328 11.9549C30.7869 11.8744 30.8434 11.2064 30.5213 11.0293L30.2155 11.0775Z" fill="white" stroke="black" stroke-width="0.21"/>
<path d="M27.8489 10.0791C28.4285 10.0469 28.9585 10.3604 29.3139 10.8678C29.5393 11.1898 30.2958 11.3186 30.5535 11.061C30.811 10.8035 30.6662 10.2561 30.0223 10.4333C29.8612 10.1596 29.3943 10.2561 29.1691 10.0308C28.9437 9.80546 28.0743 9.16152 27.8489 10.0791Z" fill="white" stroke="black" stroke-width="0.21"/>
<path d="M30.0225 10.4335C29.8695 10.4657 29.8212 10.7313 29.9177 10.8681L30.0225 10.4335ZM30.3525 10.5945C30.4008 10.675 30.3685 10.7876 30.3443 10.844L30.3525 10.5945ZM28.767 10.1035C29.0647 10.1196 29.1212 10.337 29.443 10.4175L28.767 10.1035Z" fill="white"/>
<path d="M30.0225 10.4335C29.8695 10.4657 29.8212 10.7313 29.9177 10.8681M30.3525 10.5945C30.4008 10.675 30.3685 10.7876 30.3443 10.844M28.767 10.1035C29.0647 10.1196 29.1212 10.337 29.443 10.4175" stroke="black" stroke-width="0.21" stroke-linecap="round"/>
<path d="M28.5699 9.37068C29.5985 9.62824 30.4145 9.85362 30.9205 10.1434C31.4266 10.4332 32.2102 10.5136 32.8958 10.3205C33.5814 10.1273 34.9035 9.95024 34.8383 10.8034C35.1977 10.3768 34.7403 9.91799 33.8262 9.83749C33.8426 9.41899 33.3947 9.04062 33.0726 9.29018C33.3705 9.24993 33.6276 9.80531 33.0401 10.0307C33.1543 9.61212 32.738 9.23381 32.3055 9.41893C32.583 9.49943 32.8637 9.96481 32.2428 10.1433C31.8509 10.2561 31.2797 10.1112 30.8553 9.85362C30.4309 9.59599 28.0476 8.66237 28.5699 9.37068Z" fill="white" stroke="black" stroke-width="0.21"/>
<path d="M31.1654 8.95313C30.8436 9.098 31.0527 9.43607 30.5538 9.62925C30.0546 9.82238 29.7086 10.2651 29.8213 10.6434C30.1594 9.90288 30.7551 9.93507 30.9642 9.64532C31.1736 9.35557 31.4794 8.929 31.1654 8.95313Z" fill="white" stroke="black" stroke-width="0.21"/>
<path d="M31.2539 9.00082C31.2379 9.58832 30.7754 9.37432 30.956 10.2001C31.0125 10.4576 31.1171 10.8762 30.94 11.2948C31.4591 10.9165 31.1252 10.1218 31.3585 9.82182C31.4713 9.67694 31.616 9.45157 31.6725 9.25844C31.5516 9.59644 31.5598 10.2243 31.8898 10.3853C31.6241 9.75744 32.6063 9.24232 31.93 8.51794C31.8335 8.695 31.5275 9.00882 31.2539 9.00082ZM29.6119 8.41332C29.6926 8.53407 29.773 8.83994 29.7005 9.00894C29.8615 8.91238 30.0951 8.66288 30.1674 8.49382C30.4974 8.54213 30.6261 8.95257 30.3124 9.12969C30.5055 9.12969 30.8355 9.12969 31.0205 8.91238C30.7953 8.66282 30.0951 8.27644 29.6119 8.41332Z" fill="white" stroke="black" stroke-width="0.21"/>
<path d="M24.6054 7.25838C24.5533 7.21088 24.4654 7.16582 24.3077 7.13338C23.8204 7.03344 24.0721 6.59419 24.4868 6.59813C25.372 5.63226 25.8691 6.37682 26.9477 6.07094C27.3252 5.96394 27.5843 5.99557 27.79 6.08451C28.2729 5.76263 28.8394 5.85251 29.25 6.23082C29.2956 6.15832 29.3569 6.10288 29.4429 6.07894C29.821 5.97394 30.1269 6.29644 30.2314 6.71494C30.5262 6.66032 30.8629 6.80619 31.0844 7.00744C31.391 6.84994 31.6023 6.84294 31.68 7.00494C31.9538 6.87613 32.3084 6.79538 32.4854 7.23001C32.6625 7.66463 32.0669 7.53588 31.9702 8.45344C31.9106 9.01951 31.2781 9.24226 30.7789 8.90419C29.9806 8.36338 29.2014 8.27638 28.815 9.09732C28.4288 9.91838 28.1261 10.3954 27.1891 10.1276C26.8513 10.031 26.4164 10.1598 26.1429 10.5301C25.8691 10.9003 25.4506 10.5542 24.9516 10.5944C25.5794 10.4979 25.3389 10.3399 25.8854 10.3047C26.3844 10.2725 26.2556 9.80569 26.5775 9.74126C25.3219 10.0633 25.3702 9.59638 24.34 9.91832C24.7906 9.33882 25.4989 9.66082 25.8531 9.32269C24.9194 9.30663 24.5019 8.69663 24.0823 8.95251C23.4223 9.35494 23.7119 10.5008 21.9896 10.4013C21.1525 10.353 20.6213 10.4656 20.1223 10.9648C20.9917 9.16182 22.1742 10.1523 22.7463 9.58038C23.0844 9.24226 23.3419 8.98469 23.5189 8.66276C23.5813 8.54938 23.6656 8.48463 23.771 8.45963C22.3383 8.00882 23.2048 7.30663 24.6054 7.25838Z" fill="white" stroke="black" stroke-width="0.21"/>
<path d="M31.6795 7.00488C31.7014 7.05013 31.7126 7.10888 31.7126 7.18151C31.7126 7.53563 31.1814 7.55176 31.1492 8.07495C31.1324 8.34863 31.1009 8.50157 30.9157 8.46932C30.7307 8.43713 30.5697 8.14745 30.7467 7.80932" fill="white"/>
<path d="M31.6795 7.00488C31.7014 7.05013 31.7126 7.10888 31.7126 7.18151C31.7126 7.53563 31.1814 7.55176 31.1492 8.07495C31.1324 8.34863 31.1009 8.50157 30.9157 8.46932C30.7307 8.43713 30.5697 8.14745 30.7467 7.80932" stroke="black" stroke-width="0.21" stroke-linecap="round"/>
<path d="M24.871 6.73103C24.7377 6.63734 24.6043 6.59928 24.4847 6.59816L24.871 6.73103ZM27.787 6.08203C28.2132 6.26659 28.4211 6.70934 29.0404 6.73103C29.6364 6.75197 30.0064 7.61641 31.0043 7.05297C31.0304 7.03824 31.0568 7.02401 31.0834 7.01028M29.25 6.23103C29.1611 6.37247 29.1408 6.56997 29.1652 6.74322L29.25 6.23103ZM27.302 8.05103C26.5456 8.05103 26.3522 8.43734 26.3522 8.80766C26.3522 9.17791 26.7064 9.66078 27.3343 9.66078C27.962 9.66078 28.3001 9.27453 28.3001 8.85591C28.3001 8.43734 27.9137 8.05103 27.302 8.05103Z" fill="white"/>
<path d="M24.871 6.73103C24.7377 6.63734 24.6043 6.59928 24.4847 6.59816M27.787 6.08203C28.2132 6.26659 28.4211 6.70934 29.0404 6.73103C29.6364 6.75197 30.0064 7.61641 31.0043 7.05297C31.0304 7.03824 31.0568 7.02401 31.0834 7.01028M29.25 6.23103C29.1611 6.37247 29.1408 6.56997 29.1652 6.74322M27.302 8.05103C26.5456 8.05103 26.3522 8.43734 26.3522 8.80766C26.3522 9.17791 26.7064 9.66078 27.3343 9.66078C27.962 9.66078 28.3001 9.27453 28.3001 8.85591C28.3001 8.43734 27.9137 8.05103 27.302 8.05103Z" stroke="black" stroke-width="0.21"/>
<path d="M27.4384 9.6453C27.4223 9.43605 27.044 9.46824 27.0601 9.30724C27.0761 9.14624 27.2694 9.08186 27.2694 8.85649C27.2694 8.63111 27.6073 8.61505 27.7201 8.79211C27.8328 8.96917 28.1709 9.31524 28.2434 9.13824M27.7204 8.7923C27.5433 8.96936 27.4629 9.33155 27.6962 9.6133L27.7204 8.7923ZM27.9619 9.0658C27.9056 9.18655 27.8896 9.37167 27.9539 9.48436L27.9619 9.0658Z" fill="white"/>
<path d="M27.4384 9.6453C27.4223 9.43605 27.044 9.46824 27.0601 9.30724C27.0761 9.14624 27.2694 9.08186 27.2694 8.85649C27.2694 8.63111 27.6073 8.61505 27.7201 8.79211C27.8328 8.96917 28.1709 9.31524 28.2434 9.13824M27.7204 8.7923C27.5433 8.96936 27.4629 9.33155 27.6962 9.6133M27.9619 9.0658C27.9056 9.18655 27.8896 9.37167 27.9539 9.48436" stroke="black" stroke-width="0.21"/>
<path d="M30.9679 8.47358C31.5595 8.52189 31.6602 7.86983 31.2175 7.8297M30.2399 6.71508C30.0347 6.45351 29.5638 6.36495 29.5558 6.92033" stroke="black" stroke-width="0.21"/>
<path d="M29.4995 7.55225C29.2982 7.05318 28.7831 6.98075 28.5093 7.23031C28.2816 7.43793 28.2759 7.97881 28.767 8.09156C28.936 7.89031 29.266 7.62468 29.4995 7.55231V7.55225ZM29.278 7.23825C28.9882 6.98068 28.5616 7.46762 28.948 7.91437L29.278 7.23825ZM23.7655 8.45775C23.9594 8.41168 24.243 8.50662 24.6778 8.71112C24.9516 8.83987 25.7726 9.11362 26.2876 8.83987C25.7564 9.03306 25.3541 8.22818 24.9516 8.32475C24.5491 8.42137 23.8126 8.57025 23.5028 8.27643C24.2592 8.32475 24.6661 7.72537 25.5309 8.24425C25.7726 8.38912 26.0784 8.48575 26.352 8.46962C25.6439 7.61643 24.7101 8.16375 24.6134 7.47156C25.0401 7.93037 26.0824 7.36693 26.6136 8.22818M24.7665 7.60025C24.6669 7.47631 24.7119 7.35275 24.6051 7.255L24.7665 7.60025Z" fill="white"/>
<path d="M29.278 7.23825C28.9882 6.98068 28.5616 7.46762 28.948 7.91437M23.7655 8.45775C23.9594 8.41168 24.243 8.50662 24.6778 8.71112C24.9516 8.83987 25.7726 9.11362 26.2876 8.83987C25.7564 9.03306 25.3541 8.22818 24.9516 8.32475C24.5491 8.42137 23.8126 8.57025 23.5028 8.27643C24.2592 8.32475 24.6661 7.72537 25.5309 8.24425C25.7726 8.38912 26.0784 8.48575 26.352 8.46962C25.6439 7.61643 24.7101 8.16375 24.6134 7.47156C25.0401 7.93037 26.0824 7.36693 26.6136 8.22818M24.7665 7.60025C24.6669 7.47631 24.7119 7.35275 24.6051 7.255M29.4995 7.55225C29.2982 7.05318 28.7831 6.98075 28.5093 7.23031C28.2816 7.43793 28.2759 7.97881 28.767 8.09156C28.936 7.89031 29.266 7.62468 29.4995 7.55231V7.55225Z" stroke="black" stroke-width="0.21"/>
<path d="M30.24 6.71463C30.0629 6.52551 29.6766 6.67438 29.7851 7.05676C29.8698 6.87969 30.0508 6.73076 30.24 6.71463ZM29.1455 7.74563C29.2673 7.65713 29.3932 7.58444 29.4992 7.55157C29.4413 7.40832 29.3578 7.30026 29.2613 7.22482C29.1692 7.16119 28.9047 7.51701 29.1455 7.74563Z" fill="black"/>
<path d="M28.67 7.09347C28.3802 6.90035 28.1146 6.91641 28.026 7.07741C27.8168 7.06928 27.6437 7.22228 27.6356 7.5281M28.0825 7.65697C27.7364 7.41953 27.2614 7.5081 27.2937 8.03935M27.0845 8.34097C27.2534 8.2041 27.4949 8.10753 27.6801 8.34903M29.6685 7.81797C29.6041 7.90647 29.5558 8.04335 29.6603 8.2526C29.5316 8.0836 29.2097 8.0836 28.8635 8.53428M30.433 7.79397C30.0144 7.84228 30.0225 8.11591 30.3605 8.23666M27.455 6.77147C27.1008 6.69903 26.8433 6.90835 27.3343 7.08541M28.131 6.52997C27.6318 6.40922 27.4306 6.53803 27.656 6.65072M26.69 8.53447C26.6739 8.71153 26.7704 8.94497 27.0602 8.67935M26.787 9.06547C26.787 9.11378 26.7788 9.1701 26.7465 9.21035M25.6275 6.70697C25.3217 6.61841 25.2654 6.33672 25.6195 6.36085M25.523 7.35897C25.1848 7.24628 25.1848 6.91628 25.4665 6.94847M26.151 7.18997C25.7566 7.09335 25.7405 6.81972 26.0385 6.85997M26.199 6.35297C25.9898 6.33691 25.6677 6.57028 26.2071 6.70716M26.787 6.81997C26.2959 6.74753 26.304 6.94872 26.5937 7.07753M27.157 6.35297C26.7787 6.28053 26.6498 6.50591 26.9074 6.60247M25.966 7.74547C25.8733 7.66903 25.797 7.30278 26.2395 7.41147M26.8835 7.63297C26.5858 7.55247 26.3041 7.84222 26.5777 8.01128M27.2775 7.28697C26.9637 7.2306 26.6981 7.31916 26.867 7.43185" stroke="black" stroke-width="0.21" stroke-linecap="round"/>
<path d="M30.223 6.71484C30.0462 6.74759 29.8876 6.85153 29.7849 7.05684L30.223 6.71484Z" fill="white"/>
<path d="M30.223 6.71484C30.0462 6.74759 29.8876 6.85153 29.7849 7.05684" stroke="black" stroke-width="0.417"/>
</g>
<defs>
<clipPath id="clip0_1152_8743">
<rect width="40" height="30" fill="white"/>
</clipPath>
</defs>
</svg>
