<?xml version="1.0" encoding="utf-8"?>
<!-- Generator: Adobe Illustrator 27.7.0, SVG Export Plug-In . SVG Version: 6.00 Build 0)  -->
<svg version="1.1" id="Layer_1" xmlns="http://www.w3.org/2000/svg" xmlns:xlink="http://www.w3.org/1999/xlink" x="0px" y="0px"
	 viewBox="0 0 612 283.5" style="enable-background:new 0 0 612 283.5;" xml:space="preserve">
<style type="text/css">
	.st0{fill:#4C9C2E;}
	.st1{fill-rule:evenodd;clip-rule:evenodd;}
	.st2{fill:#FFFFFF;}
	.st3{fill:#54565A;}
</style>
<g>
	<g>
		<path class="st0" d="M395.4,113.8l-1.3-0.7h-1.3h-0.6h-0.6l0.6-0.7l0.6-1.3v-1.3l-1.9-2l-0.6-0.7l-3.2,2h-1.3l-1.9-0.7l-0.6-0.7
			l-0.6,0.7l-1.3,0.7l-2.6,2l-1.9,0.7l-1.3,0.7l-2.6,3.4l-0.6,0.7l-1.9,0.7h-1.3h-0.6l0,0l-0.7-1.3l-0.6-0.7H366h-4l-0.6-0.7
			l-0.6-0.7h-1.3l-1.3,0.7l-1.3,1.4l-2.5,4l-0.6-1.3V116v-0.7h-0.6l-1.3,0.7h-0.6l0,0l-1.3-0.7l-0.6,1.3l-0.6-0.7h-1.9l-1.3-0.7
			l-1.3-0.7h-0.6l-0.6,0.7l-1.9-0.7v0.7l-0.6,0.7v-1.4l-1.3-1.4h-0.6h-2.6v-0.7l0.6-1.3h-0.6l-0.6,0.7l-3.2-2v-0.7l-0.6-1.4
			l-0.6-0.7l-1.3,0.7h-0.6l-1.3-2l-1.3-0.7v0.7l-1.3-0.7l-1.9-2l-1.9-0.7v-1.4l-2.6-0.7l-0.6,0.7l-0.6-0.7v2l-0.6,0.7h-0.6l-0.6-1.3
			l0,0l-1.9-2v0.7l-1.9-0.7v-1.3l-1.9-1.3h-1.3l-1.3-2l-1.3-0.7l-0.6,0.7h-0.6l-0.6-1.3l0.6-0.7l-0.6-0.7l0.6-1.3l-1.3-2l-0.6-1.3
			l1.9-0.7v0.7l0.6,0.7h0.6l1.3-0.7l1.3-1.3l-1.3-2l0.6-0.7l-1.9-0.7v-0.7h-1.9l-0.6-0.7l0.7-2l2.6-0.4l0.2-1l1.8-2.4l1.8-2l0.4-2
			l-0.8-1l-1.2-1.3l-1.5-1.9l-2.1-0.4l-2.2,1l-1.6,1.3l-1.4,0.9l-0.6-1.2l-0.5,0.5l0,0l-0.6-0.6h-0.6l-3.2-0.7l-1.3-0.7V67l-0.7-0.7
			h-0.6l-0.6,0.7l-0.6-0.7l-0.6-0.7H290l0.6-2v-1.3l-0.6-0.7l-0.6-0.7h-1.3h-0.6v-1.3h-1.3h-0.6l-0.6,0.7l-0.6-0.7l-0.6-0.6v-0.1
			h-0.6v-0.7h1.3l0.6-0.7h-1.3l-1.3-0.7h-0.6l-1.3,0.7h-1.9h-0.6l0.6-0.7h-0.6h-1.3l-1.9,1.3l-1.3,1.3h-1.3l-1.9,1.3h-0.6h-0.6
			l-0.6-1.3l-0.6-1.3l0.6-1.3v-2.7v-0.7v-0.7l-1.3,0.7l0.6-2l-1.3-1.3H266h-0.6l-0.6,0.7l-0.6,0.7l-0.6,1.3l-0.7,1.3l0.7,0.7
			l-0.7,0.7l-1.3,0.7l-1.3-0.7h-0.6l-0.6,0.7v1.3l-0.6,0.7v0.7h-1.3l-1.3-0.7h-0.6l-1.3,0.7l-1.3,0.7l-1.3,0.7h-0.6v-0.7l-1.3-1.3
			v-0.7h-3.2H245l-3.2-0.7l-1.3-0.7l-1.3,0.7l-0.6,0.7l-2.6,0.7l-1.3,2.7l-0.6,2.7l-1.3,1.3l-4.5,2H227v0.7V69l-0.6,0.7l-1.3,0.7
			h-1.3h-1.3l-2.6-0.7L218,69l-0.6-0.7V69v1.3l-0.6,2l-1.3,4l-0.6,0.7l-1.3,1.3l0.6,2l1.3,0.7l0.6,0.7l-1.9,2.7v0.7l0.6,2.7l0.6,4v2
			l0.6,0.7h0.6l2.6,0.7l0.6,0.7l0.6,0.7v1.3l-1.3,1.3l-1.9,2l-1.9,3.4h0.1l1.9,2.7l1.9,2.7l0.6,1.3l1.3,1.3l2.6,0.7l1.3,0.7v1.3
			l0.6,3.4v1.3h1.9v0.7v2.7v0.7h-0.6h-2.6l-1.3,0.7l-1.9,1.3l-0.6,1.3l-0.6,2v0.7l-0.6,2.7h1.3l1.9-0.7h1.3h2.6h1.9l1.3-1.3h2.6v0.7
			h0.6l0.6,0.7l2.6-0.7h1.9h2.6l2.6-1.3h0.6l1.3,0.7v1.3v1.3v0.7l1.9,0.7h0.6v0.7l0.6,2.7l0.6,0.7l1.3,0.7l1.9,0.7v0.7l1.3,2
			l2.6,1.3l1.3,0.7l1.3,0.7h1.3h1.9h1.3l0.7-0.7v0.7l-1.3,2l-0.6,0.7h-1.3l-1.3,0.7l-2.6-0.7h-0.6l1.3,2l3.2,3.4l2.6,2.7l1.3,0.7
			l1.9,0.7h0.6l1.3-0.7h1.3l1.9-1.4l1.3-0.7l0.6-1.3v-0.7v-0.7l-0.6-0.7v-0.7v-0.7l0.6-0.7h1.9v1.3v2.7l0.6,1.3l0.6,1.4l0.6,0.7v0.7
			l-1.3,2v1.3v0.7v4l1.3,6.7l1.9,8.1l0.6,2.7l1.3,3.4l1.3,2l1.3,3.4l1.9,4l1.3,4.7l1.3,4l1.9,3.4l2.6,4.7l1.3,4.7l0.6,3.4l0.6,0.7
			v1.3l3.2,3.4h0.6h0.6l0.6-0.7l1.3-0.7l0.6-0.7l0.6-0.7v-1.3l0.6-1.3l1.9-0.7h0.6l1.9-0.7l-1.3-0.7l0.6-2l0.6-2l0.6-0.7l0.6,0.7
			h1.9v-0.7l-0.6-4.7v-1.4v-1.3l1.3-2l1.3-4l0.6-1.3v-1.6l-0.6-1.3l-0.6-0.7v-1.3v-1.4v-4v-1.3v-1.3l1.3-1.3l0.6-0.7h1.3l1.3,0.7
			l0.6-0.7l0.6-2l0.6-0.7h1.3h0.6l1.3-0.7l1.3-1.3v-1.3l0.6-0.7l0.6-1.3l1.3-0.7l1.3-0.7l1.9-1.3l1.3-2l1.3-0.7l1.3-1.3l2.6-2.7
			l1.3-1.3l0.6-1.3l1.3-0.7l1.9-0.7h0.6l1.3-0.7l1.3-1.3l1.3-0.7v-0.7l0.6-0.7l0.6-1.3v-1.3l-0.6-1.4l0.6-0.7l1.3-0.7l2.6-1.3
			l1.3-0.7l0.6-1.4l0.6,0.7l0.6,1.3v0.7l0.7-0.7v-0.7l0.6-0.7h0.6v2h1.3h0.6l-0.6-0.7l0.6-0.7l0,0l0.6,0.7l1.3-2l0.6,1.4h0.6
			l0.6-0.7v-1.3h0.6l0.6,0.7l0.6,1.4l0.6-1.4l1.3-0.7v-1.3l-0.6-2V145l0.6-0.7v0.7l0.6,1.3l0.6,0.7h1.3l1.3-0.7l1.3,0.7l1.3,4
			l0.6,2.7v1.3l0.6,0.7l0.6-0.7l1.9-1.3l-0.6-4v-1.3l-1.3-6.1l-0.6-2l-0.6,0.7h-0.6l0,0h0.6l0.6-0.7l0.6,2l1.3,6.1v1.3h1.3l0.6,0.7
			l0.6-0.7l0.6-0.7v-2l-0.6-2l0.6-0.7h0.6l0.6-1.3v-4v-0.7l1.9,0.7l0.6,0.7h0.6l0.6-0.7l2.6-5.4v-1.3l-0.6-0.7l0.6-0.7l1.9-2.7v-1.3
			v-2l0.6-0.7l3.2-2.7l1.3-1.3h1.3h0.6l1.9,0.7h1.3l-0.6-2v-0.7l1.3-2l0.6-0.7v-1.3h-1.8L395.4,113.8L395.4,113.8z M268.6,63.4
			L268.6,63.4h0.6l0,0H268.6z M277.5,60l-2.6,0.7h-2.5l0,0h2.6L277.5,60l1.9,0.6l0,0L277.5,60z M280.1,60L280.1,60h0.6l0,0H280.1z
			 M282,59.4L282,59.4h0.6l0,0H282z M369.8,119.2l0.6,0.7l0,0L369.8,119.2h-0.6l-0.6-0.7l0,0l0.6,0.7H369.8z M367.2,143.4l-0.6-0.7
			L366,142v-0.7V140l0.6-1.3l0,0L366,140v1.4v0.7l0.6,0.7L367.2,143.4l1.3,1.3l0,0L367.2,143.4z"/>
		<polygon class="st0" points="311.5,218.7 310.8,219.4 310.8,220.8 309.5,221.4 308.9,221.4 308.9,222.1 309.5,222.8 308.9,224.1 
			309.5,226.1 309.5,228.2 309.5,229.5 309.5,231.5 310.2,234.2 310.8,235.6 311.5,236.9 312.1,236.9 313.4,237.6 314.7,236.9 
			316.6,236.2 317.2,235.6 318.5,234.9 319.1,232.9 319.8,231.5 319.1,230.2 317.2,226.8 317.2,224.8 315.3,224.1 315.9,222.8 
			315.3,222.1 314,220.1 313.4,219.4 312.1,218.7 310.8,217.4 		"/>
	</g>
	<g>
		<g>
			<g>
				<g>
					<path class="st1" d="M161.5,131.8c0.1,0.1,0.1,0.2,0.2,0.2C161.7,132,161.7,131.9,161.5,131.8z"/>
					<path class="st1" d="M201.5,61.6c-1.1-2.4-4-2.1-6.3-2.4c-5.1-0.6-10.5-0.5-15.6,0.4c-6.2,1.1-11.7,3.4-17.6,5.3
						c-5.9,2-10.7,5.3-16.3,7.9c-5.9,2.8-12.1,5-17.5,8.6c-1.9,1.3-4.5,2.4-5.4,4.6c-1.2,3,3.4,3.9,4.8,5.1c1.8,1.6,0.3,5.5-0.2,7.3
						c-0.2,0.9-0.5,1.8-0.7,2.6c-0.2,0.8-0.6,1.5-0.7,2.3c-0.3,1.4-2,2-3.3,2.2c-0.6,0.1-1.3,0.3-1.9,0.6c-0.6,0.3-0.8,0.9-0.9,1.5
						c-0.1,0.9-0.2,1.8,0.2,2.6c0.4,0.9,0.9,1.9,1.3,2.8c0.7,1.3,1.7,3,3,4c-1.6-2.9-1.1-4.3-0.5-5.8c-0.1,0.2,0.7,0.4,0.9,0.4
						c0.8,0,1.3-0.6,1.9-1c0.4-0.2,1-0.8,1.1-0.8c0.8-0.5,1.1-1.5,1.7-2.1c0.7-0.7,1.2-1.8,1.7-2.7c1.8-3.3,1.5,1.6,2.9,2.6
						c-0.1-0.5,0-1,0.5-1.2c-0.3,0.1,0.4,2.1,0.5,2.3c0.7-0.2,3-1.1,2.6,0.8c0.4,0.5,0.9,1.5,1.8,1.3c0.6-0.1,0.1-0.1,0.7-0.1
						c0.9,0,0.3-0.3,0.7,0.3c1.2,1.8,3,5.9,4.7,8.3c-0.5-0.8-1.7-1.3-2.1-1.8c-1.2-1.3,0.3,1.3,0.7,1.8c0.5,0.8,2.2,2.3,2.4,3.3
						c0.9,3,3.5,2.5,5.4,3.3c-1.2-0.5-3.9,1.3-4.9,2c-0.6,0.4-2.7-0.1-2.7,0.5c0,0.3,2.3,1.3,1.9,2c-0.4,0.8-1.5,1.1-3.5-0.4
						c-0.7-0.5,0.4,2.3-0.1,2.7c-0.6,0.6-1,0.5-1.5,0.3c-0.6-0.2-0.9-0.2-1.3-0.4c-0.6-0.2-0.8,0-0.7,0c-1,0.9-2.5,5.6-3.8,7.8
						c-0.9,1.6-4.1,6.2-3.3,7.2c2.6,3,7.6,2.6,8.2,3.3c-5.2-6.6-2.5-10.2-1.3-10.6c1.1-0.4,3.6,0.2,3.9-1.3c0.3,1.3,1.3,1,1.1,2.4
						c2.6,0.2,3.5-2.1,5.8-1c0.9,0.5-0.3,7.8-1.3,8.8c0.7,1.1,1.6,1.2,1.6,3.4c-0.1,1.8,0.4,3.7,0.7,4.7c0.3,1.2,0.8,2.4,1.8,3.6
						c1,1.3,1.4,1.4,1.8,1.8c0.3,0.2,1.2,0.7,1.4,0.9c0.1,0.1,1.2,0.6,1.2,0.5c0.1-0.3-1-1.4-1.2-1.6c-0.7-1-0.8-0.8-1.3-2
						c-0.6-1.3-1-2.2-1.2-4c-0.1-1.3,0-2.7,0.1-4c0.1-2.6,0-5.6,2.1-7.5c0.7,0.7,0.5,2.8,0.6,3.8c0,0.5,0.2,2.3,0.3,2.8
						c0.5,2,1.1,4.4,2.8,7.6c2.1,3.8,3.8,5.4,5.7,6.8c2.2,1.6,4,2.6,5.8,3.4c1.8,0.8,3.2,0.9,3.1,0.9c-0.6-0.4-5.2-3.4-7.3-5.4
						c-2.2-2.2-4.2-5.4-5.4-8.2c-1.3-3.1-1.5-4.3-1.9-6.5c-0.5-2.9-0.4-5.1-0.2-5.9c-0.1,0.2,0.2-1.1,0.5-1.9c0.2-0.4,0.4-1.4,0.8-2
						c0.2-0.3,0.5-1,0.8-0.9c0.5,0.2,2.3,0.4,3,0.6c1.2,0.3,2.7,0.9,2.6,0.7c-0.3-0.7-1-1.6-1.5-2.5c-1-1.6-1.6-3.3-1.9-3.7
						c-0.6-0.8-0.6-1.1-1.1-1.9c-0.4-0.6-0.5-0.8-0.7-1c0,0-0.5-0.5-0.8-1c-0.1-0.2-0.6-1-0.5-0.9c-0.2-0.2-0.4-0.7-0.6-1.1
						c-0.1-0.2-0.5-0.8-0.6-0.9v0.1c0-0.1,0-0.1,0-0.1c-0.1-0.2-0.4-0.7-0.6-0.9c0.2,0.3-0.6-1-0.7-1.2c0.6,1,2.5,1.3,3.5,1.5
						c1.6,0.3,3.2,0.7,4.9,0.7c1.4,0,2.3,0.1,3.7-0.4c0.7-0.3,2.7-1.1,3.3-2.2c0.5-0.9,0.8-1.7,1-2.7c0.1-0.4,0.1-0.8,0-1.1
						c0-0.3-0.4-0.9-0.4-1.2s0.4-0.7,0.6-0.8c0.4-0.2,0.4-0.6,0.8-0.8c0.4-0.2,0.7-0.5,1-0.9c0.3-0.3,0.4-0.6,0.6-1
						c0.3-0.6,0.6-1.7,0.4-2.4c-0.2-0.4-0.1-0.3-0.5-0.5c-0.2-0.1-0.5,0-0.6-0.1c0,0.5,0.3,0.8,0.3,1.3c0.1,0.8,0,1.6-0.6,2.2
						c-0.2,0.2-0.5,0.2-0.7,0.4c-0.4,0.2-0.7,0.4-1.1,0.6c-0.7,0.4-0.8,1.1-0.8,1.9c0,0.4,0,0.8,0,1.2c0,0.3,0.1,0.6,0.1,0.9
						c0,1-0.9,2.6-1.8,3.4c-0.9,0.7-2,1.1-4.2,1.3c-4.2,0.3-6.8-1.3-8.8-1.8c-1.8-0.5-4.1-2.9-5-4.7c-0.3-0.7-0.8-1.2-1.3-1.8
						s-1-1.4-1.6-1.8c-1.5-0.9-0.7-0.4-2.7-2.4c-1.7-1.6-1.7-3.5-2.4-5.8c-0.8-2.5,0.3-3.6,0.2-5.6c-0.1-3.4,0.2-3.2-2.5-5.3
						c-3.8-2.9-7.1-6.4-6.4-11.6c0.8-6.3,7.5-6.2,11.8-3.4c0.9,0.5,1.4,1.5,1.9,2.3c0.2,0.4,0.5,0.6,0.8,0.9
						c0.2,0.3,0.3,0.7,0.7,0.9c0.3,0.2,0.6,0.3,0.9,0.5c0.6,0.3,1.1,0.5,1.7,0.7c-0.4,0.5-1,0.6-0.1,0.8c-0.2,0.3-1.1,0.3-1.1,0.6
						c0,0.1,0.3,0.4,0.3,0.5c0.2,0.2,0.4,0.3,0.8,0.4c-0.3,0.1-0.7,0.3-0.8,0.6c0.7,0.3,1.6,0.2,2.2-0.2c0.5-0.3,1.2-0.8,1.3-1.4
						c-0.2-0.1-0.5-0.1-0.7-0.1c0.1-0.3,0.7-0.7,1-0.9c0.6-0.3,1.2-0.7,1.9-1c-1,0-1.8,0.2-2.8,0.2c0.3-0.3,0.9-0.5,1.2-0.8
						c0.6-0.4,1.1-0.7,1.7-1.1c0.5-0.3,0.9-0.7,1.4-0.9c0.5-0.3,1.3-0.6,1.7-1c-0.5-0.1-1.6-0.1-1.9-0.4c0.8-0.3,1.6-0.4,2.5-0.6
						c0.6-0.1,1.3-0.3,1.8-0.5c0.4-0.2,1.2-0.8,1.4-1.2c-0.9,0-4.3,0.7-4.9-0.3c0.4-0.2,0.9-0.4,1.3-0.6c0.6-0.2,1.1-0.5,1.7-0.7
						c0.6-0.3,1.2-0.7,1.8-1c0.5-0.4,0.9-0.8,1.3-1.3c-0.9,0.9-2.9,1.2-4.1,1.2c0.7,0,1-1,1.3-1.4c0.4-0.6,1.3-0.9,1.8-1.4
						c0.6-0.6,1.1-1.4,1.7-2c0.6-0.6,1.2-1.1,1.6-1.9c0.4-0.7,0.9-1.6,1.6-2c0.7-0.4,1.9-0.7,2.7-0.6c0.4,0.1,0.9,0.3,1.3,0.4
						c1.1,0.2,2.6,0.7,3.7,0.3c-0.7,0.2-5.8-2.1-6-3.4c1.6,1.7,5.3,2.7,7.5,3.1c-1-0.2-3.5-2.5-4.9-3.7c2.5,2,8.7,4.4,9.1,4.6
						c-3-1.5-5.7-3.6-5.9-3.6c-0.4-0.1,2.2,0.1,7.7,3.3c-1-1.1-2.8-3.3-3.6-4.3c1.3,0.5,2-0.1,3.9,2.3c0.3-1.2-1.6-3-2.3-3.7
						c0.3,0.2,4.2,1.8,4.9,4.5c0.3,1.3,1.1,2.5,0.7,3.4l0.4-0.9c2.1-2.1,5.9-3,8.7-4.9C200.9,65.4,202.2,63,201.5,61.6z"/>
				</g>
				<path class="st1" d="M188.3,91.5"/>
				<path class="st1" d="M138.5,84c0.3-0.5,1.4-0.8,1.6-0.9c0.9-0.4,2-0.3,2.9-0.3c2.6,0.1,0.1,1.1,0.2,2.2c0.6,0.1,5-1.3,4.1,1
					c-0.2,0.5-2.9,0.8-3.3,1c-1.7,0.4-2.6,1.6-3.4,3c-0.7,1.2,2.3,2.1,2.9,2.3c1.2,0.4,1.3,1.7,2.2,2.4c1.8,1.3,1.4-1.8,1.4-2.6
					c-0.1-3.9-2.7-0.6-5.2-1.5c-2.8-0.9,4.3-3,4.5-3c1.1-0.3,1.7-0.8,1.9-2.1c0.1-0.9-1.2-2.1-2-2c-1.7,0-1.9-2.2-6-0.9
					C139.1,82.9,138.6,83.5,138.5,84"/>
				<path class="st1" d="M139.6,91.4c0.5,0.8,0.9,1.4,1.6,2.2c0.6,0.7,1.4,1.3,2.1,1.8c0.7,0.4,1.4,0.9,2.2,1.2
					c0.6,0.2,1.2,0.2,1.8,0.1c0.4,0,0.9-0.1,1.2,0.2c0.3,0.4,0,1-0.3,1.2c-0.9,0.6-2.3-0.2-3.1-0.6c-1-0.6-1.9-1.3-2.7-2.1
					c-1.3-1.1-2.6-2.3-3.6-3.8c-0.8-1.2-1.2-2.4-1.3-3.9c0-0.4-0.2-2.6,0.6-2.5c0.1,1.1-0.1,2.2,0.2,3.3S139,90.5,139.6,91.4
					C139.8,91.7,139.5,91.2,139.6,91.4"/>
				<path class="st1" d="M121.2,105.1c-7.2-2-11.5,9.3-10.2,13c-2.1,0.9-7.1,5.3-7.5,5.5c-0.1,0-0.1,0-0.1,0.1s0,0.1,0,0.2
					s-0.1,0.8-0.1,0.9c0.1,0.1,0.3-0.1,0.3-0.1c0.1-0.1,3.6-2.7,4.3-3.4c0.8-0.6,2.7-2.2,4.6-2.6
					C109.8,113.7,116.5,104.5,121.2,105.1z"/>
				<path class="st1" d="M119.2,79.3c0.9-0.3,27.9-10.2,27.9-10.2l10.3-3.3c0,0,10.9-4.1,12.6-4.6c-1.6,0.5-13.2,4-18,4.3h-0.6
					l-3.1-0.8l0.3-1.2l-2.4-0.9l-2.7-0.9l-0.3,0.6l-2.9-1l-1.1-0.4l0.3-0.8L137,59l0.3-0.8l-3.6-1l-1.6-0.7l0.7-2.2l-1-0.6l0.6-1.8
					c2.3-1.8,8-6.8,7.3-6.3c-5.8,3.9-11,5.9-16.1,10.8c-2.2,2.2-2.2,5.1-1.4,8.3c0.1,0.7,0.2,1.3,0.4,1.8c0.1,0.3,0.4,1,0.7,1.7
					c0.6,1.7,1.3,3.4,1.7,4.9c-0.1,0-0.3,0.1-0.4,0.1c-4.9,1.5-12,2.9-11.4,9.5c0.4,3.9,6.7,7.7,10.3,8c-4.1-1.8-2.5-6.5-1.2-7.5
					c5.1-4.1,10.2-6.1,12.8-7.2c-2.2,0-10.2,4.3-12.1,5.4c-3.6,2.1-3.6,4.7-2.9,6.9c-1.2-0.6-2.5-1.8-2.9-2.3
					C113.8,81.7,118.4,79.7,119.2,79.3z"/>
				<path d="M133.6,53.5c-0.2,0-2.3-0.7-2.8-0.9c-0.2-0.1-0.4-0.1-0.6-0.2c0,0.1-0.4,0.1-0.4,0.2c1.1,0.4,2.5,0.8,3.6,1.2
					C133.4,53.7,133.5,53.6,133.6,53.5"/>
				<path class="st2" d="M132.9,56.5c0.1-0.5,1-2.3,1.2-2.8c-0.1,0-0.3,0-0.4,0c-0.2,0.5-1.1,2.2-1.3,2.7c0.1,0,0.1,0,0.2,0"/>
				<path d="M127.5,71.6L127.5,71.6L127.5,71.6L127.5,71.6"/>
				<path class="st1" d="M135.6,132.3c-0.6,1.8-1.5,3.6-2.5,5.2c-0.8,1.3-1.5,2.5-2.3,3.8s-4.5,4.5-4.5,4.6c0-0.1-0.8-1.2-0.7-1.3
					c0.4-0.4,4.6-5.8,6-8.1c0.6-1,1.7-2.2,2.2-3.3c0.4-1,0.8-1.5,0.9-2.5c-0.1,0-1-0.5-1.1-0.5c-0.7,2-1.6,3.4-2.7,5.3
					c-1.2,2-5.7,7.7-5.8,7.8c-0.1-0.3-0.9-2.1-0.9-2.3c0,0,0-0.1-0.1-0.1c0,0-0.1,0-0.1,0.1c-0.1,0-0.8,0.4-1,0.4
					c0,0.4,2.5,6.2,2.6,6.2s4.6-3.1,6.3-5.6c2.4-3.3,3.3-7,5.5-10.3c0.7-1,2.6,0.6,3.6,0.8c0.6,0.1,0.8-0.1,0.8-0.7
					c0.1-0.8-0.5-0.7-1.1-0.9c-0.3-0.1-1.2-0.5-1.6-0.4c-0.5,0.2-1.6-1.2-1.8-1.5c-0.6-0.6-0.8-0.8-1.3-1.5s-1.3-1.3-1.8-1.9
					c-0.7-0.7-1.5-1.3-2.1-2.1c-0.9-1-1.8-2-2.7-3c-0.4-0.5-1.9-1.4-2.5-1c-0.5,1.3,1.7,2.4,2.3,3.3c0.5,0.7,2.7,2.8,3.2,3.3
					c0.6,0.7,1.2,1.3,1.8,2c0.3,0.3,0.5,0.5,0.8,0.8c0.4,0.4,0.7,1.1,0.9,1.6C136,130.8,135.6,132.1,135.6,132.3z"/>
				<path class="st1" d="M184,91.2c0.1-0.2,0.2-0.4,0.4-0.6c0.2-0.4,0.4-0.8,0.4-1.3c0.1-0.8-1.2-1.6-2.4-2c-1.7-0.6-4-0.8-4-0.8
					s2.4,1.1,3.5,1.4c0.6,0.2,1.3,0.5,1.8,1c0.2,0.2,0.4,0.4,0.3,0.7c-0.1,0.3-0.2,0.6-0.4,0.9s-0.4,0.7-0.8,0.9
					c-0.2,0.1-0.3,0.2-0.5,0.3c-0.3,0.2-0.6,0.1-1,0.2c-0.3,0.1-0.7,0.2-1,0.2c-1-0.1-2.7,0-3.8,0.3c-1.3,0.3-2.9,1.4-3.6,1.2
					c-0.4-0.1-0.3-0.4-1.3-0.5c0.3,0,0.6,0.4,0.7,0.6c0.2,0.2,0.2,0.2,0.4,0.3c0.2,0.1,0.4,0.1,0.7,0.1c0.1,0,0.5,0,0.5-0.1
					c0.3-0.1,0.7-0.1,1-0.1c0.1,0,0.5-0.1,0.6-0.1c0.6-0.2,1.3-0.2,2-0.2c0.3,0,0.6,0,1,0c0.1,0,0.2,0,0.4,0c0.1,0,0.3-0.1,0.4-0.1
					c0.1,0,0.1,0,0.2,0c0.1,0,0.1,0.5,0.1,0.6c0,0.2,0,0.4-0.2,0.7c-0.1,0.2-0.4,0.8-1.2,1c0,0.2,0.7,0,1-0.2c0.4-0.3,0.6-1,1-1.2
					c0.2-0.1,0.3-0.2,0.5-0.2c0.1,0,0.2,0,0.3-0.1c0.3-0.2,0.5-0.5,0.7-0.7c0.3-0.3,0.6-0.5,0.9-0.8c0.2-0.1,0.4-0.3,0.5-0.4
					s0.2-0.2,0.4-0.4C183.7,91.6,183.9,91.4,184,91.2z"/>
				<path d="M179.4,94.2c-0.3,0.8-0.9,1.3-1.5,1.1c-0.6-0.2-0.8-1-0.5-1.8s0.8-0.9,1.4-0.7C179.4,92.9,179.7,93.4,179.4,94.2z"/>
			</g>
			<path class="st1" d="M176.8,95.8c-0.2-0.2-1.5-0.5-1.9-0.7c-0.2-0.1-1.4-0.5-1.5-0.3c-0.1,0.1-0.7,0.1-0.7,0.2
				c0.3,0.2,0.8,0.1,1.1,0.2s0.6,0.1,0.9,0.3c0.3,0.2,0.4,0.1,0.8,0.2c1,0.3,0.7,0.3,0.7,0.2"/>
			<path class="st1" d="M188.4,91.9c-1.2,0.7-1.5,0.2-2.1,0.5c-0.4,0.2-0.3,0.4-0.6,0.8s-0.7,0.4-1.1,0.3c-0.3-0.1-1.2-0.3-1.3-0.6
				c-0.1-0.3,0.2-0.3,0.3-0.2c0.3,0.1,0.5,0.1,0.8,0.1c0.9,0.2,1.1-0.6,1.9-1c0.6-0.3,0.6-0.9,0.3-1.4c-0.4-0.6-1-0.7-1.6-1.2
				c0.8-0.1,1.4,0.4,2.1,0.6c0.3,0.1,0.9,0.4,1.2,0.2l0.5-1.1c0-0.9-0.1-4.6-0.2-5.5c-0.1-1.5-0.3-7.4,0.2-9.3
				c0.1-0.3,1-1.8,1.4-1.9c-0.1,0.9-0.9,1.4-0.9,3.5c0,1.8,0.1,3.9,0.1,5.7c0,1.5,0.1,2.9,0.1,4.3C189.5,86,189.7,91.2,188.4,91.9z"
				/>
			<g>
				<path d="M186.7,104.5c-0.1-0.9-0.4-2.1-0.6-3.1c-0.2-1.4-0.7-3-1.1-4.4c-0.1-0.4-0.2-1.5-0.3-1.8c0,0.3,0.1,1.7,0.1,2
					c0.2,1.1,0.3,2,0.5,3.1c0.2,1.2,0.3,2.6,0.5,3.6c0.1,1,0.2,1.3,0.4,2.6c0.1,0.7-0.9,1.4-1.2,1.7c-0.3,0.3-1.2,0.6-2.1,0.6
					c-0.5,0-1.4,0-1.8-0.3c-0.3-0.2-0.3-0.7-0.5-0.9c-0.2-0.3-0.6-0.6-0.9-0.7c-0.7-0.4-1.4-0.3-2.2-0.3c-0.7,0-1.6,0.4-2.2-0.1
					c-0.3-0.2-0.4-0.9-0.4-1.3c0-0.5,0.4-0.7,0.6-1c0.3-0.5,0.6-0.9,1-1.2c0.3-0.2,0.6-0.5,0.9-0.5c0.3,0,0.5,0.1,0.7,0.2
					c0.5,0.1,0.3-0.5,0-0.6c-0.3-0.2-0.3-0.1-0.7,0c-0.7,0.2-1.7,0.8-2.1,1.3c-0.2,0.2-0.9,1.2-1.2,1.5s-0.5,0.5-0.7,0.8
					c-0.9,1-2.1,1.9-3.1,2.8c-1.8,1.4-2.4,2.9-3.2,4.9c0.6-0.4,1.2-1.6,1.6-2.2c0.8-1.2,1.6-1.8,2.5-2.7c0.9-0.9,1.9-1.5,2.6-2.5
					l0,0l0,0c0.1-0.2,0.4-0.6,0.5-0.2c0.1,0.3,0.1,0.6,0.2,0.9c0.1,0.3,0.3,0.6,0.5,0.8c0.2,0.1,0.6,0.2,0.8,0.3
					c0.7,0.2,1.5,0.1,2.2,0.2c0.4,0.1,1.2,0.2,1.3,0.7s-0.4,1.1-0.5,1.6c-0.1,0.4-0.3,1-0.2,1.5c0.1,0.3,0.2,0.9-0.2,1.2
					c-0.3,0.2-0.7,0.3-1.1,0.4c-0.5,0.1-0.6,0.1-1.1,0.1c-0.9,0.1-1.2,0.1-2.5,0.2c-0.9,0-1.4-0.3-2.4-0.1c-0.6,0.1-0.5,0-1.3,0.3
					l-0.8,0.5c-0.4,0.3-0.8,0.6-1,1.3c0.4-0.5,0.8-0.7,1-0.9c1.5-0.9,2.8-0.7,3.1-0.6c0.6,0.2,0.9,0.2,1.5,0.5
					c1.2,0.7,2.8,0.6,3.9-0.2c0.4-0.2,0.8-0.5,1.1-0.8c0.3-0.4,0.4-1.5,0.4-2s0.2-0.4,0.3-0.9c0.1-0.4,0-1.1,0.4-1.3
					c0.2-0.2,0.6,0,0.6,0c0.2-0.2,0.7,0.4,1.1,0.4c0.5,0,1.3,0.2,1.8,0c0.8-0.2,1.4-0.3,2-0.9c0.5-0.4,1.1-0.7,1.2-1.7
					C186.9,106.1,186.8,104.9,186.7,104.5z"/>
			</g>
		</g>
		<path class="st1" d="M175.8,118.5c0,0-0.8,0-2.1,0c-1.4,0-2.4-0.9-2.4-0.9v1.2c0,0,1.4,0.3,1.1,0.9c-0.3,0.6-1.2,0.6-1.7,0.3
			s-1.1-1.5-1.1-1.5l-0.6,0.6h-1.4l1.5,0.6c0,0,0.8,0.2,0.6,0.9c-0.2,0.8-0.6,0.9-0.8,1.4c0.6-0.4,0.6-1.1,2.1-1.1s2.4,0.3,2.4,0.3"
			/>
		<path d="M171.9,114.6c0,0,1.1,0.6,1.9,1.2c0.8,0.7,1.7,0.8,1.7,0.8s-0.2-0.8-1.6-1.2"/>
		<path class="st1" d="M118.3,130.9c0.4-0.2,3.6,6.5,5.3,8.9c-0.2,0.1-0.5,0.9-0.8,0.7C121.5,139.5,119.4,133.3,118.3,130.9"/>
		<path class="st1" d="M112.7,120.3c-0.1,0.9,0.7,1.8,0.9,2.6c0.2,1,0.1,1.9,0.6,2.8c0.9,1.5,2.8,3.1,3.3,4.9
			c-0.1-2.4-1.2-3.1-2.3-5.1C114.4,124,114.3,120.9,112.7,120.3L112.7,120.3"/>
		<path class="st1" d="M116,126.9c0.1,0.1,0.1,0.3,0.2,0.4c0,0.3-0.6-0.3-0.8-0.2c-0.4,0.3-0.3,0.6-0.6,0.9
			c-0.2,0.2-9.6,9.6-9.7,9.6c-0.1-0.5-0.8-0.5-1.4-0.6c0-0.5,10.5-11.2,10.8-11.5c0.4-0.3,0.6-0.1,0.9,0.2
			C115.5,126.2,115.7,126.6,116,126.9z"/>
		<g>
			<path class="st1" d="M172.9,92.5c0,0,0.8-1.3,1.8-1.7c1.1-0.4,3.8-0.3,3.8-0.3s-2.4,0.2-3.4,0.6S172.9,92.5,172.9,92.5z"/>
		</g>
	</g>
	<g>
		<path d="M154.1,56.8c0.1,0,0.2,0.1,0.3,0.1c0.2,0.1,0.5,0.2,0.8,0.3c0.2,0.1,0.3,0.1,0.5,0.2l0,0c0.1,0,0.1,0,0.2,0
			c0.1,0,0.1-0.1,0.2-0.1h0.6l-0.6-0.2c-0.4-0.2-0.8-0.3-1.2-0.5c-0.4-0.1-0.7-0.3-1.1-0.4l-0.1-0.1v0.2c0,0,0,0,0,0
			c0,0-0.1,0.1-0.1,0.2v0.1l0.1,0C153.9,56.6,154,56.7,154.1,56.8z"/>
		<path d="M158.5,59l-0.1,0v0.1c0,0,0,0,0,0c0,0-0.1,0.1-0.1,0.2v0.1l0.1,0c0.3,0.1,0.5,0.2,0.8,0.3c0.2,0.1,0.5,0.1,0.7,0.2l0.1,0
			l0.2-0.2l-0.1-0.1C159.5,59.3,159,59.1,158.5,59z"/>
		<path d="M156.3,60.6c-0.3-0.1-0.6-0.3-0.9-0.4l-0.4-0.1l0.7-1.6l-3.9-1.3l0,0c-0.2,0-0.3,0.2-0.3,0.3l-0.1,0.1l3.5,1.3l-0.8,1.7
			l0.6,0.2l0.3-0.6l0.3,0.3c0,0,0,0.1,0.1,0.1c0,0.1,0.1,0.2,0.2,0.2c0.4,0.2,0.9,0.4,1.3,0.5c0.1,0,0.3-0.1,0.3-0.1l0.1-0.1
			l-0.2-0.1C156.8,60.8,156.6,60.7,156.3,60.6z"/>
		<path d="M167.4,53.3L167.4,53.3l-0.2,0c-0.1,0-0.3-0.1-0.4-0.1l-0.1,0.2c0.1,0,0.2,0.1,0.3,0.1c0,0.1-0.1,0.1-0.1,0.2
			c-0.1,0.3-0.3,0.7-0.4,1.1c0,0-0.1,0.1,0,0.2c0,0.1,0.1,0.1,0.2,0.1h0.1l0-0.1c0.1-0.3,0.2-0.5,0.3-0.8c0.1-0.2,0.1-0.4,0.2-0.6
			c0.2,0.1,0.4,0.1,0.6,0.2c0.4,0.1,0.8,0.2,1.2,0.4l0.1,0.1v-0.2c0,0,0,0,0,0c0,0,0.1-0.1,0.1-0.2v-0.1l-0.1,0
			C168.8,53.7,168.1,53.5,167.4,53.3z"/>
		<path d="M159.1,58.6L159.1,58.6l0.1-0.1c0.2-0.5,0.3-1,0.4-1.5l0-0.1h-0.2l-0.1,0l0,0.1c-0.2,0.5-0.4,1-0.5,1.4l0,0.1l0,0
			C159,58.6,159.1,58.6,159.1,58.6z"/>
		<path d="M161.2,60L161.2,60c-0.2,0.6-0.4,1.1-0.5,1.5l0,0.1h0.4l0-0.1c0.1-0.2,0.2-0.4,0.2-0.6c0.1-0.3,0.2-0.5,0.3-0.7l0.1-0.2
			L161.2,60L161.2,60z"/>
		<path d="M159.5,60.6c-0.1,0.3-0.2,0.5-0.3,0.7c-0.1,0.2-0.1,0.4-0.2,0.7l0,0c0,0.2,0.2,0.2,0.3,0.2h0.1l0-0.1
			c0.1-0.5,0.3-1,0.5-1.5l0.1-0.1L159.5,60.6L159.5,60.6z"/>
		<path d="M165.5,52c0,0.1-0.1,0.2-0.1,0.3c-0.2,0.4-0.3,0.7-0.4,1.1c0,0.2,0.2,0.2,0.3,0.2h0.1l0-0.1c0-0.2,0.1-0.5,0.2-0.7
			c0.1-0.2,0.2-0.5,0.2-0.8l0-0.1L165.5,52L165.5,52z"/>
		<path d="M177.5,56.4L177.5,56.4c-0.1,0.2-0.1,0.3-0.2,0.4c-0.2,0.4-0.3,0.7-0.4,1.1l0,0.1l0,0c0.1,0.1,0.1,0.1,0.3,0.1h0.1l0-0.1
			c0.2-0.5,0.3-1,0.4-1.5l0-0.1H177.5z"/>
		<path d="M167,51.6L167,51.6l0.1-0.1c0.1-0.5,0.3-1,0.5-1.5l0.1-0.1h-0.3l0,0.1c0,0.1-0.1,0.2-0.1,0.3c-0.1,0.4-0.3,0.7-0.4,1.1
			C166.8,51.5,166.9,51.6,167,51.6z"/>
	</g>
	<g>
		<path class="st3" d="M121.4,211.4c4.8,1,8.1,2.3,10,3.7c2.8,2.1,4.1,4.8,4.1,8.1c0,3.5-1.5,6.4-4.5,8.7c-3.7,2.8-9.1,4.1-16.2,4.1
			H89.3v-1.3c2.3,0,3.9-0.2,4.7-0.6c0.8-0.4,1.4-0.9,1.7-1.6c0.3-0.6,0.5-2.2,0.5-4.7v-30.1c0-2.5-0.2-4.1-0.5-4.7
			c-0.3-0.7-0.9-1.2-1.8-1.6c-0.8-0.4-2.4-0.6-4.7-0.6v-1.3h24c5.7,0,9.8,0.5,12.2,1.4c2.4,0.9,4.3,2.4,5.7,4.2
			c1.4,1.9,2.1,3.9,2.1,6c0,2.2-0.9,4.2-2.6,6C128.9,209,125.8,210.4,121.4,211.4z M107.9,213.1V228v1.7c0,1.2,0.3,2.2,1,2.8
			s1.7,0.9,3,0.9c2,0,3.8-0.4,5.5-1.2s2.9-2,3.8-3.5s1.3-3.3,1.3-5.2c0-2.2-0.5-4.1-1.6-5.8s-2.6-2.9-4.5-3.6
			C114.5,213.4,111.7,213.1,107.9,213.1z M107.9,210.5c3.5,0,6.1-0.4,7.7-1.1c1.7-0.7,2.9-1.8,3.8-3.1s1.3-3,1.3-5.1s-0.4-3.7-1.3-5
			s-2.1-2.3-3.8-3c-1.6-0.7-4.2-1-7.8-1v18.3L107.9,210.5L107.9,210.5z"/>
		<path class="st3" d="M170.5,234.7v1.3h-26.2v-1.3h1.7c1.5,0,2.6-0.2,3.5-0.7c0.6-0.3,1.1-0.9,1.5-1.6c0.3-0.5,0.4-2,0.4-4.3v-30.5
			c0-2.4-0.1-3.9-0.4-4.4c-0.3-0.6-0.8-1.1-1.6-1.6c-0.8-0.4-1.9-0.7-3.3-0.7h-1.7v-1.3h26.2v1.3h-1.7c-1.5,0-2.6,0.2-3.5,0.7
			c-0.6,0.3-1.1,0.9-1.5,1.6c-0.3,0.5-0.4,2-0.4,4.3V228c0,2.4,0.1,3.9,0.4,4.4c0.3,0.6,0.8,1.1,1.7,1.6c0.8,0.4,1.9,0.7,3.3,0.7
			H170.5z"/>
		<path class="st3" d="M212.3,188.5l0.4,15.5h-1.5c-0.7-3.9-2.5-7-5.3-9.4s-5.8-3.5-9.1-3.5c-2.5,0-4.5,0.6-6,1.9
			c-1.5,1.2-2.2,2.7-2.2,4.3c0,1,0.3,1.9,0.8,2.7c0.7,1.1,1.9,2.1,3.4,3.2c1.2,0.8,3.8,2.1,8,4c5.9,2.7,9.8,5.2,11.9,7.6
			c2,2.4,3,5.1,3,8.1c0,3.9-1.6,7.2-4.9,10c-3.3,2.8-7.4,4.2-12.4,4.2c-1.6,0-3.1-0.1-4.5-0.4c-1.4-0.3-3.2-0.9-5.3-1.7
			c-1.2-0.5-2.2-0.7-2.9-0.7c-0.6,0-1.3,0.2-2,0.7s-1.3,1.2-1.7,2.1h-1.4v-17.5h1.4c1.1,4.9,3.2,8.7,6.3,11.3s6.4,3.9,10,3.9
			c2.8,0,5-0.7,6.6-2.1s2.5-3,2.5-4.9c0-1.1-0.3-2.2-0.9-3.2c-0.6-1-1.6-2-2.9-2.9c-1.3-0.9-3.5-2.1-6.8-3.6
			c-4.6-2.1-7.8-3.8-9.8-5.3s-3.5-3.1-4.6-4.9c-1.1-1.8-1.6-3.8-1.6-6c0-3.7,1.5-6.8,4.4-9.4c2.9-2.6,6.6-3.9,11.1-3.9
			c1.6,0,3.2,0.2,4.7,0.5c1.2,0.3,2.6,0.8,4.2,1.5c1.7,0.7,2.8,1.1,3.5,1.1c0.6,0,1.1-0.2,1.5-0.5c0.4-0.4,0.7-1.2,1-2.6h1.1V188.5z
			"/>
		<path class="st3" d="M248.9,222.8h-17.7l-2.1,4.5c-0.7,1.5-1,2.7-1,3.7c0,1.3,0.6,2.3,1.7,2.9c0.7,0.4,2.3,0.6,4.9,0.8v1.3H218
			v-1.3c1.8-0.3,3.3-0.9,4.4-2.1c1.2-1.1,2.6-3.5,4.3-7l17.9-37h0.7l18.1,38.1c1.7,3.6,3.1,5.9,4.3,6.8c0.8,0.7,2,1.1,3.5,1.2v1.3
			h-24.3v-1.3h1c1.9,0,3.3-0.3,4.1-0.8c0.5-0.4,0.8-0.9,0.8-1.6c0-0.4-0.1-0.8-0.2-1.3c-0.1-0.2-0.4-1.1-1.1-2.6L248.9,222.8z
			 M247.6,220.2l-7.5-16l-7.7,16H247.6z"/>
	</g>
	<g>
		<path d="M351.1,194.6c1.7,0.4,2.9,0.9,3.6,1.4c1,0.8,1.5,1.9,1.5,3.1c0,1.4-0.5,2.5-1.6,3.4c-1.3,1.1-3.3,1.6-5.8,1.6h-9.1v-0.5
			c0.8,0,1.4-0.1,1.7-0.2c0.3-0.2,0.5-0.4,0.6-0.6c0.1-0.2,0.2-0.9,0.2-1.8v-11.7c0-1-0.1-1.6-0.2-1.8c-0.1-0.3-0.3-0.5-0.6-0.6
			c-0.3-0.2-0.9-0.2-1.7-0.2v-0.5h8.6c2.1,0,3.5,0.2,4.4,0.6c0.9,0.4,1.5,0.9,2,1.6c0.5,0.7,0.7,1.5,0.7,2.3c0,0.9-0.3,1.6-0.9,2.3
			C353.8,193.7,352.7,194.2,351.1,194.6z M346.3,195.3v5.8v0.7c0,0.5,0.1,0.8,0.4,1.1c0.2,0.2,0.6,0.4,1.1,0.4c0.7,0,1.4-0.2,2-0.5
			s1.1-0.8,1.4-1.4c0.3-0.6,0.5-1.3,0.5-2c0-0.8-0.2-1.6-0.6-2.3s-0.9-1.1-1.6-1.4C348.6,195.4,347.6,195.3,346.3,195.3z
			 M346.3,194.3c1.3,0,2.2-0.1,2.8-0.4c0.6-0.3,1.1-0.7,1.4-1.2s0.5-1.2,0.5-2s-0.2-1.4-0.5-2c-0.3-0.5-0.8-0.9-1.3-1.2
			c-0.6-0.3-1.5-0.4-2.8-0.4v7.2L346.3,194.3L346.3,194.3z"/>
		<path d="M364,191.4c1.1,0,2.1,0.3,3,0.8c0.9,0.6,1.6,1.3,2.1,2.4c0.5,1,0.7,2.2,0.7,3.4c0,1.8-0.4,3.2-1.3,4.4
			c-1.1,1.4-2.6,2.2-4.5,2.2s-3.3-0.7-4.3-2s-1.5-2.8-1.5-4.6s0.5-3.3,1.5-4.7C360.8,192.1,362.2,191.4,364,191.4z M364.1,192.3
			c-0.5,0-0.8,0.2-1.2,0.5c-0.3,0.3-0.5,1-0.6,2s-0.2,2.4-0.2,4.2c0,0.9,0.1,1.8,0.2,2.7c0.1,0.6,0.3,1.1,0.6,1.4
			c0.3,0.3,0.7,0.5,1.1,0.5s0.7-0.1,1-0.3c0.3-0.3,0.6-0.7,0.7-1.3c0.2-0.8,0.3-2.5,0.3-5.1c0-1.5-0.1-2.5-0.3-3.1
			c-0.2-0.6-0.4-1-0.7-1.2C364.8,192.4,364.5,192.3,364.1,192.3z"/>
		<path d="M377.1,191.8v2.8c0.8-1.3,1.5-2.1,2.2-2.6c0.6-0.4,1.2-0.6,1.8-0.6c0.5,0,0.9,0.2,1.2,0.5c0.3,0.3,0.4,0.7,0.4,1.3
			s-0.1,1.1-0.4,1.4c-0.3,0.3-0.6,0.5-1,0.5c-0.5,0-0.9-0.1-1.2-0.5c-0.3-0.3-0.5-0.5-0.6-0.5c-0.1-0.1-0.2-0.1-0.3-0.1
			c-0.3,0-0.5,0.1-0.7,0.3c-0.4,0.3-0.6,0.7-0.8,1.3c-0.3,0.9-0.4,1.8-0.4,2.8v2.9v0.7c0,0.5,0,0.8,0.1,1s0.3,0.4,0.5,0.5
			s0.6,0.2,1.1,0.2v0.5h-7v-0.5c0.5,0,0.9-0.2,1.1-0.4c0.2-0.3,0.3-0.9,0.3-2v-6.9c0-0.7,0-1.2-0.1-1.4s-0.2-0.4-0.4-0.5
			c-0.2-0.1-0.5-0.2-0.9-0.2v-0.5H377.1z"/>
		<path d="M389,186.2v15.4c0,0.9,0.1,1.4,0.3,1.7c0.2,0.2,0.6,0.4,1.2,0.4v0.5h-6.7v-0.5c0.5,0,1-0.2,1.2-0.5
			c0.2-0.2,0.3-0.7,0.3-1.6v-12.9c0-0.9-0.1-1.4-0.3-1.7c-0.2-0.2-0.6-0.4-1.2-0.4v-0.5h5.2V186.2z"/>
		<path d="M398.7,202.4c-1.5,1.3-2.9,2-4.1,2c-0.7,0-1.3-0.2-1.8-0.7s-0.7-1-0.7-1.7c0-0.9,0.4-1.8,1.2-2.6c0.8-0.8,2.6-1.8,5.3-3
			v-1.2c0-0.9-0.1-1.5-0.2-1.8c-0.1-0.2-0.3-0.5-0.6-0.6c-0.3-0.2-0.6-0.3-1-0.3c-0.6,0-1,0.1-1.4,0.4c-0.2,0.2-0.3,0.3-0.3,0.6
			c0,0.2,0.1,0.4,0.4,0.7c0.3,0.4,0.5,0.7,0.5,1.1c0,0.4-0.2,0.8-0.5,1.1s-0.7,0.5-1.3,0.5c-0.6,0-1-0.2-1.4-0.5s-0.6-0.7-0.6-1.2
			c0-0.6,0.3-1.2,0.8-1.8s1.2-1,2.1-1.3s1.8-0.5,2.8-0.5c1.2,0,2.1,0.2,2.8,0.7c0.7,0.5,1.1,1,1.3,1.6c0.1,0.4,0.2,1.2,0.2,2.6v4.8
			c0,0.6,0,0.9,0.1,1.1c0,0.1,0.1,0.3,0.2,0.3c0.1,0.1,0.2,0.1,0.3,0.1c0.2,0,0.5-0.2,0.7-0.5l0.4,0.3c-0.4,0.7-0.9,1.1-1.4,1.4
			c-0.5,0.3-1,0.4-1.6,0.4c-0.7,0-1.3-0.2-1.7-0.5C399,203.5,398.7,203,398.7,202.4z M398.7,201.4v-4.2c-1.1,0.6-1.9,1.3-2.4,2
			c-0.3,0.5-0.5,1-0.5,1.4s0.1,0.8,0.4,1.1c0.2,0.2,0.5,0.4,0.9,0.4C397.6,202.1,398.1,201.9,398.7,201.4z"/>
		<path d="M417.5,191.8v9.7c0,0.9,0.1,1.5,0.3,1.8c0.2,0.2,0.5,0.4,1.1,0.4v0.5h-5.1v-1.7c-0.6,0.7-1.2,1.2-1.8,1.5
			c-0.6,0.3-1.3,0.5-2,0.5s-1.3-0.2-1.9-0.6c-0.5-0.4-0.9-0.9-1.1-1.5s-0.3-1.6-0.3-3v-4.9c0-0.9-0.1-1.5-0.3-1.8
			c-0.2-0.2-0.5-0.4-1.1-0.5v-0.5h5.1v8.5c0,0.9,0,1.5,0.1,1.7c0.1,0.3,0.2,0.5,0.4,0.6c0.2,0.1,0.4,0.2,0.6,0.2
			c0.3,0,0.6-0.1,0.9-0.3c0.4-0.2,0.8-0.7,1.3-1.4v-6.6c0-0.9-0.1-1.5-0.3-1.8c-0.2-0.2-0.5-0.4-1.1-0.5v-0.5h5.2L417.5,191.8
			L417.5,191.8z"/>
		<path d="M428.8,191.9h4.2v1.5h-2.4c0.4,0.4,0.7,0.8,0.9,1.2c0.2,0.5,0.3,1,0.3,1.5c0,0.9-0.2,1.7-0.7,2.3c-0.5,0.7-1.2,1.2-2,1.5
			c-0.8,0.4-1.6,0.6-2.3,0.6c-0.1,0-0.6,0-1.6-0.1c-0.4,0-0.7,0.1-1,0.4s-0.4,0.6-0.4,0.9c0,0.3,0.1,0.6,0.4,0.8
			c0.2,0.2,0.6,0.3,1.2,0.3h2.3c1.9,0,3.1,0.2,3.8,0.6c1,0.6,1.5,1.4,1.5,2.6c0,0.8-0.2,1.4-0.7,2.1c-0.5,0.6-1.1,1.1-1.8,1.4
			c-1.1,0.4-2.5,0.7-3.9,0.7c-1.1,0-2.1-0.1-3.1-0.3c-0.9-0.2-1.6-0.5-2-0.9s-0.6-0.8-0.6-1.2s0.2-0.8,0.5-1.1s0.9-0.6,1.7-0.8
			c-1.2-0.6-1.7-1.4-1.7-2.4c0-0.6,0.2-1.2,0.7-1.8s1.2-1.1,2.2-1.5c-1.2-0.4-2-1-2.6-1.7c-0.5-0.7-0.8-1.5-0.8-2.5
			c0-1.2,0.5-2.3,1.5-3.2s2.3-1.3,3.8-1.3C427,191.4,427.9,191.6,428.8,191.9z M425.7,206c-0.9,0-1.5,0.1-1.8,0.2
			c-0.5,0.3-0.8,0.6-0.8,1.1s0.3,0.9,0.8,1.2c0.5,0.4,1.5,0.6,2.9,0.6c1.2,0,2.2-0.2,2.9-0.5c0.7-0.3,1.1-0.8,1.1-1.4
			c0-0.2-0.1-0.4-0.2-0.6c-0.2-0.3-0.6-0.4-1.1-0.5C429.1,206.1,427.8,206,425.7,206z M426.5,192.2c-0.5,0-0.9,0.3-1.3,0.8
			s-0.5,1.6-0.5,3.2c0,1.3,0.2,2.2,0.5,2.7s0.8,0.7,1.2,0.7c0.5,0,1-0.2,1.3-0.7c0.4-0.5,0.5-1.4,0.5-2.8c0-1.6-0.2-2.7-0.6-3.2
			C427.4,192.4,427,192.2,426.5,192.2z"/>
		<path d="M450.5,203.7v0.5h-9.4v-0.5h0.6c0.5,0,0.9-0.1,1.3-0.3c0.2-0.1,0.4-0.3,0.5-0.6c0.1-0.2,0.1-0.8,0.1-1.7v-11.8
			c0-0.9,0-1.5-0.1-1.7s-0.3-0.4-0.6-0.6c-0.3-0.2-0.7-0.3-1.2-0.3h-0.6v-0.5h9.4v0.5h-0.6c-0.5,0-0.9,0.1-1.3,0.3
			c-0.2,0.1-0.4,0.3-0.5,0.6c-0.1,0.2-0.1,0.8-0.1,1.7v11.8c0,0.9,0.1,1.5,0.2,1.7s0.3,0.4,0.6,0.6c0.3,0.2,0.7,0.3,1.2,0.3H450.5z"
			/>
		<path d="M457.3,191.8v1.6c0.6-0.7,1.2-1.2,1.8-1.5c0.6-0.3,1.2-0.5,1.9-0.5c0.8,0,1.5,0.2,2,0.7c0.5,0.4,0.9,1,1.1,1.7
			c0.1,0.5,0.2,1.5,0.2,2.9v4.8c0,1,0.1,1.6,0.3,1.8c0.2,0.2,0.5,0.4,1.1,0.4v0.5h-6.3v-0.5c0.5-0.1,0.8-0.3,1-0.6
			c0.1-0.2,0.2-0.8,0.2-1.6V196c0-1,0-1.7-0.1-1.9c-0.1-0.3-0.2-0.5-0.4-0.6c-0.2-0.1-0.4-0.2-0.6-0.2c-0.8,0-1.5,0.5-2.1,1.6v6.7
			c0,0.9,0.1,1.5,0.3,1.8c0.2,0.2,0.5,0.4,1,0.5v0.5h-6.3v-0.5c0.5-0.1,0.9-0.2,1.1-0.5c0.1-0.2,0.2-0.8,0.2-1.7v-7
			c0-0.9-0.1-1.5-0.3-1.8c-0.2-0.2-0.5-0.4-1.1-0.5v-0.5L457.3,191.8L457.3,191.8z"/>
		<path d="M475.3,191.4l0.2,4.2H475c-0.5-1.3-1.1-2.1-1.7-2.6s-1.2-0.7-1.7-0.7c-0.4,0-0.7,0.1-0.9,0.4c-0.3,0.2-0.4,0.5-0.4,0.8
			c0,0.2,0.1,0.5,0.3,0.7c0.3,0.4,1.1,1,2.4,1.9s2.2,1.6,2.6,2.2c0.4,0.6,0.6,1.3,0.6,2.1c0,0.7-0.2,1.4-0.5,2
			c-0.3,0.7-0.8,1.2-1.5,1.5c-0.6,0.4-1.3,0.5-2.1,0.5c-0.6,0-1.4-0.2-2.4-0.6c-0.3-0.1-0.4-0.1-0.5-0.1c-0.3,0-0.5,0.2-0.7,0.7H468
			l-0.2-4.5h0.5c0.4,1.2,0.9,2,1.6,2.6s1.4,0.9,2,0.9c0.4,0,0.8-0.1,1-0.4c0.3-0.3,0.4-0.6,0.4-0.9c0-0.4-0.1-0.8-0.4-1.1
			s-0.9-0.8-1.8-1.4c-1.4-0.9-2.2-1.7-2.6-2.2c-0.6-0.7-0.9-1.5-0.9-2.4c0-1,0.3-1.8,1-2.6s1.6-1.2,2.9-1.2c0.7,0,1.3,0.2,2,0.5
			c0.2,0.1,0.4,0.2,0.6,0.2s0.3,0,0.4-0.1s0.3-0.3,0.5-0.6h0.3V191.4z"/>
		<path d="M483.1,187.2v4.5h2.9v1.3h-2.9v7.7c0,0.7,0,1.2,0.1,1.4s0.2,0.4,0.4,0.5c0.2,0.1,0.3,0.2,0.5,0.2c0.6,0,1.1-0.4,1.6-1.3
			l0.4,0.3c-0.7,1.7-1.9,2.5-3.5,2.5c-0.8,0-1.5-0.2-2-0.7c-0.5-0.4-0.9-0.9-1-1.5c-0.1-0.3-0.1-1.1-0.1-2.4V193h-1.6v-0.5
			c1.1-0.8,2.1-1.6,2.8-2.5c0.8-0.9,1.5-1.8,2.1-2.9L483.1,187.2L483.1,187.2z"/>
		<path d="M492.2,191.8v9.8c0,0.9,0.1,1.4,0.3,1.7c0.2,0.2,0.6,0.4,1.2,0.4v0.5H487v-0.5c0.5,0,1-0.2,1.2-0.5
			c0.2-0.2,0.3-0.7,0.3-1.6v-7.2c0-0.9-0.1-1.4-0.3-1.7c-0.2-0.2-0.6-0.4-1.2-0.4v-0.5H492.2z M490.3,185.8c0.6,0,1.1,0.2,1.5,0.6
			c0.4,0.4,0.6,0.9,0.6,1.5s-0.2,1-0.6,1.4s-0.9,0.6-1.5,0.6s-1-0.2-1.4-0.6c-0.4-0.4-0.6-0.9-0.6-1.4c0-0.6,0.2-1.1,0.6-1.5
			S489.8,185.8,490.3,185.8z"/>
		<path d="M500,187.2v4.5h2.9v1.3H500v7.7c0,0.7,0,1.2,0.1,1.4s0.2,0.4,0.4,0.5c0.2,0.1,0.3,0.2,0.5,0.2c0.6,0,1.1-0.4,1.6-1.3
			l0.4,0.3c-0.7,1.7-1.9,2.5-3.5,2.5c-0.8,0-1.5-0.2-2-0.7c-0.5-0.4-0.9-0.9-1-1.5c-0.1-0.3-0.1-1.1-0.1-2.4V193h-1.6v-0.5
			c1.1-0.8,2.1-1.6,2.8-2.5c0.8-0.9,1.5-1.8,2.1-2.9L500,187.2L500,187.2z"/>
		<path d="M516.2,191.8v9.7c0,0.9,0.1,1.5,0.3,1.8c0.2,0.2,0.5,0.4,1.1,0.4v0.5h-5.1v-1.7c-0.6,0.7-1.2,1.2-1.8,1.5
			c-0.6,0.3-1.3,0.5-2,0.5s-1.3-0.2-1.9-0.6c-0.5-0.4-0.9-0.9-1.1-1.5s-0.3-1.6-0.3-3v-4.9c0-0.9-0.1-1.5-0.3-1.8
			c-0.2-0.2-0.5-0.4-1.1-0.5v-0.5h5.1v8.5c0,0.9,0,1.5,0.1,1.7c0.1,0.3,0.2,0.5,0.4,0.6c0.2,0.1,0.4,0.2,0.6,0.2
			c0.3,0,0.6-0.1,0.9-0.3c0.4-0.2,0.8-0.7,1.3-1.4v-6.6c0-0.9-0.1-1.5-0.3-1.8c-0.2-0.2-0.5-0.4-1.1-0.5v-0.5h5.2V191.8z"/>
		<path d="M524.4,187.2v4.5h2.9v1.3h-2.9v7.7c0,0.7,0,1.2,0.1,1.4s0.2,0.4,0.4,0.5s0.3,0.2,0.5,0.2c0.6,0,1.1-0.4,1.6-1.3l0.4,0.3
			c-0.7,1.7-1.9,2.5-3.5,2.5c-0.8,0-1.5-0.2-2-0.7c-0.5-0.4-0.9-0.9-1-1.5c-0.1-0.3-0.1-1.1-0.1-2.4V193h-1.6v-0.5
			c1.1-0.8,2.1-1.6,2.8-2.5c0.8-0.9,1.5-1.8,2.1-2.9L524.4,187.2L524.4,187.2z"/>
		<path d="M539.2,197.5h-6.8c0.1,1.6,0.5,2.9,1.3,3.9c0.6,0.7,1.3,1.1,2.2,1.1c0.5,0,1-0.1,1.4-0.4c0.4-0.3,0.9-0.8,1.4-1.6l0.5,0.3
			c-0.7,1.4-1.4,2.3-2.2,2.9c-0.8,0.6-1.8,0.9-2.8,0.9c-1.8,0-3.2-0.7-4.2-2.1c-0.8-1.1-1.1-2.6-1.1-4.2c0-2.1,0.6-3.7,1.7-4.9
			c1.1-1.2,2.4-1.8,3.9-1.8c1.3,0,2.3,0.5,3.3,1.5C538.6,194,539.1,195.5,539.2,197.5z M535.9,196.6c0-1.4-0.1-2.4-0.2-2.9
			c-0.2-0.5-0.4-0.9-0.7-1.2c-0.2-0.2-0.4-0.2-0.7-0.2c-0.5,0-0.8,0.2-1.1,0.7c-0.5,0.8-0.8,1.9-0.8,3.2v0.5h3.5V196.6z"/>
		<path d="M345.3,225.7v8.6c0,0.8,0.1,1.4,0.3,1.6c0.3,0.3,0.8,0.5,1.6,0.5v0.5h-7.3v-0.5c0.6,0,1-0.1,1.2-0.2
			c0.2-0.1,0.4-0.3,0.5-0.5s0.1-0.7,0.1-1.3v-8.6h-1.8v-1.3h1.8v-0.9V223c0-1.3,0.5-2.3,1.4-3.2c0.9-0.8,2.2-1.3,3.8-1.3
			c1.1,0,1.9,0.2,2.4,0.6c0.5,0.4,0.8,0.9,0.8,1.4c0,0.4-0.2,0.7-0.5,1s-0.8,0.4-1.3,0.4s-0.8-0.1-1.1-0.4c-0.3-0.2-0.4-0.5-0.4-0.8
			c0-0.1,0-0.2,0.1-0.5c0-0.1,0.1-0.3,0.1-0.4c0-0.2-0.1-0.3-0.2-0.4c-0.1-0.1-0.3-0.2-0.5-0.2c-0.3,0-0.5,0.1-0.6,0.3
			c-0.2,0.2-0.3,0.6-0.3,1v2.3v1.6h1.8v1.3L345.3,225.7L345.3,225.7z"/>
		<path d="M355,224c1.1,0,2.1,0.3,3,0.8c0.9,0.6,1.6,1.3,2.1,2.4c0.5,1,0.7,2.2,0.7,3.4c0,1.8-0.4,3.2-1.3,4.4
			c-1.1,1.4-2.6,2.2-4.5,2.2s-3.3-0.7-4.3-2s-1.5-2.8-1.5-4.6s0.5-3.3,1.5-4.7C351.7,224.7,353.2,224,355,224z M355,225
			c-0.5,0-0.8,0.2-1.2,0.5c-0.3,0.3-0.5,1-0.6,2s-0.2,2.4-0.2,4.2c0,0.9,0.1,1.8,0.2,2.7c0.1,0.6,0.3,1.1,0.6,1.4
			c0.3,0.3,0.7,0.5,1.1,0.5s0.7-0.1,1-0.3c0.3-0.3,0.6-0.7,0.7-1.3c0.2-0.8,0.3-2.5,0.3-5.1c0-1.5-0.1-2.5-0.3-3.1
			c-0.2-0.6-0.4-1-0.7-1.2C355.7,225.1,355.4,225,355,225z"/>
		<path d="M368,224.4v2.8c0.8-1.3,1.5-2.1,2.2-2.6c0.6-0.4,1.2-0.6,1.8-0.6c0.5,0,0.9,0.2,1.2,0.5c0.3,0.3,0.4,0.7,0.4,1.3
			s-0.1,1.1-0.4,1.4c-0.3,0.3-0.6,0.5-1,0.5c-0.5,0-0.9-0.1-1.2-0.5c-0.3-0.3-0.5-0.5-0.6-0.5c-0.1-0.1-0.2-0.1-0.3-0.1
			c-0.3,0-0.5,0.1-0.7,0.3c-0.4,0.3-0.6,0.7-0.8,1.3c-0.3,0.9-0.4,1.8-0.4,2.8v2.9v0.7c0,0.5,0,0.8,0.1,1s0.3,0.4,0.5,0.5
			s0.6,0.2,1.1,0.2v0.5h-6.7v-0.5c0.5,0,0.9-0.2,1.1-0.4c0.2-0.3,0.3-0.9,0.3-2V227c0-0.7,0-1.2-0.1-1.4s-0.2-0.4-0.4-0.5
			c-0.2-0.1-0.5-0.2-0.9-0.2v-0.5L368,224.4L368,224.4z"/>
		<path d="M393.3,218.4l0.1,6h-0.5c-0.3-1.5-0.9-2.7-1.9-3.6c-1-0.9-2.1-1.4-3.3-1.4c-0.9,0-1.6,0.2-2.1,0.7s-0.8,1-0.8,1.7
			c0,0.4,0.1,0.8,0.3,1.1c0.3,0.4,0.7,0.8,1.2,1.2c0.4,0.3,1.4,0.8,2.9,1.6c2.1,1,3.5,2,4.3,2.9c0.7,0.9,1.1,2,1.1,3.2
			c0,1.5-0.6,2.8-1.8,3.9c-1.2,1.1-2.7,1.6-4.5,1.6c-0.6,0-1.1-0.1-1.6-0.2c-0.5-0.1-1.1-0.3-1.9-0.6c-0.4-0.2-0.8-0.3-1-0.3
			s-0.5,0.1-0.7,0.3c-0.3,0.2-0.5,0.4-0.6,0.8H382v-6.8h0.5c0.4,1.9,1.1,3.4,2.3,4.4c1.1,1,2.3,1.5,3.6,1.5c1,0,1.8-0.3,2.4-0.8
			s0.9-1.2,0.9-1.9c0-0.4-0.1-0.8-0.3-1.2c-0.2-0.4-0.6-0.8-1-1.1c-0.5-0.4-1.3-0.8-2.4-1.4c-1.6-0.8-2.8-1.5-3.5-2.1
			s-1.3-1.2-1.7-1.9c-0.4-0.7-0.6-1.5-0.6-2.3c0-1.4,0.5-2.7,1.6-3.7s2.4-1.5,4-1.5c0.6,0,1.2,0.1,1.7,0.2c0.4,0.1,0.9,0.3,1.5,0.6
			s1,0.4,1.3,0.4c0.2,0,0.4-0.1,0.5-0.2c0.1-0.1,0.3-0.5,0.4-1L393.3,218.4L393.3,218.4z"/>
		<path d="M402.6,224c1.1,0,2.1,0.3,3,0.8c0.9,0.6,1.6,1.3,2.1,2.4c0.5,1,0.7,2.2,0.7,3.4c0,1.8-0.4,3.2-1.3,4.4
			c-1.1,1.4-2.6,2.2-4.5,2.2s-3.3-0.7-4.3-2s-1.5-2.8-1.5-4.6s0.5-3.3,1.5-4.7C399.4,224.7,400.8,224,402.6,224z M402.6,225
			c-0.5,0-0.8,0.2-1.2,0.5c-0.3,0.3-0.5,1-0.6,2s-0.2,2.4-0.2,4.2c0,0.9,0.1,1.8,0.2,2.7c0.1,0.6,0.3,1.1,0.6,1.4
			c0.3,0.3,0.7,0.5,1.1,0.5s0.7-0.1,1-0.3c0.3-0.3,0.6-0.7,0.7-1.3c0.2-0.8,0.3-2.5,0.3-5.1c0-1.5-0.1-2.5-0.3-3.1
			c-0.2-0.6-0.4-1-0.7-1.2C403.3,225.1,403,225,402.6,225z"/>
		<path d="M422.5,224.4v9.7c0,0.9,0.1,1.5,0.3,1.8c0.2,0.2,0.5,0.4,1.1,0.4v0.5h-5.1v-1.7c-0.6,0.7-1.2,1.2-1.8,1.5
			c-0.6,0.3-1.3,0.5-2,0.5s-1.3-0.2-1.9-0.6c-0.5-0.4-0.9-0.9-1.1-1.5s-0.3-1.6-0.3-3v-4.9c0-0.9-0.1-1.5-0.3-1.8
			c-0.2-0.2-0.5-0.4-1.1-0.5v-0.5h5.1v8.5c0,0.9,0,1.5,0.1,1.7c0.1,0.3,0.2,0.5,0.4,0.6c0.2,0.1,0.4,0.2,0.6,0.2
			c0.3,0,0.6-0.1,0.9-0.3c0.4-0.2,0.8-0.7,1.3-1.4V227c0-0.9-0.1-1.5-0.3-1.8c-0.2-0.2-0.5-0.4-1.1-0.5v-0.5h5.2L422.5,224.4
			L422.5,224.4z"/>
		<path d="M430.7,219.9v4.5h2.9v1.3h-2.9v7.7c0,0.7,0,1.2,0.1,1.4s0.2,0.4,0.4,0.5c0.2,0.1,0.3,0.2,0.5,0.2c0.6,0,1.1-0.4,1.6-1.3
			l0.4,0.3c-0.7,1.7-1.9,2.5-3.5,2.5c-0.8,0-1.5-0.2-2-0.7c-0.5-0.4-0.9-0.9-1-1.5c-0.1-0.3-0.1-1.1-0.1-2.4v-6.7h-1.6v-0.5
			c1.1-0.8,2.1-1.6,2.8-2.5c0.8-0.9,1.5-1.8,2.1-2.9L430.7,219.9L430.7,219.9z"/>
		<path d="M440,218.8v7.2c0.7-0.7,1.3-1.2,1.9-1.5s1.2-0.4,1.8-0.4c0.8,0,1.4,0.2,2,0.7c0.6,0.4,0.9,1,1.1,1.6s0.3,1.6,0.3,3v4.8
			c0,0.9,0.1,1.5,0.3,1.8c0.2,0.2,0.5,0.4,1.1,0.4v0.5h-6.3v-0.5c0.4-0.1,0.8-0.2,1-0.5c0.2-0.2,0.2-0.8,0.2-1.7v-5.5
			c0-1,0-1.7-0.1-1.9c-0.1-0.3-0.2-0.5-0.4-0.6c-0.2-0.1-0.4-0.2-0.6-0.2c-0.4,0-0.7,0.1-1,0.4c-0.3,0.2-0.7,0.7-1.1,1.3v6.7
			c0,0.9,0.1,1.4,0.2,1.7c0.2,0.3,0.5,0.5,1,0.6v0.5h-6.3v-0.5c0.5-0.1,0.9-0.2,1.1-0.5c0.1-0.2,0.2-0.8,0.2-1.7v-12.6
			c0-0.9-0.1-1.5-0.3-1.8c-0.2-0.2-0.5-0.4-1.1-0.5v-0.5h5L440,218.8L440,218.8z"/>
		<path d="M466,231.7h-6.4l-0.8,1.8c-0.2,0.6-0.4,1.1-0.4,1.4c0,0.5,0.2,0.9,0.6,1.1c0.2,0.1,0.8,0.2,1.8,0.3v0.5h-6v-0.5
			c0.6-0.1,1.2-0.4,1.6-0.8c0.4-0.4,0.9-1.3,1.5-2.7l6.4-14.4h0.3l6.5,14.8c0.6,1.4,1.1,2.3,1.5,2.6c0.3,0.3,0.7,0.4,1.3,0.5v0.5
			h-8.7v-0.5h0.4c0.7,0,1.2-0.1,1.5-0.3c0.2-0.1,0.3-0.3,0.3-0.6c0-0.2,0-0.3-0.1-0.5c0-0.1-0.2-0.4-0.4-1L466,231.7z M465.6,230.7
			l-2.7-6.2l-2.8,6.2H465.6z"/>
		<path d="M483.2,224.1l0.2,4.2H483c-0.5-1.3-1.1-2.1-1.7-2.6s-1.2-0.7-1.7-0.7c-0.4,0-0.7,0.1-0.9,0.4c-0.3,0.2-0.4,0.5-0.4,0.8
			c0,0.2,0.1,0.5,0.3,0.7c0.3,0.4,1.1,1,2.4,1.9s2.2,1.6,2.6,2.2c0.4,0.6,0.6,1.3,0.6,2.1c0,0.7-0.2,1.4-0.5,2
			c-0.3,0.7-0.8,1.2-1.5,1.5c-0.6,0.4-1.3,0.5-2.1,0.5c-0.6,0-1.4-0.2-2.4-0.6c-0.3-0.1-0.4-0.1-0.5-0.1c-0.3,0-0.5,0.2-0.7,0.7
			h-0.4l-0.2-4.5h0.5c0.4,1.2,0.9,2,1.6,2.6s1.4,0.9,2,0.9c0.4,0,0.8-0.1,1-0.4c0.3-0.3,0.4-0.6,0.4-0.9c0-0.4-0.1-0.8-0.4-1.1
			s-0.9-0.8-1.8-1.4c-1.4-0.9-2.2-1.7-2.6-2.2c-0.6-0.7-0.9-1.5-0.9-2.4c0-1,0.3-1.8,1-2.6s1.6-1.2,2.9-1.2c0.7,0,1.3,0.2,2,0.5
			c0.2,0.1,0.4,0.2,0.6,0.2s0.3,0,0.4-0.1s0.3-0.3,0.5-0.6h0.1L483.2,224.1L483.2,224.1z"/>
		<path d="M491,224.4v9.8c0,0.9,0.1,1.4,0.3,1.7c0.2,0.2,0.6,0.4,1.2,0.4v0.5h-6.7v-0.5c0.5,0,1-0.2,1.2-0.5
			c0.2-0.2,0.3-0.7,0.3-1.6V227c0-0.9-0.1-1.4-0.3-1.7c-0.2-0.2-0.6-0.4-1.2-0.4v-0.5L491,224.4L491,224.4z M489.1,218.4
			c0.6,0,1.1,0.2,1.5,0.6c0.4,0.4,0.6,0.9,0.6,1.5s-0.2,1-0.6,1.4s-0.9,0.6-1.5,0.6s-1-0.2-1.4-0.6c-0.4-0.4-0.6-0.9-0.6-1.4
			c0-0.6,0.2-1.1,0.6-1.5S488.5,218.4,489.1,218.4z"/>
		<path d="M500.7,235c-1.5,1.3-2.9,2-4.1,2c-0.7,0-1.3-0.2-1.8-0.7s-0.7-1-0.7-1.7c0-0.9,0.4-1.8,1.2-2.6c0.8-0.8,2.6-1.8,5.3-3
			v-1.2c0-0.9-0.1-1.5-0.2-1.8c-0.1-0.2-0.3-0.5-0.6-0.6c-0.3-0.2-0.6-0.3-1-0.3c-0.6,0-1,0.1-1.4,0.4c-0.2,0.2-0.3,0.3-0.3,0.6
			c0,0.2,0.1,0.4,0.4,0.7c0.3,0.4,0.5,0.7,0.5,1.1c0,0.4-0.2,0.8-0.5,1.1s-0.7,0.5-1.3,0.5c-0.6,0-1-0.2-1.4-0.5s-0.6-0.7-0.6-1.2
			c0-0.6,0.3-1.2,0.8-1.8s1.2-1,2.1-1.3s1.8-0.5,2.8-0.5c1.2,0,2.1,0.2,2.8,0.7c0.7,0.5,1.1,1,1.3,1.6c0.1,0.4,0.2,1.2,0.2,2.6v4.8
			c0,0.6,0,0.9,0.1,1.1c0,0.1,0.1,0.3,0.2,0.3c0.1,0.1,0.2,0.1,0.3,0.1c0.2,0,0.5-0.2,0.7-0.5l0.4,0.3c-0.4,0.7-0.9,1.1-1.4,1.4
			c-0.5,0.3-1,0.4-1.6,0.4c-0.7,0-1.3-0.2-1.7-0.5C501,236.2,500.7,235.7,500.7,235z M500.7,234v-4.1c-1.1,0.6-1.9,1.3-2.4,2
			c-0.3,0.5-0.5,1-0.5,1.4s0.1,0.8,0.4,1.1c0.2,0.2,0.5,0.4,0.9,0.4C499.6,234.8,500.1,234.5,500.7,234z"/>
	</g>
</g>
</svg>
