<?xml version="1.0" encoding="utf-8"?>
<!-- Generator: Adobe Illustrator 27.7.0, SVG Export Plug-In . SVG Version: 6.00 Build 0)  -->
<svg version="1.1" id="Layer_1" xmlns="http://www.w3.org/2000/svg" xmlns:xlink="http://www.w3.org/1999/xlink" x="0px" y="0px"
	 viewBox="0 0 612 283.5" style="enable-background:new 0 0 612 283.5;" xml:space="preserve">
<style type="text/css">
	.st0{fill:#FFFFFF;}
	.st1{fill-rule:evenodd;clip-rule:evenodd;fill:#FFFFFF;}
</style>
<g>
	<g>
		<path class="st0" d="M395.4,121.6l-1.3-0.7h-1.3h-0.6h-0.6l0.6-0.7l0.6-1.3v-1.3l-1.9-2l-0.6-0.7l-3.2,2h-1.3l-1.9-0.7l-0.6-0.7
			l-0.6,0.7l-1.3,0.7l-2.6,2l-1.9,0.7l-1.3,0.7l-2.6,3.4l-0.6,0.7l-1.9,0.7h-1.3h-0.6l0,0l-0.7-1.3l-0.6-0.7H366h-4l-0.6-0.7
			l-0.6-0.7h-1.3l-1.3,0.7l-1.3,1.4l-2.5,4l-0.6-1.3v-2.7v-0.7h-0.6l-1.3,0.7h-0.6l0,0l-1.3-0.7l-0.6,1.3l-0.6-0.7h-1.9l-1.3-0.7
			l-1.3-0.7h-0.6l-0.6,0.7l-1.9-0.7v0.7l-0.6,0.7v-1.4l-1.3-1.4h-0.6h-2.6v-0.7l0.6-1.3h-0.6l-0.6,0.7l-3.2-2v-0.7l-0.6-1.4
			l-0.6-0.7l-1.3,0.7h-0.6l-1.3-2l-1.3-0.7v0.7l-1.3-0.7l-1.9-2l-1.9-0.7v-1.4l-2.6-0.7l-0.6,0.7l-0.6-0.7v2l-0.6,0.7h-0.6l-0.6-1.3
			l0,0l-1.9-2v0.7l-1.9-0.7v-1.3l-1.9-1.3h-1.3l-1.3-2l-1.3-0.7l-0.6,0.7h-0.6l-0.6-1.3l0.6-0.7l-0.6-0.7l0.6-1.3l-1.3-2l-0.6-1.3
			l1.9-0.7v0.7l0.6,0.7h0.6l1.3-0.7l1.3-1.3l-1.3-2l0.6-0.7l-1.9-0.7v-0.7h-1.9l-0.6-0.7l0.7-2l2.6-0.4l0.2-1l1.8-2.4l1.8-2l0.4-2
			l-0.8-1l-1.2-1.3l-1.5-1.9l-2.1-0.4l-2.2,1l-1.6,1.3l-1.4,0.9l-0.6-1.2l-0.5,0.5l0,0l-0.6-0.6h-0.6l-3.2-0.7l-1.3-0.7v-0.7
			l-0.7-0.7h-0.6l-0.6,0.7l-0.6-0.7l-0.6-0.7H290l0.6-2v-1.3l-0.6-0.7l-0.6-0.7h-1.3h-0.6v-1.3h-1.3h-0.6l-0.6,0.7l-0.6-0.7
			l-0.6-0.6v-0.1h-0.6V66h1.3l0.6-0.7h-1.3l-1.3-0.7h-0.6l-1.3,0.7h-1.9h-0.6l0.6-0.7h-0.6h-1.3l-1.9,1.3l-1.3,1.3h-1.3l-1.9,1.3
			h-0.6h-0.6l-0.6-1.3l-0.6-1.3l0.6-1.3v-2.7v-0.7v-0.7l-1.3,0.7l0.6-2l-1.3-1.3H266h-0.6l-0.6,0.7l-0.6,0.7l-0.6,1.3l-0.7,1.3
			l0.7,0.7l-0.7,0.7l-1.3,0.7l-1.3-0.7h-0.6l-0.6,0.7v1.3l-0.6,0.7v0.7h-1.3l-1.3-0.7h-0.6l-1.3,0.7l-1.3,0.7l-1.3,0.7h-0.6v-0.7
			l-1.3-1.3v-0.7h-3.2H245l-3.2-0.7l-1.3-0.7l-1.3,0.7l-0.6,0.7l-2.6,0.7l-1.3,2.7l-0.6,2.7l-1.3,1.3l-4.5,2H227v0.7v1.3l-0.6,0.7
			l-1.3,0.7h-1.3h-1.3l-2.6-0.7l-1.9-0.7l-0.6-0.7v0.7v1.3l-0.6,2l-1.3,4l-0.6,0.7l-1.3,1.3l0.6,2l1.3,0.7l0.6,0.7l-1.9,2.7v0.7
			l0.6,2.7l0.6,4v2l0.6,0.7h0.6l2.6,0.7l0.6,0.7l0.6,0.7v1.3l-1.3,1.3l-1.9,2l-1.9,3.4h0.1l1.9,2.7l1.9,2.7l0.6,1.3l1.3,1.3l2.6,0.7
			l1.3,0.7v1.3l0.6,3.4v1.3h1.9v0.7v2.7v0.7h-0.6h-2.6l-1.3,0.7l-1.9,1.3l-0.6,1.3l-0.6,2v0.7l-0.6,2.7h1.3l1.9-0.7h1.3h2.6h1.9
			l1.3-1.3h2.6v0.7h0.6l0.6,0.7l2.6-0.7h1.9h2.6l2.6-1.3h0.6l1.3,0.7v1.3v1.3v0.7l1.9,0.7h0.6v0.7l0.6,2.7l0.6,0.7l1.3,0.7l1.9,0.7
			v0.7l1.3,2l2.6,1.3l1.3,0.7l1.3,0.7h1.3h1.9h1.3l0.7-0.7v0.7l-1.3,2l-0.6,0.7h-1.3l-1.3,0.7l-2.6-0.7h-0.6l1.3,2l3.2,3.4l2.6,2.7
			l1.3,0.7l1.9,0.7h0.6l1.3-0.7h1.3l1.9-1.4l1.3-0.7l0.6-1.3V161v-0.7l-0.6-0.7v-0.7v-0.7l0.6-0.7h1.9v1.3v2.7l0.6,1.3l0.6,1.4
			l0.6,0.7v0.7l-1.3,2v1.3v0.7v4l1.3,6.7l1.9,8.1l0.6,2.7l1.3,3.4l1.3,2l1.3,3.4l1.9,4l1.3,4.7l1.3,4l1.9,3.4l2.6,4.7l1.3,4.7
			l0.6,3.4l0.6,0.7v1.3l3.2,3.4h0.6h0.6l0.6-0.7l1.3-0.7l0.6-0.7l0.6-0.7v-1.3l0.6-1.3l1.9-0.7h0.6l1.9-0.7l-1.3-0.7l0.6-2l0.6-2
			l0.6-0.7l0.6,0.7h1.9V222l-0.6-4.7v-1.4v-1.3l1.3-2l1.3-4l0.6-1.3v-1.6l-0.6-1.3l-0.6-0.7v-1.3V201v-4v-1.3v-1.3l1.3-1.3l0.6-0.7
			h1.3l1.3,0.7l0.6-0.7l0.6-2l0.6-0.7h1.3h0.6l1.3-0.7l1.3-1.3v-1.3l0.6-0.7l0.6-1.3l1.3-0.7l1.3-0.7l1.9-1.3l1.3-2l1.3-0.7l1.3-1.3
			l2.6-2.7l1.3-1.3l0.6-1.3l1.3-0.7l1.9-0.7h0.6l1.3-0.7l1.3-1.3l1.3-0.7v-0.7l0.6-0.7l0.6-1.3v-1.3l-0.6-1.4l0.6-0.7l1.3-0.7
			l2.6-1.3l1.3-0.7l0.6-1.4l0.6,0.7l0.6,1.3v0.7l0.7-0.7v-0.7l0.6-0.7h0.6v2h1.3h0.6l-0.6-0.7l0.6-0.7l0,0l0.6,0.7l1.3-2l0.6,1.4
			h0.6l0.6-0.7v-1.3h0.6l0.6,0.7l0.6,1.4l0.6-1.4l1.3-0.7v-1.3l-0.6-2v-1.3l0.6-0.7v0.7l0.6,1.3l0.6,0.7h1.3l1.3-0.7l1.3,0.7l1.3,4
			l0.6,2.7v1.3l0.6,0.7l0.6-0.7l1.9-1.3l-0.6-4v-1.3l-1.3-6.1l-0.6-2l-0.6,0.7h-0.6l0,0h0.6l0.6-0.7l0.6,2l1.3,6.1v1.3h1.3l0.6,0.7
			l0.6-0.7l0.6-0.7v-2l-0.6-2l0.6-0.7h0.6l0.6-1.3v-4v-0.7l1.9,0.7l0.6,0.7h0.6l0.6-0.7l2.6-5.4v-1.3l-0.6-0.7l0.6-0.7l1.9-2.7v-1.3
			v-2l0.6-0.7l3.2-2.7l1.3-1.3h1.3h0.6l1.9,0.7h1.3l-0.6-2V126l1.3-2l0.6-0.7V122h-1.8V121.6z M268.6,71.2L268.6,71.2h0.6l0,0H268.6
			z M277.5,67.8l-2.6,0.7h-2.5l0,0h2.6L277.5,67.8l1.9,0.6l0,0L277.5,67.8z M280.1,67.8L280.1,67.8h0.6l0,0H280.1z M282,67.2
			L282,67.2h0.6l0,0H282z M369.8,127l0.6,0.7l0,0L369.8,127h-0.6l-0.6-0.7l0,0l0.6,0.7H369.8z M367.2,151.2l-0.6-0.7l-0.6-0.7v-0.7
			v-1.3l0.6-1.3l0,0l-0.6,1.3v1.4v0.7l0.6,0.7L367.2,151.2l1.3,1.3l0,0L367.2,151.2z"/>
		<polygon class="st0" points="311.5,226.5 310.8,227.2 310.8,228.6 309.5,229.2 308.9,229.2 308.9,229.9 309.5,230.6 308.9,231.9 
			309.5,233.9 309.5,236 309.5,237.3 309.5,239.3 310.2,242 310.8,243.4 311.5,244.7 312.1,244.7 313.4,245.4 314.7,244.7 
			316.6,244 317.2,243.4 318.5,242.7 319.1,240.7 319.8,239.3 319.1,238 317.2,234.6 317.2,232.6 315.3,231.9 315.9,230.6 
			315.3,229.9 314,227.9 313.4,227.2 312.1,226.5 310.8,225.2 		"/>
	</g>
	<g>
		<g>
			<g>
				<g>
					<path class="st1" d="M161.5,139.6c0.1,0.1,0.1,0.2,0.2,0.2C161.7,139.8,161.7,139.7,161.5,139.6z"/>
					<path class="st1" d="M201.5,69.4c-1.1-2.4-4-2.1-6.3-2.4c-5.1-0.6-10.5-0.5-15.6,0.4c-6.2,1.1-11.7,3.4-17.6,5.3
						c-5.9,2-10.7,5.3-16.3,7.9c-5.9,2.8-12.1,5-17.5,8.6c-1.9,1.3-4.5,2.4-5.4,4.6c-1.2,3,3.4,3.9,4.8,5.1c1.8,1.6,0.3,5.5-0.2,7.3
						c-0.2,0.9-0.5,1.8-0.7,2.6c-0.2,0.8-0.6,1.5-0.7,2.3c-0.3,1.4-2,2-3.3,2.2c-0.6,0.1-1.3,0.3-1.9,0.6c-0.6,0.3-0.8,0.9-0.9,1.5
						c-0.1,0.9-0.2,1.8,0.2,2.6c0.4,0.9,0.9,1.9,1.3,2.8c0.7,1.3,1.7,3,3,4c-1.6-2.9-1.1-4.3-0.5-5.8c-0.1,0.2,0.7,0.4,0.9,0.4
						c0.8,0,1.3-0.6,1.9-1c0.4-0.2,1-0.8,1.1-0.8c0.8-0.5,1.1-1.5,1.7-2.1c0.7-0.7,1.2-1.8,1.7-2.7c1.8-3.3,1.5,1.6,2.9,2.6
						c-0.1-0.5,0-1,0.5-1.2c-0.3,0.1,0.4,2.1,0.5,2.3c0.7-0.2,3-1.1,2.6,0.8c0.4,0.5,0.9,1.5,1.8,1.3c0.6-0.1,0.1-0.1,0.7-0.1
						c0.9,0,0.3-0.3,0.7,0.3c1.2,1.8,3,5.9,4.7,8.3c-0.5-0.8-1.7-1.3-2.1-1.8c-1.2-1.3,0.3,1.3,0.7,1.8c0.5,0.8,2.2,2.3,2.4,3.3
						c0.9,3,3.5,2.5,5.4,3.3c-1.2-0.5-3.9,1.3-4.9,2c-0.6,0.4-2.7-0.1-2.7,0.5c0,0.3,2.3,1.3,1.9,2c-0.4,0.8-1.5,1.1-3.5-0.4
						c-0.7-0.5,0.4,2.3-0.1,2.7c-0.6,0.6-1,0.5-1.5,0.3c-0.6-0.2-0.9-0.2-1.3-0.4c-0.6-0.2-0.8,0-0.7,0c-1,0.9-2.5,5.6-3.8,7.8
						c-0.9,1.6-4.1,6.2-3.3,7.2c2.6,3,7.6,2.6,8.2,3.3c-5.2-6.6-2.5-10.2-1.3-10.6c1.1-0.4,3.6,0.2,3.9-1.3c0.3,1.3,1.3,1,1.1,2.4
						c2.6,0.2,3.5-2.1,5.8-1c0.9,0.5-0.3,7.8-1.3,8.8c0.7,1.1,1.6,1.2,1.6,3.4c-0.1,1.8,0.4,3.7,0.7,4.7c0.3,1.2,0.8,2.4,1.8,3.6
						c1,1.3,1.4,1.4,1.8,1.8c0.3,0.2,1.2,0.7,1.4,0.9c0.1,0.1,1.2,0.6,1.2,0.5c0.1-0.3-1-1.4-1.2-1.6c-0.7-1-0.8-0.8-1.3-2
						c-0.6-1.3-1-2.2-1.2-4c-0.1-1.3,0-2.7,0.1-4c0.1-2.6,0-5.6,2.1-7.5c0.7,0.7,0.5,2.8,0.6,3.8c0,0.5,0.2,2.3,0.3,2.8
						c0.5,2,1.1,4.4,2.8,7.6c2.1,3.8,3.8,5.4,5.7,6.8c2.2,1.6,4,2.6,5.8,3.4c1.8,0.8,3.2,0.9,3.1,0.9c-0.6-0.4-5.2-3.4-7.3-5.4
						c-2.2-2.2-4.2-5.4-5.4-8.2c-1.3-3.1-1.5-4.3-1.9-6.5c-0.5-2.9-0.4-5.1-0.2-5.9c-0.1,0.2,0.2-1.1,0.5-1.9c0.2-0.4,0.4-1.4,0.8-2
						c0.2-0.3,0.5-1,0.8-0.9c0.5,0.2,2.3,0.4,3,0.6c1.2,0.3,2.7,0.9,2.6,0.7c-0.3-0.7-1-1.6-1.5-2.5c-1-1.6-1.6-3.3-1.9-3.7
						c-0.6-0.8-0.6-1.1-1.1-1.9c-0.4-0.6-0.5-0.8-0.7-1c0,0-0.5-0.5-0.8-1c-0.1-0.2-0.6-1-0.5-0.9c-0.2-0.2-0.4-0.7-0.6-1.1
						c-0.1-0.2-0.5-0.8-0.6-0.9v0.1c0-0.1,0-0.1,0-0.1c-0.1-0.2-0.4-0.7-0.6-0.9c0.2,0.3-0.6-1-0.7-1.2c0.6,1,2.5,1.3,3.5,1.5
						c1.6,0.3,3.2,0.7,4.9,0.7c1.4,0,2.3,0.1,3.7-0.4c0.7-0.3,2.7-1.1,3.3-2.2c0.5-0.9,0.8-1.7,1-2.7c0.1-0.4,0.1-0.8,0-1.1
						c0-0.3-0.4-0.9-0.4-1.2c0-0.3,0.4-0.7,0.6-0.8c0.4-0.2,0.4-0.6,0.8-0.8c0.4-0.2,0.7-0.5,1-0.9c0.3-0.3,0.4-0.6,0.6-1
						c0.3-0.6,0.6-1.7,0.4-2.4c-0.2-0.4-0.1-0.3-0.5-0.5c-0.2-0.1-0.5,0-0.6-0.1c0,0.5,0.3,0.8,0.3,1.3c0.1,0.8,0,1.6-0.6,2.2
						c-0.2,0.2-0.5,0.2-0.7,0.4c-0.4,0.2-0.7,0.4-1.1,0.6c-0.7,0.4-0.8,1.1-0.8,1.9c0,0.4,0,0.8,0,1.2c0,0.3,0.1,0.6,0.1,0.9
						c0,1-0.9,2.6-1.8,3.4c-0.9,0.7-2,1.1-4.2,1.3c-4.2,0.3-6.8-1.3-8.8-1.8c-1.8-0.5-4.1-2.9-5-4.7c-0.3-0.7-0.8-1.2-1.3-1.8
						s-1-1.4-1.6-1.8c-1.5-0.9-0.7-0.4-2.7-2.4c-1.7-1.6-1.7-3.5-2.4-5.8c-0.8-2.5,0.3-3.6,0.2-5.6c-0.1-3.4,0.2-3.2-2.5-5.3
						c-3.8-2.9-7.1-6.4-6.4-11.6c0.8-6.3,7.5-6.2,11.8-3.4c0.9,0.5,1.4,1.5,1.9,2.3c0.2,0.4,0.5,0.6,0.8,0.9
						c0.2,0.3,0.3,0.7,0.7,0.9c0.3,0.2,0.6,0.3,0.9,0.5c0.6,0.3,1.1,0.5,1.7,0.7c-0.4,0.5-1,0.6-0.1,0.8c-0.2,0.3-1.1,0.3-1.1,0.6
						c0,0.1,0.3,0.4,0.3,0.5c0.2,0.2,0.4,0.3,0.8,0.4c-0.3,0.1-0.7,0.3-0.8,0.6c0.7,0.3,1.6,0.2,2.2-0.2c0.5-0.3,1.2-0.8,1.3-1.4
						c-0.2-0.1-0.5-0.1-0.7-0.1c0.1-0.3,0.7-0.7,1-0.9c0.6-0.3,1.2-0.7,1.9-1c-1,0-1.8,0.2-2.8,0.2c0.3-0.3,0.9-0.5,1.2-0.8
						c0.6-0.4,1.1-0.7,1.7-1.1c0.5-0.3,0.9-0.7,1.4-0.9c0.5-0.3,1.3-0.6,1.7-1c-0.5-0.1-1.6-0.1-1.9-0.4c0.8-0.3,1.6-0.4,2.5-0.6
						c0.6-0.1,1.3-0.3,1.8-0.5c0.4-0.2,1.2-0.8,1.4-1.2c-0.9,0-4.3,0.7-4.9-0.3c0.4-0.2,0.9-0.4,1.3-0.6c0.6-0.2,1.1-0.5,1.7-0.7
						c0.6-0.3,1.2-0.7,1.8-1c0.5-0.4,0.9-0.8,1.3-1.3c-0.9,0.9-2.9,1.2-4.1,1.2c0.7,0,1-1,1.3-1.4c0.4-0.6,1.3-0.9,1.8-1.4
						c0.6-0.6,1.1-1.4,1.7-2c0.6-0.6,1.2-1.1,1.6-1.9c0.4-0.7,0.9-1.6,1.6-2c0.7-0.4,1.9-0.7,2.7-0.6c0.4,0.1,0.9,0.3,1.3,0.4
						c1.1,0.2,2.6,0.7,3.7,0.3c-0.7,0.2-5.8-2.1-6-3.4c1.6,1.7,5.3,2.7,7.5,3.1c-1-0.2-3.5-2.5-4.9-3.7c2.5,2,8.7,4.4,9.1,4.6
						c-3-1.5-5.7-3.6-5.9-3.6c-0.4-0.1,2.2,0.1,7.7,3.3c-1-1.1-2.8-3.3-3.6-4.3c1.3,0.5,2-0.1,3.9,2.3c0.3-1.2-1.6-3-2.3-3.7
						c0.3,0.2,4.2,1.8,4.9,4.5c0.3,1.3,1.1,2.5,0.7,3.4l0.4-0.9c2.1-2.1,5.9-3,8.7-4.9C200.9,73.2,202.2,70.8,201.5,69.4z"/>
				</g>
				<path class="st1" d="M188.3,99.3"/>
				<path class="st1" d="M138.5,91.8c0.3-0.5,1.4-0.8,1.6-0.9c0.9-0.4,2-0.3,2.9-0.3c2.6,0.1,0.1,1.1,0.2,2.2c0.6,0.1,5-1.3,4.1,1
					c-0.2,0.5-2.9,0.8-3.3,1c-1.7,0.4-2.6,1.6-3.4,3c-0.7,1.2,2.3,2.1,2.9,2.3c1.2,0.4,1.3,1.7,2.2,2.4c1.8,1.3,1.4-1.8,1.4-2.6
					c-0.1-3.9-2.7-0.6-5.2-1.5c-2.8-0.9,4.3-3,4.5-3c1.1-0.3,1.7-0.8,1.9-2.1c0.1-0.9-1.2-2.1-2-2c-1.7,0-1.9-2.2-6-0.9
					C139.1,90.7,138.6,91.3,138.5,91.8"/>
				<path class="st1" d="M139.6,99.2c0.5,0.8,0.9,1.4,1.6,2.2c0.6,0.7,1.4,1.3,2.1,1.8c0.7,0.4,1.4,0.9,2.2,1.2
					c0.6,0.2,1.2,0.2,1.8,0.1c0.4,0,0.9-0.1,1.2,0.2c0.3,0.4,0,1-0.3,1.2c-0.9,0.6-2.3-0.2-3.1-0.6c-1-0.6-1.9-1.3-2.7-2.1
					c-1.3-1.1-2.6-2.3-3.6-3.8c-0.8-1.2-1.2-2.4-1.3-3.9c0-0.4-0.2-2.6,0.6-2.5c0.1,1.1-0.1,2.2,0.2,3.3S139,98.3,139.6,99.2
					C139.8,99.5,139.5,99,139.6,99.2"/>
				<path class="st1" d="M121.2,112.9c-7.2-2-11.5,9.3-10.2,13c-2.1,0.9-7.1,5.3-7.5,5.5c-0.1,0-0.1,0-0.1,0.1s0,0.1,0,0.2
					c0,0.1-0.1,0.8-0.1,0.9c0.1,0.1,0.3-0.1,0.3-0.1c0.1-0.1,3.6-2.7,4.3-3.4c0.8-0.6,2.7-2.2,4.6-2.6
					C109.8,121.5,116.5,112.3,121.2,112.9z"/>
				<path class="st1" d="M119.2,87.1c0.9-0.3,27.9-10.2,27.9-10.2l10.3-3.3c0,0,10.9-4.1,12.6-4.6c-1.6,0.5-13.2,4-18,4.3h-0.6
					l-3.1-0.8l0.3-1.2l-2.4-0.9l-2.7-0.9l-0.3,0.6l-2.9-1l-1.1-0.4l0.3-0.8l-2.5-1.1l0.3-0.8l-3.6-1l-1.6-0.7l0.7-2.2l-1-0.6
					l0.6-1.8c2.3-1.8,8-6.8,7.3-6.3c-5.8,3.9-11,5.9-16.1,10.8c-2.2,2.2-2.2,5.1-1.4,8.3c0.1,0.7,0.2,1.3,0.4,1.8
					c0.1,0.3,0.4,1,0.7,1.7c0.6,1.7,1.3,3.4,1.7,4.9c-0.1,0-0.3,0.1-0.4,0.1c-4.9,1.5-12,2.9-11.4,9.5c0.4,3.9,6.7,7.7,10.3,8
					c-4.1-1.8-2.5-6.5-1.2-7.5c5.1-4.1,10.2-6.1,12.8-7.2c-2.2,0-10.2,4.3-12.1,5.4c-3.6,2.1-3.6,4.7-2.9,6.9
					c-1.2-0.6-2.5-1.8-2.9-2.3C113.8,89.5,118.4,87.5,119.2,87.1z"/>
				<path class="st0" d="M133.6,61.3c-0.2,0-2.3-0.7-2.8-0.9c-0.2-0.1-0.4-0.1-0.6-0.2c0,0.1-0.4,0.1-0.4,0.2
					c1.1,0.4,2.5,0.8,3.6,1.2C133.4,61.5,133.5,61.4,133.6,61.3"/>
				<path class="st0" d="M132.9,64.3c0.1-0.5,1-2.3,1.2-2.8c-0.1,0-0.3,0-0.4,0c-0.2,0.5-1.1,2.2-1.3,2.7c0.1,0,0.1,0,0.2,0"/>
				<path class="st0" d="M127.5,79.4L127.5,79.4L127.5,79.4L127.5,79.4"/>
				<path class="st1" d="M135.6,140.1c-0.6,1.8-1.5,3.6-2.5,5.2c-0.8,1.3-1.5,2.5-2.3,3.8s-4.5,4.5-4.5,4.6c0-0.1-0.8-1.2-0.7-1.3
					c0.4-0.4,4.6-5.8,6-8.1c0.6-1,1.7-2.2,2.2-3.3c0.4-1,0.8-1.5,0.9-2.5c-0.1,0-1-0.5-1.1-0.5c-0.7,2-1.6,3.4-2.7,5.3
					c-1.2,2-5.7,7.7-5.8,7.8c-0.1-0.3-0.9-2.1-0.9-2.3c0,0,0-0.1-0.1-0.1c0,0-0.1,0-0.1,0.1c-0.1,0-0.8,0.4-1,0.4
					c0,0.4,2.5,6.2,2.6,6.2s4.6-3.1,6.3-5.6c2.4-3.3,3.3-7,5.5-10.3c0.7-1,2.6,0.6,3.6,0.8c0.6,0.1,0.8-0.1,0.8-0.7
					c0.1-0.8-0.5-0.7-1.1-0.9c-0.3-0.1-1.2-0.5-1.6-0.4c-0.5,0.2-1.6-1.2-1.8-1.5c-0.6-0.6-0.8-0.8-1.3-1.5s-1.3-1.3-1.8-1.9
					c-0.7-0.7-1.5-1.3-2.1-2.1c-0.9-1-1.8-2-2.7-3c-0.4-0.5-1.9-1.4-2.5-1c-0.5,1.3,1.7,2.4,2.3,3.3c0.5,0.7,2.7,2.8,3.2,3.3
					c0.6,0.7,1.2,1.3,1.8,2c0.3,0.3,0.5,0.5,0.8,0.8c0.4,0.4,0.7,1.1,0.9,1.6C136,138.6,135.6,139.9,135.6,140.1z"/>
				<path class="st1" d="M184,99c0.1-0.2,0.2-0.4,0.4-0.6c0.2-0.4,0.4-0.8,0.4-1.3c0.1-0.8-1.2-1.6-2.4-2c-1.7-0.6-4-0.8-4-0.8
					s2.4,1.1,3.5,1.4c0.6,0.2,1.3,0.5,1.8,1c0.2,0.2,0.4,0.4,0.3,0.7c-0.1,0.3-0.2,0.6-0.4,0.9s-0.4,0.7-0.8,0.9
					c-0.2,0.1-0.3,0.2-0.5,0.3c-0.3,0.2-0.6,0.1-1,0.2c-0.3,0.1-0.7,0.2-1,0.2c-1-0.1-2.7,0-3.8,0.3c-1.3,0.3-2.9,1.4-3.6,1.2
					c-0.4-0.1-0.3-0.4-1.3-0.5c0.3,0,0.6,0.4,0.7,0.6c0.2,0.2,0.2,0.2,0.4,0.3c0.2,0.1,0.4,0.1,0.7,0.1c0.1,0,0.5,0,0.5-0.1
					c0.3-0.1,0.7-0.1,1-0.1c0.1,0,0.5-0.1,0.6-0.1c0.6-0.2,1.3-0.2,2-0.2c0.3,0,0.6,0,1,0c0.1,0,0.2,0,0.4,0c0.1,0,0.3-0.1,0.4-0.1
					c0.1,0,0.1,0,0.2,0c0.1,0,0.1,0.5,0.1,0.6c0,0.2,0,0.4-0.2,0.7c-0.1,0.2-0.4,0.8-1.2,1c0,0.2,0.7,0,1-0.2c0.4-0.3,0.6-1,1-1.2
					c0.2-0.1,0.3-0.2,0.5-0.2c0.1,0,0.2,0,0.3-0.1c0.3-0.2,0.5-0.5,0.7-0.7c0.3-0.3,0.6-0.5,0.9-0.8c0.2-0.1,0.4-0.3,0.5-0.4
					s0.2-0.2,0.4-0.4C183.7,99.4,183.9,99.2,184,99z"/>
				<path class="st0" d="M179.4,102c-0.3,0.8-0.9,1.3-1.5,1.1c-0.6-0.2-0.8-1-0.5-1.8s0.8-0.9,1.4-0.7
					C179.4,100.7,179.7,101.2,179.4,102z"/>
			</g>
			<path class="st1" d="M176.8,103.6c-0.2-0.2-1.5-0.5-1.9-0.7c-0.2-0.1-1.4-0.5-1.5-0.3c-0.1,0.1-0.7,0.1-0.7,0.2
				c0.3,0.2,0.8,0.1,1.1,0.2s0.6,0.1,0.9,0.3c0.3,0.2,0.4,0.1,0.8,0.2c1,0.3,0.7,0.3,0.7,0.2"/>
			<path class="st1" d="M188.4,99.7c-1.2,0.7-1.5,0.2-2.1,0.5c-0.4,0.2-0.3,0.4-0.6,0.8s-0.7,0.4-1.1,0.3c-0.3-0.1-1.2-0.3-1.3-0.6
				c-0.1-0.3,0.2-0.3,0.3-0.2c0.3,0.1,0.5,0.1,0.8,0.1c0.9,0.2,1.1-0.6,1.9-1c0.6-0.3,0.6-0.9,0.3-1.4c-0.4-0.6-1-0.7-1.6-1.2
				c0.8-0.1,1.4,0.4,2.1,0.6c0.3,0.1,0.9,0.4,1.2,0.2l0.5-1.1c0-0.9-0.1-4.6-0.2-5.5c-0.1-1.5-0.3-7.4,0.2-9.3
				c0.1-0.3,1-1.8,1.4-1.9c-0.1,0.9-0.9,1.4-0.9,3.5c0,1.8,0.1,3.9,0.1,5.7c0,1.5,0.1,2.9,0.1,4.3C189.5,93.8,189.7,99,188.4,99.7z"
				/>
			<g>
				<path class="st0" d="M186.7,112.3c-0.1-0.9-0.4-2.1-0.6-3.1c-0.2-1.4-0.7-3-1.1-4.4c-0.1-0.4-0.2-1.5-0.3-1.8
					c0,0.3,0.1,1.7,0.1,2c0.2,1.1,0.3,2,0.5,3.1c0.2,1.2,0.3,2.6,0.5,3.6c0.1,1,0.2,1.3,0.4,2.6c0.1,0.7-0.9,1.4-1.2,1.7
					c-0.3,0.3-1.2,0.6-2.1,0.6c-0.5,0-1.4,0-1.8-0.3c-0.3-0.2-0.3-0.7-0.5-0.9c-0.2-0.3-0.6-0.6-0.9-0.7c-0.7-0.4-1.4-0.3-2.2-0.3
					c-0.7,0-1.6,0.4-2.2-0.1c-0.3-0.2-0.4-0.9-0.4-1.3c0-0.5,0.4-0.7,0.6-1c0.3-0.5,0.6-0.9,1-1.2c0.3-0.2,0.6-0.5,0.9-0.5
					c0.3,0,0.5,0.1,0.7,0.2c0.5,0.1,0.3-0.5,0-0.6c-0.3-0.2-0.3-0.1-0.7,0c-0.7,0.2-1.7,0.8-2.1,1.3c-0.2,0.2-0.9,1.2-1.2,1.5
					s-0.5,0.5-0.7,0.8c-0.9,1-2.1,1.9-3.1,2.8c-1.8,1.4-2.4,2.9-3.2,4.9c0.6-0.4,1.2-1.6,1.6-2.2c0.8-1.2,1.6-1.8,2.5-2.7
					c0.9-0.9,1.9-1.5,2.6-2.5l0,0l0,0c0.1-0.2,0.4-0.6,0.5-0.2c0.1,0.3,0.1,0.6,0.2,0.9c0.1,0.3,0.3,0.6,0.5,0.8
					c0.2,0.1,0.6,0.2,0.8,0.3c0.7,0.2,1.5,0.1,2.2,0.2c0.4,0.1,1.2,0.2,1.3,0.7s-0.4,1.1-0.5,1.6c-0.1,0.4-0.3,1-0.2,1.5
					c0.1,0.3,0.2,0.9-0.2,1.2c-0.3,0.2-0.7,0.3-1.1,0.4c-0.5,0.1-0.6,0.1-1.1,0.1c-0.9,0.1-1.2,0.1-2.5,0.2c-0.9,0-1.4-0.3-2.4-0.1
					c-0.6,0.1-0.5,0-1.3,0.3l-0.8,0.5c-0.4,0.3-0.8,0.6-1,1.3c0.4-0.5,0.8-0.7,1-0.9c1.5-0.9,2.8-0.7,3.1-0.6
					c0.6,0.2,0.9,0.2,1.5,0.5c1.2,0.7,2.8,0.6,3.9-0.2c0.4-0.2,0.8-0.5,1.1-0.8c0.3-0.4,0.4-1.5,0.4-2s0.2-0.4,0.3-0.9
					c0.1-0.4,0-1.1,0.4-1.3c0.2-0.2,0.6,0,0.6,0c0.2-0.2,0.7,0.4,1.1,0.4c0.5,0,1.3,0.2,1.8,0c0.8-0.2,1.4-0.3,2-0.9
					c0.5-0.4,1.1-0.7,1.2-1.7C186.9,113.9,186.8,112.7,186.7,112.3z"/>
			</g>
		</g>
		<path class="st1" d="M175.8,126.3c0,0-0.8,0-2.1,0c-1.4,0-2.4-0.9-2.4-0.9v1.2c0,0,1.4,0.3,1.1,0.9c-0.3,0.6-1.2,0.6-1.7,0.3
			c-0.5-0.3-1.1-1.5-1.1-1.5l-0.6,0.6h-1.4l1.5,0.6c0,0,0.8,0.2,0.6,0.9c-0.2,0.8-0.6,0.9-0.8,1.4c0.6-0.4,0.6-1.1,2.1-1.1
			s2.4,0.3,2.4,0.3"/>
		<path class="st0" d="M171.9,122.4c0,0,1.1,0.6,1.9,1.2c0.8,0.7,1.7,0.8,1.7,0.8s-0.2-0.8-1.6-1.2"/>
		<path class="st1" d="M118.3,138.7c0.4-0.2,3.6,6.5,5.3,8.9c-0.2,0.1-0.5,0.9-0.8,0.7C121.5,147.3,119.4,141.1,118.3,138.7"/>
		<path class="st1" d="M112.7,128.1c-0.1,0.9,0.7,1.8,0.9,2.6c0.2,1,0.1,1.9,0.6,2.8c0.9,1.5,2.8,3.1,3.3,4.9
			c-0.1-2.4-1.2-3.1-2.3-5.1C114.4,131.8,114.3,128.7,112.7,128.1L112.7,128.1"/>
		<path class="st1" d="M116,134.7c0.1,0.1,0.1,0.3,0.2,0.4c0,0.3-0.6-0.3-0.8-0.2c-0.4,0.3-0.3,0.6-0.6,0.9
			c-0.2,0.2-9.6,9.6-9.7,9.6c-0.1-0.5-0.8-0.5-1.4-0.6c0-0.5,10.5-11.2,10.8-11.5c0.4-0.3,0.6-0.1,0.9,0.2
			C115.5,134,115.7,134.4,116,134.7z"/>
		<g>
			<path class="st1" d="M172.9,100.3c0,0,0.8-1.3,1.8-1.7c1.1-0.4,3.8-0.3,3.8-0.3s-2.4,0.2-3.4,0.6S172.9,100.3,172.9,100.3z"/>
		</g>
	</g>
	<g>
		<path class="st0" d="M154.5,64.7c0.4,0.1,0.7,0.3,1.1,0.4l0.2,0.1l0,0c0.1,0,0.2-0.1,0.3-0.1l0.3-0.1l-0.3-0.1
			c-0.8-0.3-1.5-0.6-2.3-0.9h-0.1l-0.1,0.1c0,0,0,0.1-0.1,0.1v0.1h0.1C154,64.5,154.2,64.6,154.5,64.7z"/>
		<path class="st0" d="M159.2,67c-0.2-0.1-0.4-0.2-0.6-0.2h-0.1l-0.1,0.1c0,0,0,0.1-0.1,0.1l-0.1,0.1h0.1c0.2,0.1,0.4,0.1,0.6,0.2
			c0.3,0.1,0.6,0.2,0.9,0.3h0.1v-0.1c0,0,0-0.1,0.1-0.1c0,0,0,0,0-0.1l0.1-0.1l-0.1-0.1C159.7,67.2,159.5,67.1,159.2,67z"/>
		<path class="st0" d="M156.1,68.3l-0.9-0.4l0.1,0.3c0,0,0,0,0,0.1s0.1,0.2,0.2,0.3l0,0c0.3,0.2,0.7,0.3,1,0.4l0.3,0.1l0,0
			c0.1,0,0.1,0,0.2-0.1l0.3-0.1l-0.2-0.1C156.9,68.6,156.5,68.4,156.1,68.3z"/>
		<path class="st0" d="M166.8,60.9L166.8,60.9c-0.1,0.1-0.1,0.1-0.1,0.1l-0.1,0.1h0.1c0.1,0,0.1,0,0.2,0.1c-0.1,0.4-0.3,0.7-0.4,1.1
			l-0.1,0.4h0.2h0.1h0.1v-0.1c0.1-0.5,0.3-0.9,0.4-1.4c0.3,0.1,0.5,0.2,0.8,0.2c0.4,0.1,0.7,0.2,1.1,0.4h0.1v-0.1
			c0-0.1,0.1-0.1,0.1-0.2l0.1-0.1L166.8,60.9L166.8,60.9z"/>
		<path class="st0" d="M159.1,66.5L159.1,66.5l0.1-0.1c0.1-0.3,0.2-0.6,0.3-0.9l0.2-0.7h-0.4v0.1c-0.1,0.3-0.3,0.7-0.4,1.1l-0.2,0.5
			h0.1C159,66.4,159.1,66.4,159.1,66.5z"/>
		<path class="st0" d="M161.4,67.8L161.4,67.8l-0.1,0.1c-0.1,0.4-0.3,0.7-0.4,1.1l-0.2,0.4h0.1c0.1,0,0.2,0,0.2,0h0.1l0.5-1.7
			L161.4,67.8L161.4,67.8z"/>
		<path class="st0" d="M159.5,68.4c-0.1,0.3-0.2,0.6-0.4,1l-0.2,0.6h0.1c0.1,0,0.1,0,0.2,0h0.1v-0.1c0.1-0.5,0.3-1,0.5-1.5v-0.1
			L159.5,68.4L159.5,68.4z"/>
		<path class="st0" d="M165.5,59.8c-0.1,0.2-0.2,0.4-0.2,0.6c-0.1,0.3-0.2,0.5-0.3,0.8v0.1l0.4,0.1l0.2-0.6c0.1-0.3,0.2-0.6,0.3-1
			v-0.1L165.5,59.8L165.5,59.8z"/>
		<path class="st0" d="M177.5,64.3l-0.2,0.5c-0.1,0.3-0.2,0.7-0.4,1v0.1h0.1c0.1,0,0.1,0,0.2,0h0.1l0.5-1.7L177.5,64.3L177.5,64.3z"
			/>
		<path class="st0" d="M166.9,59.4h0.1h0.1v-0.1c0.1-0.5,0.3-1,0.5-1.5v-0.1h-0.4v0.1c-0.1,0.3-0.2,0.6-0.3,0.9
			c-0.1,0.2-0.1,0.4-0.2,0.5v0.1L166.9,59.4C166.8,59.4,166.9,59.4,166.9,59.4z"/>
		<path class="st0" d="M155.5,66.1c-3.8-1.3-3.8-1.3-3.8-1.3s-0.1,0-0.2,0.3l-0.1,0.1l3.4,1.2l-0.8,1.8l0.6,0.1L155.5,66.1
			L155.5,66.1z"/>
	</g>
	<g>
		<path class="st0" d="M121.4,219.2c4.8,1,8.1,2.3,10,3.7c2.8,2.1,4.1,4.8,4.1,8.1c0,3.5-1.5,6.4-4.5,8.7c-3.7,2.8-9.1,4.1-16.2,4.1
			H89.3v-1.3c2.3,0,3.9-0.2,4.7-0.6c0.8-0.4,1.4-0.9,1.7-1.6c0.3-0.6,0.5-2.2,0.5-4.7v-30.1c0-2.5-0.2-4.1-0.5-4.7
			c-0.3-0.7-0.9-1.2-1.8-1.6c-0.8-0.4-2.4-0.6-4.7-0.6v-1.3h24c5.7,0,9.8,0.5,12.2,1.4c2.4,0.9,4.3,2.4,5.7,4.2
			c1.4,1.9,2.1,3.9,2.1,6c0,2.2-0.9,4.2-2.6,6C128.9,216.8,125.8,218.2,121.4,219.2z M107.9,220.9v14.9v1.7c0,1.2,0.3,2.2,1,2.8
			s1.7,0.9,3,0.9c2,0,3.8-0.4,5.5-1.2s2.9-2,3.8-3.5s1.3-3.3,1.3-5.2c0-2.2-0.5-4.1-1.6-5.8s-2.6-2.9-4.5-3.6
			C114.5,221.2,111.7,220.9,107.9,220.9z M107.9,218.3c3.5,0,6.1-0.4,7.7-1.1c1.7-0.7,2.9-1.8,3.8-3.1s1.3-3,1.3-5.1s-0.4-3.7-1.3-5
			s-2.1-2.3-3.8-3c-1.6-0.7-4.2-1-7.8-1v18.3H107.9z"/>
		<path class="st0" d="M170.5,242.5v1.3h-26.2v-1.3h1.7c1.5,0,2.6-0.2,3.5-0.7c0.6-0.3,1.1-0.9,1.5-1.6c0.3-0.5,0.4-2,0.4-4.3v-30.5
			c0-2.4-0.1-3.9-0.4-4.4c-0.3-0.6-0.8-1.1-1.6-1.6c-0.8-0.4-1.9-0.7-3.3-0.7h-1.7v-1.3h26.2v1.3h-1.7c-1.5,0-2.6,0.2-3.5,0.7
			c-0.6,0.3-1.1,0.9-1.5,1.6c-0.3,0.5-0.4,2-0.4,4.3v30.5c0,2.4,0.1,3.9,0.4,4.4c0.3,0.6,0.8,1.1,1.7,1.6c0.8,0.4,1.9,0.7,3.3,0.7
			H170.5z"/>
		<path class="st0" d="M212.3,196.3l0.4,15.5h-1.5c-0.7-3.9-2.5-7-5.3-9.4s-5.8-3.5-9.1-3.5c-2.5,0-4.5,0.6-6,1.9
			c-1.5,1.2-2.2,2.7-2.2,4.3c0,1,0.3,1.9,0.8,2.7c0.7,1.1,1.9,2.1,3.4,3.2c1.2,0.8,3.8,2.1,8,4c5.9,2.7,9.8,5.2,11.9,7.6
			c2,2.4,3,5.1,3,8.1c0,3.9-1.6,7.2-4.9,10c-3.3,2.8-7.4,4.2-12.4,4.2c-1.6,0-3.1-0.1-4.5-0.4c-1.4-0.3-3.2-0.9-5.3-1.7
			c-1.2-0.5-2.2-0.7-2.9-0.7c-0.6,0-1.3,0.2-2,0.7s-1.3,1.2-1.7,2.1h-1.4v-17.5h1.4c1.1,4.9,3.2,8.7,6.3,11.3s6.4,3.9,10,3.9
			c2.8,0,5-0.7,6.6-2.1s2.5-3,2.5-4.9c0-1.1-0.3-2.2-0.9-3.2c-0.6-1-1.6-2-2.9-2.9c-1.3-0.9-3.5-2.1-6.8-3.6
			c-4.6-2.1-7.8-3.8-9.8-5.3s-3.5-3.1-4.6-4.9c-1.1-1.8-1.6-3.8-1.6-6c0-3.7,1.5-6.8,4.4-9.4c2.9-2.6,6.6-3.9,11.1-3.9
			c1.6,0,3.2,0.2,4.7,0.5c1.2,0.3,2.6,0.8,4.2,1.5c1.7,0.7,2.8,1.1,3.5,1.1c0.6,0,1.1-0.2,1.5-0.5c0.4-0.4,0.7-1.2,1-2.6h1.1V196.3z
			"/>
		<path class="st0" d="M248.9,230.6h-17.7l-2.1,4.5c-0.7,1.5-1,2.7-1,3.7c0,1.3,0.6,2.3,1.7,2.9c0.7,0.4,2.3,0.6,4.9,0.8v1.3H218
			v-1.3c1.8-0.3,3.3-0.9,4.4-2.1c1.2-1.1,2.6-3.5,4.3-7l17.9-37h0.7l18.1,38.1c1.7,3.6,3.1,5.9,4.3,6.8c0.8,0.7,2,1.1,3.5,1.2v1.3
			h-24.3v-1.3h1c1.9,0,3.3-0.3,4.1-0.8c0.5-0.4,0.8-0.9,0.8-1.6c0-0.4-0.1-0.8-0.2-1.3c-0.1-0.2-0.4-1.1-1.1-2.6L248.9,230.6z
			 M247.6,228l-7.5-16l-7.7,16H247.6z"/>
	</g>
	<g>
		<path class="st0" d="M351.1,202.4c1.7,0.4,2.9,0.9,3.6,1.4c1,0.8,1.5,1.9,1.5,3.1c0,1.4-0.5,2.5-1.6,3.4c-1.3,1.1-3.3,1.6-5.8,1.6
			h-9.1v-0.5c0.8,0,1.4-0.1,1.7-0.2c0.3-0.2,0.5-0.4,0.6-0.6c0.1-0.2,0.2-0.9,0.2-1.8v-11.7c0-1-0.1-1.6-0.2-1.8
			c-0.1-0.3-0.3-0.5-0.6-0.6c-0.3-0.2-0.9-0.2-1.7-0.2V194h8.6c2.1,0,3.5,0.2,4.4,0.6c0.9,0.4,1.5,0.9,2,1.6
			c0.5,0.7,0.7,1.5,0.7,2.3c0,0.9-0.3,1.6-0.9,2.3C353.8,201.5,352.7,202,351.1,202.4z M346.3,203.1v5.8v0.7c0,0.5,0.1,0.8,0.4,1.1
			c0.2,0.2,0.6,0.4,1.1,0.4c0.7,0,1.4-0.2,2-0.5s1.1-0.8,1.4-1.4c0.3-0.6,0.5-1.3,0.5-2c0-0.8-0.2-1.6-0.6-2.3s-0.9-1.1-1.6-1.4
			C348.6,203.2,347.6,203.1,346.3,203.1z M346.3,202.1c1.3,0,2.2-0.1,2.8-0.4c0.6-0.3,1.1-0.7,1.4-1.2s0.5-1.2,0.5-2s-0.2-1.4-0.5-2
			c-0.3-0.5-0.8-0.9-1.3-1.2c-0.6-0.3-1.5-0.4-2.8-0.4v7.2H346.3z"/>
		<path class="st0" d="M364,199.2c1.1,0,2.1,0.3,3,0.8c0.9,0.6,1.6,1.3,2.1,2.4c0.5,1,0.7,2.2,0.7,3.4c0,1.8-0.4,3.2-1.3,4.4
			c-1.1,1.4-2.6,2.2-4.5,2.2s-3.3-0.7-4.3-2s-1.5-2.8-1.5-4.6s0.5-3.3,1.5-4.7C360.8,199.9,362.2,199.2,364,199.2z M364.1,200.1
			c-0.5,0-0.8,0.2-1.2,0.5c-0.3,0.3-0.5,1-0.6,2s-0.2,2.4-0.2,4.2c0,0.9,0.1,1.8,0.2,2.7c0.1,0.6,0.3,1.1,0.6,1.4
			c0.3,0.3,0.7,0.5,1.1,0.5s0.7-0.1,1-0.3c0.3-0.3,0.6-0.7,0.7-1.3c0.2-0.8,0.3-2.5,0.3-5.1c0-1.5-0.1-2.5-0.3-3.1
			c-0.2-0.6-0.4-1-0.7-1.2C364.8,200.2,364.5,200.1,364.1,200.1z"/>
		<path class="st0" d="M377.1,199.6v2.8c0.8-1.3,1.5-2.1,2.2-2.6c0.6-0.4,1.2-0.6,1.8-0.6c0.5,0,0.9,0.2,1.2,0.5
			c0.3,0.3,0.4,0.7,0.4,1.3s-0.1,1.1-0.4,1.4c-0.3,0.3-0.6,0.5-1,0.5c-0.5,0-0.9-0.1-1.2-0.5c-0.3-0.3-0.5-0.5-0.6-0.5
			c-0.1-0.1-0.2-0.1-0.3-0.1c-0.3,0-0.5,0.1-0.7,0.3c-0.4,0.3-0.6,0.7-0.8,1.3c-0.3,0.9-0.4,1.8-0.4,2.8v2.9v0.7c0,0.5,0,0.8,0.1,1
			s0.3,0.4,0.5,0.5s0.6,0.2,1.1,0.2v0.5h-7v-0.5c0.5,0,0.9-0.2,1.1-0.4c0.2-0.3,0.3-0.9,0.3-2v-6.9c0-0.7,0-1.2-0.1-1.4
			s-0.2-0.4-0.4-0.5c-0.2-0.1-0.5-0.2-0.9-0.2v-0.5H377.1z"/>
		<path class="st0" d="M389,194v15.4c0,0.9,0.1,1.4,0.3,1.7c0.2,0.2,0.6,0.4,1.2,0.4v0.5h-6.7v-0.5c0.5,0,1-0.2,1.2-0.5
			c0.2-0.2,0.3-0.7,0.3-1.6v-12.9c0-0.9-0.1-1.4-0.3-1.7c-0.2-0.2-0.6-0.4-1.2-0.4v-0.5h5.2V194z"/>
		<path class="st0" d="M398.7,210.2c-1.5,1.3-2.9,2-4.1,2c-0.7,0-1.3-0.2-1.8-0.7s-0.7-1-0.7-1.7c0-0.9,0.4-1.8,1.2-2.6
			c0.8-0.8,2.6-1.8,5.3-3V203c0-0.9-0.1-1.5-0.2-1.8c-0.1-0.2-0.3-0.5-0.6-0.6c-0.3-0.2-0.6-0.3-1-0.3c-0.6,0-1,0.1-1.4,0.4
			c-0.2,0.2-0.3,0.3-0.3,0.6c0,0.2,0.1,0.4,0.4,0.7c0.3,0.4,0.5,0.7,0.5,1.1c0,0.4-0.2,0.8-0.5,1.1s-0.7,0.5-1.3,0.5
			c-0.6,0-1-0.2-1.4-0.5s-0.6-0.7-0.6-1.2c0-0.6,0.3-1.2,0.8-1.8s1.2-1,2.1-1.3s1.8-0.5,2.8-0.5c1.2,0,2.1,0.2,2.8,0.7
			c0.7,0.5,1.1,1,1.3,1.6c0.1,0.4,0.2,1.2,0.2,2.6v4.8c0,0.6,0,0.9,0.1,1.1c0,0.1,0.1,0.3,0.2,0.3c0.1,0.1,0.2,0.1,0.3,0.1
			c0.2,0,0.5-0.2,0.7-0.5l0.4,0.3c-0.4,0.7-0.9,1.1-1.4,1.4c-0.5,0.3-1,0.4-1.6,0.4c-0.7,0-1.3-0.2-1.7-0.5
			C399,211.3,398.7,210.8,398.7,210.2z M398.7,209.2V205c-1.1,0.6-1.9,1.3-2.4,2c-0.3,0.5-0.5,1-0.5,1.4s0.1,0.8,0.4,1.1
			c0.2,0.2,0.5,0.4,0.9,0.4C397.6,209.9,398.1,209.7,398.7,209.2z"/>
		<path class="st0" d="M417.5,199.6v9.7c0,0.9,0.1,1.5,0.3,1.8c0.2,0.2,0.5,0.4,1.1,0.4v0.5h-5.1v-1.7c-0.6,0.7-1.2,1.2-1.8,1.5
			c-0.6,0.3-1.3,0.5-2,0.5s-1.3-0.2-1.9-0.6c-0.5-0.4-0.9-0.9-1.1-1.5s-0.3-1.6-0.3-3v-4.9c0-0.9-0.1-1.5-0.3-1.8
			c-0.2-0.2-0.5-0.4-1.1-0.5v-0.5h5.1v8.5c0,0.9,0,1.5,0.1,1.7c0.1,0.3,0.2,0.5,0.4,0.6c0.2,0.1,0.4,0.2,0.6,0.2
			c0.3,0,0.6-0.1,0.9-0.3c0.4-0.2,0.8-0.7,1.3-1.4v-6.6c0-0.9-0.1-1.5-0.3-1.8c-0.2-0.2-0.5-0.4-1.1-0.5v-0.5h5.2V199.6z"/>
		<path class="st0" d="M428.8,199.7h4.2v1.5h-2.4c0.4,0.4,0.7,0.8,0.9,1.2c0.2,0.5,0.3,1,0.3,1.5c0,0.9-0.2,1.7-0.7,2.3
			c-0.5,0.7-1.2,1.2-2,1.5c-0.8,0.4-1.6,0.6-2.3,0.6c-0.1,0-0.6,0-1.6-0.1c-0.4,0-0.7,0.1-1,0.4s-0.4,0.6-0.4,0.9
			c0,0.3,0.1,0.6,0.4,0.8c0.2,0.2,0.6,0.3,1.2,0.3h2.3c1.9,0,3.1,0.2,3.8,0.6c1,0.6,1.5,1.4,1.5,2.6c0,0.8-0.2,1.4-0.7,2.1
			c-0.5,0.6-1.1,1.1-1.8,1.4c-1.1,0.4-2.5,0.7-3.9,0.7c-1.1,0-2.1-0.1-3.1-0.3c-0.9-0.2-1.6-0.5-2-0.9s-0.6-0.8-0.6-1.2
			s0.2-0.8,0.5-1.1s0.9-0.6,1.7-0.8c-1.2-0.6-1.7-1.4-1.7-2.4c0-0.6,0.2-1.2,0.7-1.8s1.2-1.1,2.2-1.5c-1.2-0.4-2-1-2.6-1.7
			c-0.5-0.7-0.8-1.5-0.8-2.5c0-1.2,0.5-2.3,1.5-3.2s2.3-1.3,3.8-1.3C427,199.2,427.9,199.4,428.8,199.7z M425.7,213.8
			c-0.9,0-1.5,0.1-1.8,0.2c-0.5,0.3-0.8,0.6-0.8,1.1s0.3,0.9,0.8,1.2c0.5,0.4,1.5,0.6,2.9,0.6c1.2,0,2.2-0.2,2.9-0.5
			c0.7-0.3,1.1-0.8,1.1-1.4c0-0.2-0.1-0.4-0.2-0.6c-0.2-0.3-0.6-0.4-1.1-0.5C429.1,213.9,427.8,213.8,425.7,213.8z M426.5,200
			c-0.5,0-0.9,0.3-1.3,0.8s-0.5,1.6-0.5,3.2c0,1.3,0.2,2.2,0.5,2.7s0.8,0.7,1.2,0.7c0.5,0,1-0.2,1.3-0.7c0.4-0.5,0.5-1.4,0.5-2.8
			c0-1.6-0.2-2.7-0.6-3.2C427.4,200.2,427,200,426.5,200z"/>
		<path class="st0" d="M450.5,211.5v0.5h-9.4v-0.5h0.6c0.5,0,0.9-0.1,1.3-0.3c0.2-0.1,0.4-0.3,0.5-0.6c0.1-0.2,0.1-0.8,0.1-1.7
			v-11.8c0-0.9,0-1.5-0.1-1.7s-0.3-0.4-0.6-0.6c-0.3-0.2-0.7-0.3-1.2-0.3h-0.6V194h9.4v0.5h-0.6c-0.5,0-0.9,0.1-1.3,0.3
			c-0.2,0.1-0.4,0.3-0.5,0.6c-0.1,0.2-0.1,0.8-0.1,1.7v11.8c0,0.9,0.1,1.5,0.2,1.7s0.3,0.4,0.6,0.6c0.3,0.2,0.7,0.3,1.2,0.3H450.5z"
			/>
		<path class="st0" d="M457.3,199.6v1.6c0.6-0.7,1.2-1.2,1.8-1.5c0.6-0.3,1.2-0.5,1.9-0.5c0.8,0,1.5,0.2,2,0.7
			c0.5,0.4,0.9,1,1.1,1.7c0.1,0.5,0.2,1.5,0.2,2.9v4.8c0,1,0.1,1.6,0.3,1.8c0.2,0.2,0.5,0.4,1.1,0.4v0.5h-6.3v-0.5
			c0.5-0.1,0.8-0.3,1-0.6c0.1-0.2,0.2-0.8,0.2-1.6v-5.5c0-1,0-1.7-0.1-1.9c-0.1-0.3-0.2-0.5-0.4-0.6c-0.2-0.1-0.4-0.2-0.6-0.2
			c-0.8,0-1.5,0.5-2.1,1.6v6.7c0,0.9,0.1,1.5,0.3,1.8c0.2,0.2,0.5,0.4,1,0.5v0.5h-6.3v-0.5c0.5-0.1,0.9-0.2,1.1-0.5
			c0.1-0.2,0.2-0.8,0.2-1.7v-7c0-0.9-0.1-1.5-0.3-1.8c-0.2-0.2-0.5-0.4-1.1-0.5v-0.5L457.3,199.6L457.3,199.6z"/>
		<path class="st0" d="M475.3,199.2l0.2,4.2H475c-0.5-1.3-1.1-2.1-1.7-2.6s-1.2-0.7-1.7-0.7c-0.4,0-0.7,0.1-0.9,0.4
			c-0.3,0.2-0.4,0.5-0.4,0.8c0,0.2,0.1,0.5,0.3,0.7c0.3,0.4,1.1,1,2.4,1.9s2.2,1.6,2.6,2.2c0.4,0.6,0.6,1.3,0.6,2.1
			c0,0.7-0.2,1.4-0.5,2c-0.3,0.7-0.8,1.2-1.5,1.5c-0.6,0.4-1.3,0.5-2.1,0.5c-0.6,0-1.4-0.2-2.4-0.6c-0.3-0.1-0.4-0.1-0.5-0.1
			c-0.3,0-0.5,0.2-0.7,0.7H468l-0.2-4.5h0.5c0.4,1.2,0.9,2,1.6,2.6s1.4,0.9,2,0.9c0.4,0,0.8-0.1,1-0.4c0.3-0.3,0.4-0.6,0.4-0.9
			c0-0.4-0.1-0.8-0.4-1.1s-0.9-0.8-1.8-1.4c-1.4-0.9-2.2-1.7-2.6-2.2c-0.6-0.7-0.9-1.5-0.9-2.4c0-1,0.3-1.8,1-2.6s1.6-1.2,2.9-1.2
			c0.7,0,1.3,0.2,2,0.5c0.2,0.1,0.4,0.2,0.6,0.2s0.3,0,0.4-0.1s0.3-0.3,0.5-0.6h0.3V199.2z"/>
		<path class="st0" d="M483.1,195v4.5h2.9v1.3h-2.9v7.7c0,0.7,0,1.2,0.1,1.4s0.2,0.4,0.4,0.5c0.2,0.1,0.3,0.2,0.5,0.2
			c0.6,0,1.1-0.4,1.6-1.3l0.4,0.3c-0.7,1.7-1.9,2.5-3.5,2.5c-0.8,0-1.5-0.2-2-0.7c-0.5-0.4-0.9-0.9-1-1.5c-0.1-0.3-0.1-1.1-0.1-2.4
			v-6.7h-1.6v-0.5c1.1-0.8,2.1-1.6,2.8-2.5c0.8-0.9,1.5-1.8,2.1-2.9L483.1,195L483.1,195z"/>
		<path class="st0" d="M492.2,199.6v9.8c0,0.9,0.1,1.4,0.3,1.7c0.2,0.2,0.6,0.4,1.2,0.4v0.5H487v-0.5c0.5,0,1-0.2,1.2-0.5
			c0.2-0.2,0.3-0.7,0.3-1.6v-7.2c0-0.9-0.1-1.4-0.3-1.7c-0.2-0.2-0.6-0.4-1.2-0.4v-0.5H492.2z M490.3,193.6c0.6,0,1.1,0.2,1.5,0.6
			c0.4,0.4,0.6,0.9,0.6,1.5s-0.2,1-0.6,1.4s-0.9,0.6-1.5,0.6s-1-0.2-1.4-0.6c-0.4-0.4-0.6-0.9-0.6-1.4c0-0.6,0.2-1.1,0.6-1.5
			S489.8,193.6,490.3,193.6z"/>
		<path class="st0" d="M500,195v4.5h2.9v1.3H500v7.7c0,0.7,0,1.2,0.1,1.4s0.2,0.4,0.4,0.5c0.2,0.1,0.3,0.2,0.5,0.2
			c0.6,0,1.1-0.4,1.6-1.3l0.4,0.3c-0.7,1.7-1.9,2.5-3.5,2.5c-0.8,0-1.5-0.2-2-0.7c-0.5-0.4-0.9-0.9-1-1.5c-0.1-0.3-0.1-1.1-0.1-2.4
			v-6.7h-1.6v-0.5c1.1-0.8,2.1-1.6,2.8-2.5c0.8-0.9,1.5-1.8,2.1-2.9L500,195L500,195z"/>
		<path class="st0" d="M516.2,199.6v9.7c0,0.9,0.1,1.5,0.3,1.8c0.2,0.2,0.5,0.4,1.1,0.4v0.5h-5.1v-1.7c-0.6,0.7-1.2,1.2-1.8,1.5
			c-0.6,0.3-1.3,0.5-2,0.5s-1.3-0.2-1.9-0.6c-0.5-0.4-0.9-0.9-1.1-1.5s-0.3-1.6-0.3-3v-4.9c0-0.9-0.1-1.5-0.3-1.8
			c-0.2-0.2-0.5-0.4-1.1-0.5v-0.5h5.1v8.5c0,0.9,0,1.5,0.1,1.7c0.1,0.3,0.2,0.5,0.4,0.6c0.2,0.1,0.4,0.2,0.6,0.2
			c0.3,0,0.6-0.1,0.9-0.3c0.4-0.2,0.8-0.7,1.3-1.4v-6.6c0-0.9-0.1-1.5-0.3-1.8c-0.2-0.2-0.5-0.4-1.1-0.5v-0.5h5.2V199.6z"/>
		<path class="st0" d="M524.4,195v4.5h2.9v1.3h-2.9v7.7c0,0.7,0,1.2,0.1,1.4s0.2,0.4,0.4,0.5s0.3,0.2,0.5,0.2c0.6,0,1.1-0.4,1.6-1.3
			l0.4,0.3c-0.7,1.7-1.9,2.5-3.5,2.5c-0.8,0-1.5-0.2-2-0.7c-0.5-0.4-0.9-0.9-1-1.5c-0.1-0.3-0.1-1.1-0.1-2.4v-6.7h-1.6v-0.5
			c1.1-0.8,2.1-1.6,2.8-2.5c0.8-0.9,1.5-1.8,2.1-2.9L524.4,195L524.4,195z"/>
		<path class="st0" d="M539.2,205.3h-6.8c0.1,1.6,0.5,2.9,1.3,3.9c0.6,0.7,1.3,1.1,2.2,1.1c0.5,0,1-0.1,1.4-0.4
			c0.4-0.3,0.9-0.8,1.4-1.6l0.5,0.3c-0.7,1.4-1.4,2.3-2.2,2.9c-0.8,0.6-1.8,0.9-2.8,0.9c-1.8,0-3.2-0.7-4.2-2.1
			c-0.8-1.1-1.1-2.6-1.1-4.2c0-2.1,0.6-3.7,1.7-4.9c1.1-1.2,2.4-1.8,3.9-1.8c1.3,0,2.3,0.5,3.3,1.5
			C538.6,201.8,539.1,203.3,539.2,205.3z M535.9,204.4c0-1.4-0.1-2.4-0.2-2.9c-0.2-0.5-0.4-0.9-0.7-1.2c-0.2-0.2-0.4-0.2-0.7-0.2
			c-0.5,0-0.8,0.2-1.1,0.7c-0.5,0.8-0.8,1.9-0.8,3.2v0.5h3.5V204.4z"/>
		<path class="st0" d="M345.3,233.5v8.6c0,0.8,0.1,1.4,0.3,1.6c0.3,0.3,0.8,0.5,1.6,0.5v0.5h-7.3v-0.5c0.6,0,1-0.1,1.2-0.2
			c0.2-0.1,0.4-0.3,0.5-0.5s0.1-0.7,0.1-1.3v-8.6h-1.8v-1.3h1.8v-0.9v-0.6c0-1.3,0.5-2.3,1.4-3.2c0.9-0.8,2.2-1.3,3.8-1.3
			c1.1,0,1.9,0.2,2.4,0.6c0.5,0.4,0.8,0.9,0.8,1.4c0,0.4-0.2,0.7-0.5,1s-0.8,0.4-1.3,0.4s-0.8-0.1-1.1-0.4c-0.3-0.2-0.4-0.5-0.4-0.8
			c0-0.1,0-0.2,0.1-0.5c0-0.1,0.1-0.3,0.1-0.4c0-0.2-0.1-0.3-0.2-0.4c-0.1-0.1-0.3-0.2-0.5-0.2c-0.3,0-0.5,0.1-0.6,0.3
			c-0.2,0.2-0.3,0.6-0.3,1v2.3v1.6h1.8v1.3L345.3,233.5L345.3,233.5z"/>
		<path class="st0" d="M355,231.8c1.1,0,2.1,0.3,3,0.8c0.9,0.6,1.6,1.3,2.1,2.4c0.5,1,0.7,2.2,0.7,3.4c0,1.8-0.4,3.2-1.3,4.4
			c-1.1,1.4-2.6,2.2-4.5,2.2s-3.3-0.7-4.3-2s-1.5-2.8-1.5-4.6s0.5-3.3,1.5-4.7C351.7,232.5,353.2,231.8,355,231.8z M355,232.8
			c-0.5,0-0.8,0.2-1.2,0.5c-0.3,0.3-0.5,1-0.6,2s-0.2,2.4-0.2,4.2c0,0.9,0.1,1.8,0.2,2.7c0.1,0.6,0.3,1.1,0.6,1.4
			c0.3,0.3,0.7,0.5,1.1,0.5s0.7-0.1,1-0.3c0.3-0.3,0.6-0.7,0.7-1.3c0.2-0.8,0.3-2.5,0.3-5.1c0-1.5-0.1-2.5-0.3-3.1
			c-0.2-0.6-0.4-1-0.7-1.2C355.7,232.9,355.4,232.8,355,232.8z"/>
		<path class="st0" d="M368,232.2v2.8c0.8-1.3,1.5-2.1,2.2-2.6c0.6-0.4,1.2-0.6,1.8-0.6c0.5,0,0.9,0.2,1.2,0.5
			c0.3,0.3,0.4,0.7,0.4,1.3s-0.1,1.1-0.4,1.4c-0.3,0.3-0.6,0.5-1,0.5c-0.5,0-0.9-0.1-1.2-0.5c-0.3-0.3-0.5-0.5-0.6-0.5
			c-0.1-0.1-0.2-0.1-0.3-0.1c-0.3,0-0.5,0.1-0.7,0.3c-0.4,0.3-0.6,0.7-0.8,1.3c-0.3,0.9-0.4,1.8-0.4,2.8v2.9v0.7c0,0.5,0,0.8,0.1,1
			s0.3,0.4,0.5,0.5s0.6,0.2,1.1,0.2v0.5h-6.7v-0.5c0.5,0,0.9-0.2,1.1-0.4c0.2-0.3,0.3-0.9,0.3-2v-6.9c0-0.7,0-1.2-0.1-1.4
			s-0.2-0.4-0.4-0.5c-0.2-0.1-0.5-0.2-0.9-0.2v-0.5H368z"/>
		<path class="st0" d="M393.3,226.2l0.1,6h-0.5c-0.3-1.5-0.9-2.7-1.9-3.6c-1-0.9-2.1-1.4-3.3-1.4c-0.9,0-1.6,0.2-2.1,0.7
			s-0.8,1-0.8,1.7c0,0.4,0.1,0.8,0.3,1.1c0.3,0.4,0.7,0.8,1.2,1.2c0.4,0.3,1.4,0.8,2.9,1.6c2.1,1,3.5,2,4.3,2.9
			c0.7,0.9,1.1,2,1.1,3.2c0,1.5-0.6,2.8-1.8,3.9c-1.2,1.1-2.7,1.6-4.5,1.6c-0.6,0-1.1-0.1-1.6-0.2c-0.5-0.1-1.1-0.3-1.9-0.6
			c-0.4-0.2-0.8-0.3-1-0.3s-0.5,0.1-0.7,0.3c-0.3,0.2-0.5,0.4-0.6,0.8H382v-6.8h0.5c0.4,1.9,1.1,3.4,2.3,4.4c1.1,1,2.3,1.5,3.6,1.5
			c1,0,1.8-0.3,2.4-0.8s0.9-1.2,0.9-1.9c0-0.4-0.1-0.8-0.3-1.2c-0.2-0.4-0.6-0.8-1-1.1c-0.5-0.4-1.3-0.8-2.4-1.4
			c-1.6-0.8-2.8-1.5-3.5-2.1s-1.3-1.2-1.7-1.9c-0.4-0.7-0.6-1.5-0.6-2.3c0-1.4,0.5-2.7,1.6-3.7s2.4-1.5,4-1.5c0.6,0,1.2,0.1,1.7,0.2
			c0.4,0.1,0.9,0.3,1.5,0.6s1,0.4,1.3,0.4c0.2,0,0.4-0.1,0.5-0.2c0.1-0.1,0.3-0.5,0.4-1L393.3,226.2L393.3,226.2z"/>
		<path class="st0" d="M402.6,231.8c1.1,0,2.1,0.3,3,0.8c0.9,0.6,1.6,1.3,2.1,2.4c0.5,1,0.7,2.2,0.7,3.4c0,1.8-0.4,3.2-1.3,4.4
			c-1.1,1.4-2.6,2.2-4.5,2.2s-3.3-0.7-4.3-2s-1.5-2.8-1.5-4.6s0.5-3.3,1.5-4.7C399.4,232.5,400.8,231.8,402.6,231.8z M402.6,232.8
			c-0.5,0-0.8,0.2-1.2,0.5c-0.3,0.3-0.5,1-0.6,2s-0.2,2.4-0.2,4.2c0,0.9,0.1,1.8,0.2,2.7c0.1,0.6,0.3,1.1,0.6,1.4
			c0.3,0.3,0.7,0.5,1.1,0.5s0.7-0.1,1-0.3c0.3-0.3,0.6-0.7,0.7-1.3c0.2-0.8,0.3-2.5,0.3-5.1c0-1.5-0.1-2.5-0.3-3.1
			c-0.2-0.6-0.4-1-0.7-1.2C403.3,232.9,403,232.8,402.6,232.8z"/>
		<path class="st0" d="M422.5,232.2v9.7c0,0.9,0.1,1.5,0.3,1.8c0.2,0.2,0.5,0.4,1.1,0.4v0.5h-5.1v-1.7c-0.6,0.7-1.2,1.2-1.8,1.5
			c-0.6,0.3-1.3,0.5-2,0.5s-1.3-0.2-1.9-0.6c-0.5-0.4-0.9-0.9-1.1-1.5s-0.3-1.6-0.3-3v-4.9c0-0.9-0.1-1.5-0.3-1.8
			c-0.2-0.2-0.5-0.4-1.1-0.5v-0.5h5.1v8.5c0,0.9,0,1.5,0.1,1.7c0.1,0.3,0.2,0.5,0.4,0.6c0.2,0.1,0.4,0.2,0.6,0.2
			c0.3,0,0.6-0.1,0.9-0.3c0.4-0.2,0.8-0.7,1.3-1.4v-6.6c0-0.9-0.1-1.5-0.3-1.8c-0.2-0.2-0.5-0.4-1.1-0.5V232h5.2V232.2z"/>
		<path class="st0" d="M430.7,227.7v4.5h2.9v1.3h-2.9v7.7c0,0.7,0,1.2,0.1,1.4s0.2,0.4,0.4,0.5c0.2,0.1,0.3,0.2,0.5,0.2
			c0.6,0,1.1-0.4,1.6-1.3l0.4,0.3c-0.7,1.7-1.9,2.5-3.5,2.5c-0.8,0-1.5-0.2-2-0.7c-0.5-0.4-0.9-0.9-1-1.5c-0.1-0.3-0.1-1.1-0.1-2.4
			v-6.7h-1.6V233c1.1-0.8,2.1-1.6,2.8-2.5c0.8-0.9,1.5-1.8,2.1-2.9L430.7,227.7L430.7,227.7z"/>
		<path class="st0" d="M440,226.6v7.2c0.7-0.7,1.3-1.2,1.9-1.5s1.2-0.4,1.8-0.4c0.8,0,1.4,0.2,2,0.7c0.6,0.4,0.9,1,1.1,1.6
			s0.3,1.6,0.3,3v4.8c0,0.9,0.1,1.5,0.3,1.8c0.2,0.2,0.5,0.4,1.1,0.4v0.5h-6.3v-0.5c0.4-0.1,0.8-0.2,1-0.5c0.2-0.2,0.2-0.8,0.2-1.7
			v-5.5c0-1,0-1.7-0.1-1.9c-0.1-0.3-0.2-0.5-0.4-0.6c-0.2-0.1-0.4-0.2-0.6-0.2c-0.4,0-0.7,0.1-1,0.4c-0.3,0.2-0.7,0.7-1.1,1.3v6.7
			c0,0.9,0.1,1.4,0.2,1.7c0.2,0.3,0.5,0.5,1,0.6v0.5h-6.3v-0.5c0.5-0.1,0.9-0.2,1.1-0.5c0.1-0.2,0.2-0.8,0.2-1.7v-12.6
			c0-0.9-0.1-1.5-0.3-1.8c-0.2-0.2-0.5-0.4-1.1-0.5v-0.5h5V226.6z"/>
		<path class="st0" d="M466,239.5h-6.4l-0.8,1.8c-0.2,0.6-0.4,1.1-0.4,1.4c0,0.5,0.2,0.9,0.6,1.1c0.2,0.1,0.8,0.2,1.8,0.3v0.5h-6
			v-0.5c0.6-0.1,1.2-0.4,1.6-0.8c0.4-0.4,0.9-1.3,1.5-2.7l6.4-14.4h0.3l6.5,14.8c0.6,1.4,1.1,2.3,1.5,2.6c0.3,0.3,0.7,0.4,1.3,0.5
			v0.5h-8.7v-0.5h0.4c0.7,0,1.2-0.1,1.5-0.3c0.2-0.1,0.3-0.3,0.3-0.6c0-0.2,0-0.3-0.1-0.5c0-0.1-0.2-0.4-0.4-1L466,239.5z
			 M465.6,238.5l-2.7-6.2l-2.8,6.2H465.6z"/>
		<path class="st0" d="M483.2,231.9l0.2,4.2H483c-0.5-1.3-1.1-2.1-1.7-2.6s-1.2-0.7-1.7-0.7c-0.4,0-0.7,0.1-0.9,0.4
			c-0.3,0.2-0.4,0.5-0.4,0.8c0,0.2,0.1,0.5,0.3,0.7c0.3,0.4,1.1,1,2.4,1.9s2.2,1.6,2.6,2.2c0.4,0.6,0.6,1.3,0.6,2.1
			c0,0.7-0.2,1.4-0.5,2c-0.3,0.7-0.8,1.2-1.5,1.5c-0.6,0.4-1.3,0.5-2.1,0.5c-0.6,0-1.4-0.2-2.4-0.6c-0.3-0.1-0.4-0.1-0.5-0.1
			c-0.3,0-0.5,0.2-0.7,0.7h-0.4l-0.2-4.5h0.5c0.4,1.2,0.9,2,1.6,2.6s1.4,0.9,2,0.9c0.4,0,0.8-0.1,1-0.4c0.3-0.3,0.4-0.6,0.4-0.9
			c0-0.4-0.1-0.8-0.4-1.1s-0.9-0.8-1.8-1.4c-1.4-0.9-2.2-1.7-2.6-2.2c-0.6-0.7-0.9-1.5-0.9-2.4c0-1,0.3-1.8,1-2.6s1.6-1.2,2.9-1.2
			c0.7,0,1.3,0.2,2,0.5c0.2,0.1,0.4,0.2,0.6,0.2s0.3,0,0.4-0.1s0.3-0.3,0.5-0.6h0.1V231.9z"/>
		<path class="st0" d="M491,232.2v9.8c0,0.9,0.1,1.4,0.3,1.7c0.2,0.2,0.6,0.4,1.2,0.4v0.5h-6.7v-0.5c0.5,0,1-0.2,1.2-0.5
			c0.2-0.2,0.3-0.7,0.3-1.6v-7.2c0-0.9-0.1-1.4-0.3-1.7c-0.2-0.2-0.6-0.4-1.2-0.4v-0.5H491z M489.1,226.2c0.6,0,1.1,0.2,1.5,0.6
			c0.4,0.4,0.6,0.9,0.6,1.5s-0.2,1-0.6,1.4s-0.9,0.6-1.5,0.6s-1-0.2-1.4-0.6c-0.4-0.4-0.6-0.9-0.6-1.4c0-0.6,0.2-1.1,0.6-1.5
			C488.1,226.4,488.5,226.2,489.1,226.2z"/>
		<path class="st0" d="M500.7,242.8c-1.5,1.3-2.9,2-4.1,2c-0.7,0-1.3-0.2-1.8-0.7s-0.7-1-0.7-1.7c0-0.9,0.4-1.8,1.2-2.6
			c0.8-0.8,2.6-1.8,5.3-3v-1.2c0-0.9-0.1-1.5-0.2-1.8c-0.1-0.2-0.3-0.5-0.6-0.6c-0.3-0.2-0.6-0.3-1-0.3c-0.6,0-1,0.1-1.4,0.4
			c-0.2,0.2-0.3,0.3-0.3,0.6c0,0.2,0.1,0.4,0.4,0.7c0.3,0.4,0.5,0.7,0.5,1.1c0,0.4-0.2,0.8-0.5,1.1s-0.7,0.5-1.3,0.5
			c-0.6,0-1-0.2-1.4-0.5s-0.6-0.7-0.6-1.2c0-0.6,0.3-1.2,0.8-1.8s1.2-1,2.1-1.3s1.8-0.5,2.8-0.5c1.2,0,2.1,0.2,2.8,0.7
			c0.7,0.5,1.1,1,1.3,1.6c0.1,0.4,0.2,1.2,0.2,2.6v4.8c0,0.6,0,0.9,0.1,1.1c0,0.1,0.1,0.3,0.2,0.3c0.1,0.1,0.2,0.1,0.3,0.1
			c0.2,0,0.5-0.2,0.7-0.5l0.4,0.3c-0.4,0.7-0.9,1.1-1.4,1.4c-0.5,0.3-1,0.4-1.6,0.4c-0.7,0-1.3-0.2-1.7-0.5
			C501,244,500.7,243.5,500.7,242.8z M500.7,241.8v-4.1c-1.1,0.6-1.9,1.3-2.4,2c-0.3,0.5-0.5,1-0.5,1.4s0.1,0.8,0.4,1.1
			c0.2,0.2,0.5,0.4,0.9,0.4C499.6,242.6,500.1,242.3,500.7,241.8z"/>
	</g>
</g>
</svg>
