<svg width="40" height="30" viewBox="0 0 40 30" fill="none" xmlns="http://www.w3.org/2000/svg">
<g clip-path="url(#clip0_1152_8842)">
<path d="M0 0H39.4737V30H0V0Z" fill="white"/>
<mask id="mask0_1152_8842" style="mask-type:luminance" maskUnits="userSpaceOnUse" x="0" y="0" width="30" height="30">
<path d="M0 0H29.6053V30H0V0Z" fill="white"/>
</mask>
<g mask="url(#mask0_1152_8842)">
<path fill-rule="evenodd" clip-rule="evenodd" d="M0.378174 29.619L22.2806 29.6184L7.9448 14.8868L22.8205 14.9045L0.379388 0.379883L0.378174 29.619Z" fill="#CE0000" stroke="#000063"/>
<path fill-rule="evenodd" clip-rule="evenodd" d="M10.4507 21.7829L8.89027 22.3065L10.1109 23.4703L8.46654 23.3632L9.14399 24.9003L7.66668 24.1801L7.69709 25.8557L6.61083 24.6311L5.98976 26.1916L5.46068 24.6494L4.28312 25.8557L4.39073 24.2307L2.83622 24.9003L3.5649 23.4402L1.86867 23.4703L3.10781 22.3967L1.52954 21.7829L3.09 21.2601L1.86867 20.0963L3.51292 20.2026L2.83622 18.6663L4.31359 19.3864L4.28312 17.71L5.36944 18.9347L5.98976 17.3749L6.51953 18.9171L7.69709 17.7101L7.58879 19.3351L9.14399 18.6663L8.41537 20.1263L10.1108 20.0963L8.8717 21.1699L10.4507 21.7829ZM8.57623 10.9619L7.9211 11.4533L8.24398 11.7237C9.02812 11.1095 9.5861 10.5482 10.0222 9.61666C10.1245 10.86 8.99972 13.6511 6.04804 13.682C2.88901 13.6793 1.79287 10.7179 1.91476 9.56422C2.49512 10.6312 2.84923 11.1514 3.76023 11.7069L4.03893 11.4477L3.42191 10.9267L4.21622 10.7174L3.78891 9.9885L4.62104 10.05L4.51649 9.20123L5.24598 9.63383L5.47427 8.84375L5.99843 9.48008L6.48941 8.8768L6.75678 9.69652L7.43851 9.21588L7.35108 10.0496L8.16829 9.95234L7.78516 10.723L8.57623 10.9619Z" fill="white"/>
</g>
</g>
<defs>
<clipPath id="clip0_1152_8842">
<rect width="39.4737" height="30" fill="white"/>
</clipPath>
</defs>
</svg>
