<svg width="57" height="51" viewBox="0 0 57 51" fill="none" xmlns="http://www.w3.org/2000/svg">
<path d="M22.4755 22.8622C22.4755 19.4681 25.1522 16.7071 28.4427 16.7071C30.7614 16.7071 32.8435 18.0792 33.8298 20.2243H41.4768C41.4631 20.1373 41.4537 20.0507 41.4384 19.9636C41.3093 19.2395 41.1209 18.5171 40.8775 17.8119L39.1248 18.1439C38.3389 18.2938 37.5546 17.9355 37.1279 17.2329C36.6263 16.4072 36.7652 15.3305 37.4583 14.6728L38.5643 13.6238C37.7933 12.6693 36.9037 11.83 35.9119 11.1217C35.5586 11.6607 35.1762 12.1914 34.8681 12.5677C34.2914 13.2712 33.3435 13.5249 32.5068 13.1986C31.61 12.8487 31.0478 11.914 31.139 10.9256L31.4646 9.06455C30.3458 8.78801 29.1975 8.66446 28.0382 8.70183L28.1166 10.2547C28.1707 11.2092 27.5527 12.0529 26.6465 12.2578C25.7024 12.4033 24.8325 11.8419 24.5529 10.9269L24.0917 9.44925C22.9976 9.84054 21.9653 10.3752 21.0143 11.0439L21.9427 12.6315C22.3855 13.5543 22.1818 14.6341 21.4644 15.2901C20.7961 15.9016 19.8217 16.0129 19.04 15.5662C18.6236 15.3283 18.0836 14.9726 17.5661 14.5972C16.8833 15.6229 16.3407 16.733 15.949 17.9082L17.3436 18.4833C18.2178 18.8434 18.7191 19.7987 18.5345 20.755C18.3777 21.5683 17.7682 22.19 16.9818 22.3386L15.2291 22.6706C15.2445 23.4188 15.3174 24.1632 15.4461 24.8873C15.5748 25.6092 15.7628 26.3302 16.0061 27.0355L17.7588 26.7035C18.5465 26.5532 19.329 26.9119 19.7557 27.6145C20.2574 28.4406 20.1184 29.5169 19.4249 30.1746L18.3193 31.2232C19.0903 32.1777 19.9799 33.017 20.9717 33.7252C21.3255 33.1854 21.7078 32.6547 22.0156 32.2797C22.5927 31.5762 23.541 31.3225 24.3769 31.6488C25.2732 31.9987 25.8358 32.9334 25.7446 33.9218L25.419 35.7824C26.2561 35.9877 27.1269 36.1007 28.0152 36.1302V28.9946C24.925 28.7681 22.4755 26.1078 22.4755 22.8622Z" fill="#4B9E46"/>
<path d="M39.0984 6.15517C40.7462 6.15517 42.082 4.77729 42.082 3.07759C42.082 1.37788 40.7462 0 39.0984 0C37.4506 0 36.1147 1.37788 36.1147 3.07759C36.1147 4.77729 37.4506 6.15517 39.0984 6.15517Z" fill="#4B9E46"/>
<path d="M28.4426 17.5859C25.6223 17.5859 23.3279 19.9526 23.3279 22.8618C23.3279 25.6224 25.3955 27.8906 28.0164 28.1152V20.6635C28.0164 20.4208 28.2074 20.2239 28.4426 20.2239H32.8695C31.9637 18.6033 30.2908 17.5859 28.4426 17.5859Z" fill="#4B9E46"/>
<path d="M24.5111 36.0293L24.9024 33.802C24.9522 33.2437 24.6146 32.6818 24.0763 32.4712C23.5776 32.276 23.012 32.4272 22.6681 32.8471C22.3113 33.2824 21.845 33.9445 21.4507 34.575C21.3894 34.673 21.2926 34.742 21.1822 34.7667C21.0714 34.7913 20.9563 34.7693 20.8613 34.706C19.5378 33.8227 18.3742 32.7275 17.4028 31.4503C17.2656 31.2696 17.2861 31.0107 17.4497 30.855L18.8499 29.5268C19.2407 29.1562 19.3187 28.5482 19.0353 28.0813C18.7949 27.686 18.3542 27.4846 17.9147 27.5682L15.81 27.9669C15.6071 28.0039 15.4089 27.89 15.3352 27.6926C15.0125 26.8287 14.7683 25.9384 14.6093 25.0459C14.4495 24.1507 14.3711 23.2275 14.3753 22.3024C14.3762 22.0914 14.5228 21.9103 14.7244 21.872L16.8291 21.4732C17.2699 21.3897 17.6117 21.0402 17.6995 20.5829C17.8039 20.0426 17.5218 19.5023 17.0282 19.2996L15.2619 18.5715C15.0552 18.4862 14.9469 18.2514 15.0134 18.0325C15.4814 16.4827 16.1915 15.0323 17.1241 13.7217C17.191 13.6276 17.2916 13.5647 17.4033 13.5471C17.5154 13.5304 17.6292 13.5586 17.7204 13.628C18.3069 14.0738 18.9714 14.5214 19.4534 14.7966C19.9189 15.0626 20.5003 14.9967 20.8996 14.6318C21.3301 14.2378 21.452 13.5885 21.1959 13.0525L20.08 11.1466C19.9658 10.951 20.0156 10.6977 20.1946 10.5636C21.4209 9.64431 22.7823 8.94086 24.2404 8.47263C24.4638 8.40053 24.7012 8.52759 24.7732 8.75753L25.3665 10.659C25.5195 11.1616 25.9922 11.4684 26.4939 11.3919C26.9593 11.286 27.2961 10.8248 27.2666 10.302L27.1661 8.30424C27.1537 8.06331 27.3323 7.85755 27.5654 7.84261C29.0896 7.74456 30.6045 7.9046 32.0677 8.31435C32.2812 8.37415 32.4146 8.59222 32.3754 8.81688L31.9842 11.0442C31.9343 11.6025 32.2719 12.1644 32.8102 12.375C33.3089 12.5693 33.8745 12.4185 34.2185 11.9987C34.5761 11.5625 35.0423 10.9004 35.4358 10.2713C35.4971 10.1728 35.5935 10.1042 35.7043 10.0796C35.8151 10.0545 35.9306 10.0769 36.0257 10.1402C37.3487 11.0235 38.5123 12.1187 39.4841 13.3959C39.6213 13.5766 39.6009 13.8355 39.4372 13.9912L38.037 15.3194C37.6462 15.69 37.5682 16.2985 37.8521 16.7654C38.092 17.1607 38.5323 17.362 38.9726 17.2785L41.0773 16.8797C41.2781 16.8415 41.4784 16.9567 41.5522 17.1541C41.8748 18.0171 42.119 18.9087 42.2784 19.8039C42.3036 19.9441 42.3202 20.0835 42.3403 20.2237H48.3978C47.9614 14.8248 45.4782 9.73752 41.521 6.1429C40.8587 6.69906 40.016 7.03408 39.0983 7.03408C36.9834 7.03408 35.2623 5.25875 35.2623 3.07718C35.2623 2.80504 35.2891 2.53948 35.3399 2.28316C32.9973 1.35461 30.5363 0.878906 28.0164 0.878906C17.8555 0.878906 9.24609 8.59442 7.7854 18.9048H10.1147C10.35 18.9048 10.541 19.1017 10.541 19.3444V25.0599C10.541 25.3026 10.35 25.4996 10.1147 25.4996H7.8536C8.94133 32.1898 13.0625 37.904 18.9876 40.9139L21.1767 38.6396C21.2832 38.5288 21.4392 38.4839 21.5859 38.5239C21.7325 38.5631 21.848 38.6796 21.8889 38.8304L22.8624 42.3986C24.5494 42.8506 26.2808 43.0858 28.0164 43.0858V37.008C26.918 36.9737 25.8435 36.819 24.8188 36.5319C24.6053 36.4725 24.4714 36.254 24.5111 36.0293Z" fill="#4B9E46"/>
<path d="M9.68852 19.7842H5V24.6204H9.68852V19.7842Z" fill="#4B9E46"/>
<path d="M43.3606 43.086L43.3611 43.0842L43.3606 40.8877H42.5082V45.2842H43.3611V43.0877L43.3606 43.086Z" fill="#4B9E46"/>
<path d="M17.4974 43.7104L22.7166 45.1063L21.267 39.7939L17.4974 43.7104Z" fill="#4B9E46"/>
<path d="M33.557 21.1035C33.557 21.1035 33.5561 21.1035 33.5553 21.1035H28.8689V50.1208H57V21.1035H33.557ZM54.0164 43.5259H44.2132V45.2845C44.2132 45.7695 43.8308 46.1639 43.3607 46.1639H42.5082C42.0381 46.1639 41.6558 45.7695 41.6558 45.2845V43.5259H31.8525C31.6172 43.5259 31.4263 43.329 31.4263 43.0863C31.4263 42.8436 31.6172 42.6466 31.8525 42.6466H41.6558V40.888C41.6558 40.4031 42.0381 40.0087 42.5082 40.0087H43.3607C43.8308 40.0087 44.2132 40.4031 44.2132 40.888V42.6466H54.0164C54.2517 42.6466 54.4427 42.8436 54.4427 43.0863C54.4427 43.329 54.2517 43.5259 54.0164 43.5259ZM54.0164 36.0518H51.4591V37.8104C51.4591 38.2954 51.0767 38.6897 50.6066 38.6897H49.7541C49.284 38.6897 48.9017 38.2954 48.9017 37.8104V36.0518H31.8525C31.6172 36.0518 31.4263 35.8548 31.4263 35.6121C31.4263 35.3694 31.6172 35.1725 31.8525 35.1725H48.9017V33.4139C48.9017 32.9289 49.284 32.5345 49.7541 32.5345H50.6066C51.0767 32.5345 51.4591 32.9289 51.4591 33.4139V35.1725H54.0164C54.2517 35.1725 54.4427 35.3694 54.4427 35.6121C54.4427 35.8548 54.2517 36.0518 54.0164 36.0518ZM54.0164 28.5777H37.3935V30.3363C37.3935 30.8212 37.0112 31.2156 36.541 31.2156H35.6886C35.2184 31.2156 34.8361 30.8212 34.8361 30.3363V28.5777H31.8525C31.6172 28.5777 31.4263 28.3807 31.4263 28.138C31.4263 27.8953 31.6172 27.6983 31.8525 27.6983H34.8361V25.9397C34.8361 25.4548 35.2184 25.0604 35.6886 25.0604H36.541C37.0112 25.0604 37.3935 25.4548 37.3935 25.9397V27.6983H54.0164C54.2517 27.6983 54.4427 27.8953 54.4427 28.138C54.4427 28.3807 54.2517 28.5777 54.0164 28.5777Z" fill="#4B9E46"/>
<path d="M36.5409 28.1377L36.5414 28.136L36.5409 25.9395H35.6885V30.336H36.5414V28.1395L36.5409 28.1377Z" fill="#4B9E46"/>
<path d="M50.6066 35.6123L50.607 35.6106L50.6066 33.4141H49.7542V37.8106H50.607V35.6141L50.6066 35.6123Z" fill="#4B9E46"/>
</svg>
