<svg width="45" height="39" viewBox="0 0 45 39" fill="none" xmlns="http://www.w3.org/2000/svg">
<path d="M42.6219 4.99707H6.37795C6.05173 4.99707 5.73888 5.12547 5.50821 5.35403C5.27754 5.58259 5.14795 5.89259 5.14795 6.21582V34.4096C5.14795 34.7328 5.27754 35.0428 5.50821 35.2714C5.73888 35.4999 6.05173 35.6283 6.37795 35.6283H42.6219C42.9482 35.6283 43.261 35.4999 43.4917 35.2714C43.7224 35.0428 43.8519 34.7328 43.8519 34.4096V6.21582C43.8519 5.89259 43.7224 5.58259 43.4917 5.35403C43.261 5.12547 42.9482 4.99707 42.6219 4.99707ZM21.3429 25.1877L15.9719 30.9971L14.1679 29.3314L18.8009 24.3752L14.1679 19.3783L15.9719 17.7127L21.3429 23.5627C21.5447 23.7861 21.6562 24.0754 21.6562 24.3752C21.6562 24.675 21.5447 24.9642 21.3429 25.1877ZM34.9959 30.4283H22.4909V27.9908H34.9959V30.4283ZM41.3919 13.4471H7.60795V7.43457H41.3919V13.4471Z" fill="#4B9E46"/>
<path d="M11.4619 12.3902C12.5488 12.3902 13.4299 11.5172 13.4299 10.4402C13.4299 9.36328 12.5488 8.49023 11.4619 8.49023C10.375 8.49023 9.4939 9.36328 9.4939 10.4402C9.4939 11.5172 10.375 12.3902 11.4619 12.3902Z" fill="#4B9E46"/>
<path d="M16.546 12.3902C17.6329 12.3902 18.514 11.5172 18.514 10.4402C18.514 9.36328 17.6329 8.49023 16.546 8.49023C15.4591 8.49023 14.578 9.36328 14.578 10.4402C14.578 11.5172 15.4591 12.3902 16.546 12.3902Z" fill="#4B9E46"/>
<path d="M21.876 12.3902C22.9629 12.3902 23.844 11.5172 23.844 10.4402C23.844 9.36328 22.9629 8.49023 21.876 8.49023C20.7891 8.49023 19.908 9.36328 19.908 10.4402C19.908 11.5172 20.7891 12.3902 21.876 12.3902Z" fill="#4B9E46"/>
</svg>
