<svg width="57" height="57" viewBox="0 0 57 57" fill="none" xmlns="http://www.w3.org/2000/svg">
<path fill-rule="evenodd" clip-rule="evenodd" d="M38.2881 35.3863C38.2933 35.2022 38.3702 35.0274 38.5026 34.899C38.6349 34.7706 38.8122 34.6987 38.9968 34.6987C39.1814 34.6987 39.3587 34.7706 39.491 34.899C39.6234 35.0274 39.7003 35.2022 39.7055 35.3863V44.0274C39.7003 44.2115 39.6234 44.3864 39.491 44.5148C39.3587 44.6432 39.1814 44.715 38.9968 44.715C38.8122 44.715 38.6349 44.6432 38.5026 44.5148C38.3702 44.3864 38.2933 44.2115 38.2881 44.0274V35.3863ZM38.2881 47.9487C38.2933 47.7646 38.3702 47.5897 38.5026 47.4613C38.6349 47.3329 38.8122 47.2611 38.9968 47.2611C39.1814 47.2611 39.3587 47.3329 39.491 47.4613C39.6234 47.5897 39.7003 47.7646 39.7055 47.9487V48.0347C39.7003 48.2188 39.6234 48.3937 39.491 48.5221C39.3587 48.6505 39.1814 48.7223 38.9968 48.7223C38.8122 48.7223 38.6349 48.6505 38.5026 48.5221C38.3702 48.3937 38.2933 48.2188 38.2881 48.0347V47.9476V47.9487ZM22.0425 21.5599C21.858 21.5547 21.6828 21.4779 21.5541 21.3459C21.4255 21.2138 21.3535 21.0369 21.3535 20.8527C21.3535 20.6685 21.4255 20.4916 21.5541 20.3595C21.6828 20.2275 21.858 20.1507 22.0425 20.1455H31.0854C31.2699 20.1507 31.4451 20.2275 31.5738 20.3595C31.7025 20.4916 31.7744 20.6685 31.7744 20.8527C31.7744 21.0369 31.7025 21.2138 31.5738 21.3459C31.4451 21.4779 31.2699 21.5547 31.0854 21.5599H22.0425ZM22.0425 18.1757C21.8546 18.1757 21.6745 18.1012 21.5416 17.9686C21.4088 17.836 21.3341 17.6562 21.3341 17.4688C21.3341 17.2813 21.4088 17.1015 21.5416 16.9689C21.6745 16.8363 21.8546 16.7618 22.0425 16.7618H31.0854C31.2733 16.7618 31.4535 16.8363 31.5863 16.9689C31.7192 17.1015 31.7938 17.2813 31.7938 17.4688C31.7938 17.6562 31.7192 17.836 31.5863 17.9686C31.4535 18.1012 31.2733 18.1757 31.0854 18.1757H22.0425ZM22.0425 32.0121C21.8546 32.0121 21.6745 31.9377 21.5416 31.8051C21.4088 31.6725 21.3341 31.4927 21.3341 31.3052C21.3341 31.1177 21.4088 30.9379 21.5416 30.8054C21.6745 30.6728 21.8546 30.5983 22.0425 30.5983H31.0854C31.2733 30.5983 31.4535 30.6728 31.5863 30.8054C31.7192 30.9379 31.7938 31.1177 31.7938 31.3052C31.7938 31.4927 31.7192 31.6725 31.5863 31.8051C31.4535 31.9377 31.2733 32.0121 31.0854 32.0121H22.0425ZM22.0425 28.6279C21.8546 28.6279 21.6745 28.5534 21.5416 28.4209C21.4088 28.2883 21.3341 28.1085 21.3341 27.921C21.3341 27.7335 21.4088 27.5537 21.5416 27.4211C21.6745 27.2886 21.8546 27.2141 22.0425 27.2141H31.0854C31.2733 27.2141 31.4535 27.2886 31.5863 27.4211C31.7192 27.5537 31.7938 27.7335 31.7938 27.921C31.7938 28.1085 31.7192 28.2883 31.5863 28.4209C31.4535 28.5534 31.2733 28.6279 31.0854 28.6279H22.0425ZM13.9869 5.96873C13.9869 5.96146 13.9869 5.96482 13.9869 5.96873V5.96873ZM28.6029 10.3773C28.6029 10.3818 28.6029 10.3846 28.6029 10.3773V10.3773ZM16.4896 5.92402C16.6652 5.92394 16.8346 5.85878 16.9648 5.74118C17.0951 5.62359 17.177 5.46192 17.1946 5.28752C17.2811 4.93067 17.4388 4.59489 17.6583 4.30022C17.8778 4.00555 18.1545 3.75805 18.472 3.57249C19.3238 3.06365 20.298 2.79492 21.2907 2.79492C22.2835 2.79492 23.2577 3.06365 24.1095 3.57249C24.4345 3.76073 24.7169 4.0143 24.9386 4.31712C25.1603 4.61995 25.3166 4.96543 25.3975 5.33167C25.4244 5.4972 25.5095 5.64775 25.6376 5.7563C25.7657 5.86486 25.9283 5.92432 26.0964 5.92402H28.4204C28.4817 5.9209 28.5423 5.93906 28.5917 5.97543C28.5945 5.97543 28.5968 5.97152 28.5984 5.96705V10.3784C28.5984 10.3739 28.5945 10.3678 28.5917 10.3706C28.5421 10.4067 28.4817 10.4248 28.4204 10.422H14.165C14.1048 10.4242 14.0456 10.4061 13.997 10.3706C13.9936 10.3706 13.9914 10.3739 13.9897 10.3784V5.96593C13.9897 5.9704 13.9936 5.97655 13.997 5.97376C14.0457 5.93844 14.1049 5.92053 14.165 5.9229L16.4896 5.92402ZM12.5696 8.87237V7.48873H5.84172C5.4326 7.49035 5.0407 7.65324 4.7514 7.94193C4.46211 8.23062 4.29886 8.6217 4.29724 9.02996V48.9356C4.29886 49.3438 4.46211 49.7349 4.7514 50.0236C5.0407 50.3123 5.4326 50.4752 5.84172 50.4768H23.0158C23.0923 50.1999 23.2041 49.934 23.3484 49.6855L23.6917 49.0926H7.3246C6.9092 49.0911 6.51123 48.9258 6.21749 48.6327C5.92375 48.3395 5.75808 47.9424 5.7566 47.5279V10.4388C5.75808 10.0242 5.92375 9.62709 6.21749 9.33397C6.51123 9.04085 6.9092 8.87552 7.3246 8.87405L12.5696 8.87237ZM30.0175 7.48873V8.87237H35.2608C35.676 8.87428 36.0737 9.03975 36.3674 9.33278C36.661 9.6258 36.8268 10.0227 36.8288 10.4371V26.6687C37.238 26.2863 37.7426 26.0203 38.2898 25.8986V9.03164C38.2886 8.6228 38.1253 8.23103 37.8356 7.94194C37.5459 7.65284 37.1533 7.48991 36.7436 7.48873H30.0175ZM22.0425 42.4649C21.8546 42.4649 21.6745 42.3905 21.5416 42.2579C21.4088 42.1253 21.3341 41.9455 21.3341 41.758C21.3341 41.5705 21.4088 41.3907 21.5416 41.2582C21.6745 41.1256 21.8546 41.0511 22.0425 41.0511H26.564C26.7518 41.0511 26.932 41.1256 27.0649 41.2582C27.1977 41.3907 27.2724 41.5705 27.2724 41.758C27.2724 41.9455 27.1977 42.1253 27.0649 42.2579C26.932 42.3905 26.7518 42.4649 26.564 42.4649H22.0425ZM31.3464 38.6828C31.3317 38.7128 31.3151 38.7417 31.2965 38.7694L31.0115 39.2623L24.5715 50.3896C24.4234 50.6413 24.3387 50.9251 24.3245 51.2167C24.3245 51.2407 24.3245 51.2642 24.3245 51.2876C24.3264 51.604 24.4117 51.9144 24.572 52.1873C24.7278 52.4649 24.9544 52.6962 25.2289 52.8579C25.505 53.0129 25.8171 53.0925 26.1339 53.0887H51.8939C52.2119 53.0966 52.5259 53.0168 52.8015 52.8583C53.0771 52.6998 53.3036 52.4686 53.4563 52.1901C53.6187 51.9182 53.7044 51.6075 53.7044 51.291C53.7044 50.9744 53.6187 50.6638 53.4563 50.3918L47.0163 39.2634L40.5752 28.1317C40.4193 27.855 40.1925 27.6247 39.918 27.4644C39.6434 27.3042 39.3311 27.2197 39.013 27.2197C38.695 27.2197 38.3827 27.3042 38.1081 27.4644C37.8336 27.6247 37.6068 27.855 37.4509 28.1317L31.3464 38.6828ZM22.0425 39.0807C21.8546 39.0807 21.6745 39.0062 21.5416 38.8736C21.4088 38.7411 21.3341 38.5613 21.3341 38.3738C21.3341 38.1863 21.4088 38.0065 21.5416 37.8739C21.6745 37.7413 21.8546 37.6669 22.0425 37.6669H30.302L35.4097 28.8375V10.4388C35.4099 10.3982 35.394 10.3592 35.3655 10.3303C35.3518 10.3166 35.3354 10.3058 35.3174 10.2985C35.2994 10.2912 35.2802 10.2876 35.2608 10.2879H30.0175V10.3767C30.016 10.5813 29.9692 10.783 29.8806 10.9674C29.7919 11.1518 29.6635 11.3144 29.5045 11.4435C29.2005 11.6971 28.8166 11.8357 28.4204 11.8347H14.165C13.7688 11.8356 13.3849 11.6971 13.0808 11.4435C12.922 11.3143 12.7936 11.1517 12.705 10.9673C12.6163 10.7829 12.5695 10.5812 12.5679 10.3767V10.2879H7.3246C7.30524 10.2876 7.28603 10.2912 7.26806 10.2984C7.25009 10.3056 7.23372 10.3163 7.21988 10.3298C7.20568 10.3441 7.19445 10.3612 7.18686 10.3799C7.17927 10.3986 7.17546 10.4186 7.17564 10.4388V47.5284C7.17508 47.5491 7.17871 47.5696 7.18631 47.5888C7.19392 47.608 7.20534 47.6255 7.21988 47.6402C7.23372 47.6537 7.25009 47.6644 7.26806 47.6716C7.28603 47.6787 7.30524 47.6823 7.3246 47.6821H24.511L29.4855 39.0835L22.0425 39.0807ZM17.688 36.9236L18.5168 36.2771C18.6646 36.1687 18.849 36.122 19.0307 36.1469C19.2125 36.1717 19.3774 36.2662 19.4906 36.4103C19.6038 36.5544 19.6563 36.7368 19.6371 36.9189C19.6178 37.1009 19.5284 37.2684 19.3876 37.3858L17.7025 38.7001V43.0724C17.7024 43.2598 17.6277 43.4395 17.4949 43.5721C17.3621 43.7046 17.182 43.7791 16.9941 43.7793H10.968C10.7801 43.7791 10.6 43.7046 10.4672 43.5721C10.3344 43.4395 10.2597 43.2598 10.2596 43.0724V37.0578C10.2597 36.8703 10.3344 36.6906 10.4672 36.5581C10.6 36.4255 10.7801 36.351 10.968 36.3508H16.9941C17.1584 36.3512 17.3174 36.4086 17.444 36.5131C17.5705 36.6176 17.6568 36.7627 17.688 36.9236ZM12.7448 39.9329L13.7243 40.9857C13.8494 41.1197 14.0218 41.1999 14.2051 41.2094C14.3884 41.2189 14.5682 41.1569 14.7065 41.0366L16.2835 39.8072V42.3671H11.6736V37.7647H16.288V38.0189L14.3235 39.5512L13.7842 38.9717C13.6565 38.8348 13.4795 38.7541 13.2921 38.7474C13.1047 38.7407 12.9224 38.8085 12.7852 38.936C12.6479 39.0634 12.5671 39.2401 12.5603 39.427C12.5536 39.614 12.6216 39.796 12.7493 39.9329H12.7448ZM17.688 26.4714L18.5168 25.8248C18.5899 25.7678 18.6735 25.7257 18.7629 25.7009C18.8523 25.6761 18.9458 25.6691 19.0379 25.6803C19.13 25.6915 19.219 25.7208 19.2998 25.7663C19.3806 25.8119 19.4516 25.8729 19.5088 25.9458C19.566 26.0188 19.6082 26.1022 19.633 26.1915C19.6579 26.2807 19.6649 26.3739 19.6536 26.4659C19.6424 26.5578 19.6131 26.6466 19.5674 26.7272C19.5218 26.8079 19.4607 26.8787 19.3876 26.9358L17.7025 28.249V32.6213C17.7025 32.8087 17.6279 32.9885 17.495 33.1211C17.3622 33.2537 17.182 33.3282 16.9941 33.3282H10.968C10.7801 33.3282 10.5999 33.2537 10.467 33.1211C10.3342 32.9885 10.2596 32.8087 10.2596 32.6213V26.6055C10.2596 26.418 10.3342 26.2382 10.467 26.1057C10.5999 25.9731 10.7801 25.8986 10.968 25.8986H16.9941C17.1584 25.899 17.3174 25.9563 17.444 26.0608C17.5705 26.1653 17.6568 26.3105 17.688 26.4714ZM12.7448 29.4801L13.7243 30.5329C13.8493 30.6671 14.0218 30.7474 14.2051 30.7568C14.3884 30.7663 14.5682 30.7043 14.7065 30.5838L16.2835 29.3544V31.9149H11.6736V27.3124H16.288V27.5661L14.3207 29.0984L13.7814 28.5189C13.6537 28.382 13.4767 28.3013 13.2893 28.2946C13.1019 28.2879 12.9196 28.3557 12.7824 28.4832C12.6451 28.6106 12.5643 28.7873 12.5575 28.9742C12.5508 29.1612 12.6188 29.3432 12.7465 29.4801H12.7448ZM17.688 16.0186L18.5168 15.372C18.6647 15.2623 18.8498 15.2146 19.0326 15.2392C19.2153 15.2639 19.3811 15.3588 19.4946 15.5038C19.6081 15.6488 19.6602 15.8323 19.6399 16.0152C19.6196 16.1981 19.5284 16.3658 19.3859 16.4824L17.7008 17.7962V22.1685C17.7008 22.2613 17.6825 22.3532 17.6469 22.439C17.6113 22.5248 17.5591 22.6027 17.4934 22.6683C17.4276 22.734 17.3495 22.786 17.2635 22.8216C17.1776 22.8571 17.0855 22.8754 16.9924 22.8754H10.968C10.8749 22.8754 10.7828 22.8571 10.6969 22.8216C10.6109 22.786 10.5328 22.734 10.467 22.6683C10.4013 22.6027 10.3491 22.5248 10.3135 22.439C10.2779 22.3532 10.2596 22.2613 10.2596 22.1685V16.1505C10.2602 15.9634 10.3351 15.7842 10.4678 15.6521C10.6006 15.52 10.7805 15.4458 10.968 15.4458H16.9941C17.1584 15.4462 17.3174 15.5036 17.444 15.608C17.5705 15.7125 17.6568 15.8577 17.688 16.0186ZM12.7448 19.0273L13.7243 20.0801C13.8492 20.2144 14.0217 20.2948 14.2051 20.3043C14.3884 20.3138 14.5683 20.2516 14.7065 20.131L16.2835 18.9016V21.4593H11.6736V16.8596H16.288V17.1133L14.3235 18.6456L13.7842 18.0667C13.7212 17.9979 13.6453 17.9423 13.5606 17.903C13.476 17.8637 13.3844 17.8415 13.2912 17.8377C13.1979 17.8339 13.1048 17.8486 13.0173 17.881C12.9297 17.9133 12.8495 17.9626 12.7811 18.026C12.7128 18.0894 12.6577 18.1658 12.6191 18.2506C12.5804 18.3354 12.559 18.427 12.5561 18.52C12.5531 18.6131 12.5687 18.7059 12.6018 18.793C12.635 18.88 12.6851 18.9597 12.7493 19.0273H12.7448Z" fill="#4B9E46"/>
</svg>
