<svg width="52" height="49" viewBox="0 0 52 49" fill="none" xmlns="http://www.w3.org/2000/svg">
<path d="M28.1087 28.934C29.5647 30.9038 29.5231 33.8258 27.4972 35.9349C25.4712 38.0439 22.8484 39.3803 20.772 36.5713C19.316 34.6015 19.3576 31.6796 21.3835 29.5705C23.4094 27.4615 26.0318 26.1251 28.1087 28.934Z" fill="#4B9E46"/>
<path d="M30.3878 42.787C28.0868 43.7907 25.5502 44.3575 22.88 44.3575C12.558 44.3575 4.16003 36.0275 4.16003 25.7891C4.16003 15.5507 12.558 7.2207 22.88 7.2207C26.2912 7.2207 29.4825 8.14551 32.24 9.73311V19.5996C31.8365 21.5266 26 24.6286 26 21.147C26 14.9782 21.5468 18.9374 21.3247 10.3933C17.7133 10.7497 14.4659 12.3368 12.0027 14.7193C12.4436 18.8208 19.76 16.6798 19.76 21.147C19.76 23.3892 14.3786 24.3898 14.9584 27.3607C15.741 31.3751 12.2616 32.2097 11.986 36.8446C14.8003 39.5731 18.6431 41.2628 22.88 41.2628C25.4109 41.2628 27.7956 40.6485 29.9115 39.5829C29.911 39.6278 29.9 39.6706 29.9 39.7154C29.9 40.7867 30.0737 41.8178 30.3878 42.787Z" fill="#4B9E46"/>
<path d="M40.04 47.4523C35.7391 47.4523 32.24 43.9815 32.24 39.7155C32.24 37.6575 33.086 35.6866 34.58 34.23V9.54177C34.58 6.55586 37.0297 4.12598 40.04 4.12598C43.0503 4.12598 45.5 6.55586 45.5 9.54177V34.23C46.994 35.6866 47.84 37.6575 47.84 39.7155C47.84 43.9815 44.3409 47.4523 40.04 47.4523ZM40.04 6.44703C38.3193 6.44703 36.92 7.83502 36.92 9.54177V34.7396C36.92 35.079 36.7707 35.4009 36.5107 35.6211C35.2841 36.663 34.58 38.1552 34.58 39.7155C34.58 42.7014 37.0297 45.1312 40.04 45.1312C43.0503 45.1312 45.5 42.7014 45.5 39.7155C45.5 38.1552 44.7959 36.663 43.5692 35.6211C43.3092 35.4004 43.16 35.0785 43.16 34.7396V9.54177C43.16 7.83502 41.7607 6.44703 40.04 6.44703Z" fill="#4B9E46"/>
<path d="M43.16 39.7162C43.16 41.6442 41.3821 43.1606 39.364 42.7402C38.233 42.505 37.2897 41.605 37.0157 40.4914C36.6558 39.0302 37.3464 37.7046 38.48 37.0501V9.54249C38.48 8.68782 39.1784 7.99512 40.04 7.99512C40.9016 7.99512 41.6 8.68782 41.6 9.54249V14.9583H40.04V16.5056H41.6V21.1477H40.04V22.6951H41.6V27.3372H40.04V28.8846H41.6V37.0506C42.5287 37.587 43.16 38.5737 43.16 39.7162Z" fill="#4B9E46"/>
</svg>
